<svg version="1.1" xmlns="http://www.w3.org/2000/svg" xmlns:xlink="http://www.w3.org/1999/xlink" stroke-linecap="round" stroke-linejoin="round" stroke-width="0" fill-rule="evenodd" clip-rule="evenodd" id="I39lRH7SRugk_top" viewBox="43180 -109220 91440 66040" width="91.44mm" height="66.04mm"><defs><style>.I39lRH7SRugk_fr4 {color: #666666;}
.I39lRH7SRugk_cu {color: #cccccc;}
.I39lRH7SRugk_cf {color: #cc9933;}
.I39lRH7SRugk_sm {color: #ff0000; opacity: 0.75;}
.I39lRH7SRugk_ss {color: #ffffff;}
.I39lRH7SRugk_sp {color: #999999;}
.I39lRH7SRugk_out {color: #000000;}</style><circle cx="0" cy="0" r="5080" id="dao5XzaNI77n_pad-10"/><g id="dao5XzaNI77n_pad-11"><polygon points="200,-2100 200,2100 -200,2100 -200,-2100"/><circle cx="200" cy="-2100" r="200"/><circle cx="200" cy="2100" r="200"/><circle cx="-200" cy="2100" r="200"/><circle cx="-200" cy="-2100" r="200"/><polygon points="400,-2100 400,2100 0,2100 0,-2100"/><polygon points="200,1900 -200,1900 -200,2300 200,2300"/><polygon points="0,2100 0,-2100 -400,-2100 -400,2100"/><polygon points="-200,-2300 200,-2300 200,-1900 -200,-1900"/></g><g id="dao5XzaNI77n_pad-12"><polygon points="2375,-2025 2375,2025 -2375,2025 -2375,-2025"/><circle cx="2375" cy="-2025" r="250"/><circle cx="2375" cy="2025" r="250"/><circle cx="-2375" cy="2025" r="250"/><circle cx="-2375" cy="-2025" r="250"/><polygon points="2625,-2025 2625,2025 2125,2025 2125,-2025"/><polygon points="2375,1775 -2375,1775 -2375,2275 2375,2275"/><polygon points="-2125,2025 -2125,-2025 -2625,-2025 -2625,2025"/><polygon points="-2375,-2275 2375,-2275 2375,-1775 -2375,-1775"/></g><g id="dao5XzaNI77n_pad-13"><polygon points="5149.998,-4449.998 5149.998,4449.998 -5149.998,4449.998 -5149.998,-4449.998"/><circle cx="5149.998" cy="-4449.998" r="250.002"/><circle cx="5149.998" cy="4449.998" r="250.002"/><circle cx="-5149.998" cy="4449.998" r="250.002"/><circle cx="-5149.998" cy="-4449.998" r="250.002"/><polygon points="5400,-4449.998 5400,4449.998 4899.996,4449.998 4899.996,-4449.998"/><polygon points="5149.998,4199.996 -5149.998,4199.996 -5149.998,4700 5149.998,4700"/><polygon points="-4899.996,4449.998 -4899.996,-4449.998 -5400,-4449.998 -5400,4449.998"/><polygon points="-5149.998,-4700 5149.998,-4700 5149.998,-4199.996 -5149.998,-4199.996"/></g><circle cx="0" cy="0" r="400" id="dao5XzaNI77n_pad-14"/><circle cx="0" cy="0" r="1600" id="Kr5FDTwISrga_pad-11"/><circle cx="0" cy="0" r="5080" id="Kr5FDTwISrga_pad-12"/><g id="Kr5FDTwISrga_pad-13"><polygon points="200,-2100 200,2100 -200,2100 -200,-2100"/><circle cx="200" cy="-2100" r="200"/><circle cx="200" cy="2100" r="200"/><circle cx="-200" cy="2100" r="200"/><circle cx="-200" cy="-2100" r="200"/><polygon points="400,-2100 400,2100 0,2100 0,-2100"/><polygon points="200,1900 -200,1900 -200,2300 200,2300"/><polygon points="0,2100 0,-2100 -400,-2100 -400,2100"/><polygon points="-200,-2300 200,-2300 200,-1900 -200,-1900"/></g><g id="Kr5FDTwISrga_pad-14"><polygon points="5149.998,-4449.998 5149.998,4449.998 -5149.998,4449.998 -5149.998,-4449.998"/><circle cx="5149.998" cy="-4449.998" r="250.002"/><circle cx="5149.998" cy="4449.998" r="250.002"/><circle cx="-5149.998" cy="4449.998" r="250.002"/><circle cx="-5149.998" cy="-4449.998" r="250.002"/><polygon points="5400,-4449.998 5400,4449.998 4899.996,4449.998 4899.996,-4449.998"/><polygon points="5149.998,4199.996 -5149.998,4199.996 -5149.998,4700 5149.998,4700"/><polygon points="-4899.996,4449.998 -4899.996,-4449.998 -5400,-4449.998 -5400,4449.998"/><polygon points="-5149.998,-4700 5149.998,-4700 5149.998,-4199.996 -5149.998,-4199.996"/></g><g id="ONw01ofrACyi_pad-10"><polygon points="200,-2100 200,2100 -200,2100 -200,-2100"/><circle cx="200" cy="-2100" r="200"/><circle cx="200" cy="2100" r="200"/><circle cx="-200" cy="2100" r="200"/><circle cx="-200" cy="-2100" r="200"/><polygon points="400,-2100 400,2100 0,2100 0,-2100"/><polygon points="200,1900 -200,1900 -200,2300 200,2300"/><polygon points="0,2100 0,-2100 -400,-2100 -400,2100"/><polygon points="-200,-2300 200,-2300 200,-1900 -200,-1900"/></g><g id="ONw01ofrACyi_pad-11"><polygon points="2375,-2025 2375,2025 -2375,2025 -2375,-2025"/><circle cx="2375" cy="-2025" r="250"/><circle cx="2375" cy="2025" r="250"/><circle cx="-2375" cy="2025" r="250"/><circle cx="-2375" cy="-2025" r="250"/><polygon points="2625,-2025 2625,2025 2125,2025 2125,-2025"/><polygon points="2375,1775 -2375,1775 -2375,2275 2375,2275"/><polygon points="-2125,2025 -2125,-2025 -2625,-2025 -2625,2025"/><polygon points="-2375,-2275 2375,-2275 2375,-1775 -2375,-1775"/></g><circle cx="0" cy="0" r="63" id="xtJRsqmrZoYR_pad-1"/><circle cx="0" cy="0" r="7.85" id="jpgEpCM7KWBz_pad-1"/><circle cx="0" cy="0" r="120.1" id="jpgEpCM7KWBz_pad-2"/><g id="I39lRH7SRugk_top_copper"><use xlink:href="#dao5XzaNI77n_pad-10" x="69850" y="-50800"/><use xlink:href="#dao5XzaNI77n_pad-10" x="88900" y="-101600"/><use xlink:href="#dao5XzaNI77n_pad-10" x="50800" y="-66675"/><use xlink:href="#dao5XzaNI77n_pad-10" x="69850" y="-101600"/><use xlink:href="#dao5XzaNI77n_pad-10" x="127000" y="-85725"/><use xlink:href="#dao5XzaNI77n_pad-10" x="107950" y="-101600"/><use xlink:href="#dao5XzaNI77n_pad-10" x="50800" y="-85725"/><use xlink:href="#dao5XzaNI77n_pad-10" x="127000" y="-66675"/><use xlink:href="#dao5XzaNI77n_pad-11" x="85090" y="-85350"/><use xlink:href="#dao5XzaNI77n_pad-11" x="86360" y="-85350"/><use xlink:href="#dao5XzaNI77n_pad-11" x="87630" y="-85350"/><use xlink:href="#dao5XzaNI77n_pad-11" x="88900" y="-85350"/><use xlink:href="#dao5XzaNI77n_pad-12" x="86125" y="-78625"/><use xlink:href="#dao5XzaNI77n_pad-12" x="91675" y="-78625"/><use xlink:href="#dao5XzaNI77n_pad-13" x="88900" y="-76200"/><use xlink:href="#dao5XzaNI77n_pad-12" x="86125" y="-73775"/><use xlink:href="#dao5XzaNI77n_pad-12" x="91675" y="-73775"/><use xlink:href="#dao5XzaNI77n_pad-11" x="90170" y="-85350"/><use xlink:href="#dao5XzaNI77n_pad-11" x="91440" y="-85350"/><use xlink:href="#dao5XzaNI77n_pad-11" x="92710" y="-85350"/><use xlink:href="#dao5XzaNI77n_pad-14" x="96520" y="-77470"/><use xlink:href="#dao5XzaNI77n_pad-14" x="96520" y="-74930"/><use xlink:href="#dao5XzaNI77n_pad-14" x="86360" y="-68580"/><use xlink:href="#dao5XzaNI77n_pad-14" x="81280" y="-72390"/><use xlink:href="#dao5XzaNI77n_pad-14" x="91440" y="-68580"/><use xlink:href="#dao5XzaNI77n_pad-14" x="93980" y="-68580"/><use xlink:href="#dao5XzaNI77n_pad-14" x="81280" y="-74930"/><use xlink:href="#dao5XzaNI77n_pad-14" x="81280" y="-80010"/><use xlink:href="#dao5XzaNI77n_pad-14" x="81280" y="-69850"/><use xlink:href="#dao5XzaNI77n_pad-14" x="83820" y="-68580"/><use xlink:href="#dao5XzaNI77n_pad-14" x="96520" y="-69850"/><use xlink:href="#dao5XzaNI77n_pad-14" x="96520" y="-80010"/><use xlink:href="#dao5XzaNI77n_pad-14" x="81280" y="-77470"/><use xlink:href="#dao5XzaNI77n_pad-14" x="88900" y="-68580"/><use xlink:href="#dao5XzaNI77n_pad-14" x="96520" y="-72390"/><path d="M 85090 -87650 83840 -88900 M 73025 -88900 50800 -66675 M 85090 -85350 85090 -87650 M 83840 -88900 73025 -88900 M 56515 -91440 50800 -85725 M 83820 -91440 56515 -91440 M 86360 -85350 86360 -88900 83820 -91440 M 87630 -85350 87630 -90170 76200 -101600 69850 -101600 M 88900 -85350 88900 -101600 M 90170 -85350 90170 -90170 M 101600 -101600 107950 -101600 M 90170 -90170 101600 -101600 M 121285 -91440 127000 -85725 M 93980 -91440 121285 -91440 M 91440 -88900 93980 -91440 M 91440 -85350 91440 -88900 M 104775 -88900 127000 -66675 M 92710 -87630 93980 -88900 M 92710 -85350 92710 -87630 M 93980 -88900 104775 -88900" fill="none" stroke-width="889"/><path d="M 127322.14 -43191.504 127522.52 -43198.661 127526.58 -43198.942 127814.973 -43228.589 128051.748 -43254.046 128055.619 -43254.588 128334.032 -43302.592 128575.786 -43346.209 128579.345 -43346.963 128841.257 -43410.789 128850.934 -43413.148 129092.051 -43474.689 129095.4 -43475.647 129360.331 -43559.732 129598.091 -43638.866 129601.205 -43639.999 129715.553 -43685.091 129858.831 -43741.592 130091.402 -43837.927 130094.269 -43839.202 130251.768 -43914.105 130343.806 -43957.877 130569.576 -44070.889 130572.211 -44072.288 130812.732 -44207.526 130898.176 -44258.221 131030.359 -44336.65 131032.709 -44338.117 131163.888 -44424.157 131263.229 -44489.315 131263.251 -44489.329 131472.485 -44634.603 131693.115 -44801.912 131891.579 -44961.844 132046.837 -45097.222 132100.199 -45143.751 132286.816 -45317.497 132482.502 -45513.183 132656.248 -45699.8 132708.86 -45760.137 132838.158 -45908.423 132947.881 -46044.582 132998.087 -46106.884 133165.396 -46327.514 133310.67 -46536.748 133461.881 -46767.289 133463.359 -46769.656 133592.473 -46987.267 133727.71 -47227.787 133729.109 -47230.422 133842.122 -47456.193 133960.786 -47705.706 133962.076 -47708.608 134058.414 -47941.188 134159.999 -48198.793 134161.15 -48201.959 134240.283 -48439.717 134324.34 -48704.561 134325.319 -48707.984 134386.851 -48949.065 134453.021 -49220.589 134453.799 -49224.261 134497.418 -49466.026 134545.41 -49744.381 134545.957 -49748.288 134571.425 -49985.174 134601.053 -50273.378 134601.338 -50277.506 134608.507 -50478.225 134619.5 -50800.001 134619.5 -101599.999 134608.507 -101921.774 134601.338 -102122.492 134601.053 -102126.62 134571.425 -102414.825 134545.957 -102651.71 134545.41 -102655.617 134497.418 -102933.973 134453.799 -103175.737 134453.021 -103179.409 134386.851 -103450.934 134325.319 -103692.014 134324.34 -103695.437 134240.283 -103960.282 134161.15 -104198.039 134160 -104201.205 134058.414 -104458.811 133962.076 -104691.39 133960.786 -104694.292 133842.122 -104943.806 133729.109 -105169.576 133727.71 -105172.211 133592.473 -105412.732 133463.359 -105630.342 133461.881 -105632.709 133310.67 -105863.251 133165.396 -106072.485 132998.087 -106293.115 132838.151 -106491.585 132656.248 -106700.199 132482.502 -106886.816 132286.816 -107082.502 132100.199 -107256.248 131891.585 -107438.151 131693.115 -107598.087 131472.485 -107765.396 131263.251 -107910.67 131032.709 -108061.881 131030.342 -108063.359 130812.732 -108192.473 130572.211 -108327.71 130569.576 -108329.109 130343.806 -108442.122 130094.292 -108560.786 130091.39 -108562.076 129858.811 -108658.414 129601.205 -108760 129598.039 -108761.15 129360.282 -108840.283 129095.437 -108924.34 129092.014 -108925.319 128850.934 -108986.851 128579.409 -109053.021 128575.737 -109053.799 128333.973 -109097.418 128055.617 -109145.41 128051.71 -109145.957 127814.825 -109171.425 127526.62 -109201.053 127522.492 -109201.338 127321.774 -109208.507 126999.999 -109219.5 50800.001 -109219.5 50478.225 -109208.507 50277.506 -109201.338 50273.378 -109201.053 49985.174 -109171.425 49748.288 -109145.957 49744.381 -109145.41 49466.026 -109097.418 49224.261 -109053.799 49220.604 -109053.024 49119.381 -109028.356 48949.065 -108986.851 48707.984 -108925.319 48704.561 -108924.34 48439.717 -108840.283 48201.95 -108761.146 48198.793 -108759.999 47941.188 -108658.414 47708.608 -108562.076 47705.706 -108560.786 47456.193 -108442.122 47230.422 -108329.109 47227.787 -108327.71 46987.267 -108192.473 46769.656 -108063.359 46767.289 -108061.881 46536.748 -107910.67 46327.514 -107765.396 46106.884 -107598.087 46023.367 -107530.785 45908.423 -107438.158 45760.137 -107308.86 45699.8 -107256.248 45513.183 -107082.502 45317.497 -106886.816 45143.751 -106700.199 45066.097 -106611.142 44961.844 -106491.579 44801.912 -106293.115 44634.603 -106072.485 44489.329 -105863.251 44338.117 -105632.709 44336.65 -105630.359 44207.526 -105412.732 44072.288 -105172.211 44070.889 -105169.576 43957.877 -104943.806 43918.755 -104861.545 43839.202 -104694.27 43837.922 -104691.39 43741.585 -104458.811 43639.999 -104201.205 43638.866 -104198.091 43559.732 -103960.331 43475.647 -103695.4 43474.689 -103692.051 43413.148 -103450.934 43402.031 -103405.316 43346.963 -103179.345 43346.209 -103175.786 43302.586 -102933.999 43254.588 -102655.617 43254.046 -102651.748 43228.574 -102414.825 43198.942 -102126.58 43198.661 -102122.52 43191.492 -101921.774 43182.815 -101667.763 48945.787 -101667.763 48975.413 -101937.013 48975.415 -101937.024 49024.982 -102126.62 49043.928 -102199.088 49149.87 -102448.39 49258.147 -102625.808 49290.979 -102679.605 49290.986 -102679.615 49464.253 -102887.819 49464.259 -102887.824 49515.765 -102933.973 49665.998 -103068.582 49891.91 -103218.044 50137.176 -103333.02 50137.183 -103333.022 50137.185 -103333.023 50396.557 -103411.057 50396.564 -103411.058 50396.569 -103411.06 50664.561 -103450.5 50664.566 -103450.5 50867.636 -103450.5 50919.133 -103446.73 51070.156 -103435.677 51206.451 -103405.316 51334.546 -103376.782 51334.548 -103376.781 51334.553 -103376.78 51587.558 -103280.014 51823.777 -103147.441 52038.177 -102981.888 52226.186 -102786.881 52383.799 -102566.579 52479.85 -102379.759 52507.649 -102325.69 52507.651 -102325.684 52507.656 -102325.675 52595.118 -102069.305 52644.319 -101802.933 52654.212 -101532.235 52624.586 -101262.982 52556.072 -101000.912 52450.13 -100751.61 52309.018 -100520.39 52219.747 -100413.119 52135.746 -100312.18 52135.74 -100312.175 51934.002 -100131.418 51708.092 -99981.957 51708.09 -99981.956 51462.824 -99866.98 51462.819 -99866.978 51462.814 -99866.976 51203.442 -99788.942 51203.428 -99788.939 51087.791 -99771.921 50935.439 -99749.5 50732.369 -99749.5 50732.364 -99749.5 50529.844 -99764.323 50529.831 -99764.325 50265.453 -99823.217 50265.446 -99823.22 50012.439 -99919.987 49776.226 -100052.557 49561.822 -100218.112 49373.822 -100413.109 49373.816 -100413.116 49216.202 -100633.419 49216.199 -100633.424 49092.35 -100874.309 49092.343 -100874.327 49004.884 -101130.685 49004.881 -101130.699 48955.681 -101397.068 48955.68 -101397.075 48945.787 -101667.763 43182.815 -101667.763 43180.5 -101600 43180.5 -101599.5 43180.5 -85725.001 44825.655 -85725.001 44845.028 -86205.734 44903.021 -86683.355 44903.021 -86683.354 44972.989 -87026.077 44999.259 -87154.754 45133.116 -87616.884 45133.119 -87616.893 45303.73 -88066.756 45416.4 -88304.202 45509.98 -88501.417 45731.121 -88884.444 45750.548 -88918.091 45783.773 -88966.225 46023.853 -89314.042 46328.139 -89686.724 46328.142 -89686.727 46661.427 -90033.713 47021.553 -90352.757 47406.188 -90641.792 47812.83 -90898.937 47812.831 -90898.937 48238.853 -91122.53 48566.128 -91261.968 48681.468 -91311.11 48681.47 -91311.11 48681.478 -91311.114 48863.002 -91371.715 49137.833 -91463.467 49137.836 -91463.467 49137.836 -91463.468 49604.976 -91578.607 50079.87 -91655.785 50079.871 -91655.785 50559.435 -91694.5 50559.437 -91694.5 51040.565 -91694.5 51520.129 -91655.785 51520.13 -91655.785 51995.024 -91578.607 52462.164 -91463.468 52462.164 -91463.467 52462.167 -91463.467 52736.997 -91371.715 52918.522 -91311.114 52918.529 -91311.11 52918.532 -91311.11 53033.872 -91261.968 53361.147 -91122.53 53787.169 -90898.937 53787.168 -90898.937 53787.173 -90898.935 53887.255 -90835.646 53954.434 -90816.453 54021.328 -90836.628 54041.208 -90852.769 55489.193 -92300.754 55654.246 -92465.807 55684.381 -92486.908 55699.916 -92497.786 55704.208 -92501.079 55746.927 -92536.924 55795.236 -92564.815 55799.77 -92567.704 55845.452 -92599.691 55895.99 -92623.256 55900.766 -92625.743 55900.784 -92625.753 55949.063 -92653.628 55949.067 -92653.63 55949.074 -92653.634 56001.483 -92672.708 56006.463 -92674.772 56057 -92698.338 56057.001 -92698.338 56057.002 -92698.339 56110.855 -92712.768 56116.013 -92714.395 56159.354 -92730.169 56168.417 -92733.468 56223.341 -92743.151 56228.604 -92744.319 56236.48 -92746.429 56282.468 -92758.752 56338.047 -92763.613 56343.353 -92764.312 56398.29 -92774 56456.753 -92774 82840.077 -92774 82907.116 -92793.685 82952.871 -92846.489 82962.815 -92915.647 82933.79 -92979.203 82927.758 -92985.681 75819.902 -100093.535 75758.579 -100127.02 75688.887 -100122.036 75632.954 -100080.164 75613.117 -100040.353 75516.884 -99708.116 75346.275 -99258.256 75346.272 -99258.251 75346.27 -99258.244 75233.599 -99020.797 75140.02 -98823.583 74899.457 -98406.917 74899.454 -98406.913 74899.452 -98406.909 74811.359 -98279.285 74626.147 -98010.958 74321.861 -97638.276 73988.574 -97291.288 73628.447 -96972.243 73243.815 -96683.21 72837.173 -96426.065 72837.17 -96426.063 72837.169 -96426.063 72411.147 -96202.47 72083.872 -96063.031 71968.532 -96013.89 71968.529 -96013.889 71968.522 -96013.886 71786.997 -95953.284 71512.167 -95861.533 71512.164 -95861.532 71045.024 -95746.393 70570.13 -95669.215 70570.129 -95669.215 70090.565 -95630.5 70090.563 -95630.5 69609.437 -95630.5 69609.435 -95630.5 69129.871 -95669.215 69129.87 -95669.215 68654.976 -95746.393 68187.836 -95861.532 68187.833 -95861.533 67913.002 -95953.284 67731.478 -96013.886 67731.47 -96013.889 67731.468 -96013.89 67616.128 -96063.031 67288.853 -96202.47 66862.832 -96426.063 66862.831 -96426.063 66862.828 -96426.065 66456.185 -96683.21 66071.553 -96972.243 65711.426 -97291.288 65378.139 -97638.276 65073.853 -98010.958 64888.64 -98279.285 64800.548 -98406.909 64800.545 -98406.913 64800.543 -98406.917 64559.98 -98823.583 64466.4 -99020.797 64353.73 -99258.244 64353.727 -99258.251 64353.725 -99258.256 64183.116 -99708.116 64049.26 -100170.241 63953.021 -100641.645 63953.021 -100641.646 63953.021 -100641.648 63895.028 -101119.265 63875.655 -101600 63895.028 -102080.735 63909.398 -102199.082 63953.021 -102558.355 63953.021 -102558.354 64033.729 -102953.685 64049.259 -103029.754 64183.116 -103491.884 64340.418 -103906.657 64353.73 -103941.756 64362.521 -103960.282 64559.98 -104376.417 64741.83 -104691.39 64800.548 -104793.091 64856.94 -104874.788 65073.853 -105189.042 65378.139 -105561.724 65711.426 -105908.712 66071.553 -106227.757 66422.643 -106491.585 66456.188 -106516.792 66862.83 -106773.937 66862.831 -106773.937 67277.649 -106991.65 67288.853 -106997.53 67488.291 -107082.502 67731.468 -107186.11 67731.47 -107186.11 67731.478 -107186.114 67913.002 -107246.715 68187.833 -107338.467 68187.836 -107338.467 68187.836 -107338.468 68654.976 -107453.607 69129.87 -107530.785 69129.871 -107530.785 69609.435 -107569.5 69609.437 -107569.5 70090.565 -107569.5 70570.129 -107530.785 70570.13 -107530.785 71045.024 -107453.607 71512.164 -107338.468 71512.164 -107338.467 71512.167 -107338.467 71786.997 -107246.715 71968.522 -107186.114 71968.529 -107186.11 71968.532 -107186.11 72211.709 -107082.502 72411.147 -106997.53 72422.351 -106991.65 72837.169 -106773.937 72837.17 -106773.937 73243.812 -106516.792 73277.357 -106491.585 73628.447 -106227.757 73988.574 -105908.712 74321.861 -105561.724 74626.147 -105189.042 74843.06 -104874.788 74899.452 -104793.091 74958.17 -104691.39 75140.02 -104376.417 75337.479 -103960.282 75346.27 -103941.756 75359.582 -103906.657 75516.884 -103491.884 75650.741 -103029.754 75650.742 -103029.748 75651.094 -103028.323 75686.251 -102967.943 75748.471 -102936.155 75771.49 -102934 76316.707 -102934 76316.71 -102934 76371.645 -102924.313 76376.966 -102923.613 76432.532 -102918.752 76486.416 -102904.313 76491.653 -102903.152 76546.583 -102893.467 76567.018 -102886.029 76598.977 -102874.397 76604.134 -102872.771 76657.998 -102858.339 76708.536 -102834.771 76713.526 -102832.705 76765.927 -102813.634 76814.232 -102785.744 76819.006 -102783.258 76869.548 -102759.691 76915.226 -102727.706 76919.772 -102724.809 76968.074 -102696.923 77010.811 -102661.06 77015.068 -102657.795 77060.754 -102625.807 77225.807 -102460.754 87354.319 -92332.242 87415.642 -92298.757 87485.334 -92303.741 87541.267 -92345.613 87565.684 -92411.077 87566 -92419.923 87566 -95683.499 87546.315 -95750.538 87493.511 -95796.293 87471.675 -95803.896 87237.836 -95861.532 87237.833 -95861.533 86963.002 -95953.284 86781.478 -96013.886 86781.47 -96013.889 86781.468 -96013.89 86666.128 -96063.031 86338.853 -96202.47 85912.832 -96426.063 85912.831 -96426.063 85912.828 -96426.065 85506.185 -96683.21 85121.553 -96972.243 84761.426 -97291.288 84428.139 -97638.276 84123.853 -98010.958 83938.64 -98279.285 83850.548 -98406.909 83850.545 -98406.913 83850.543 -98406.917 83609.98 -98823.583 83516.4 -99020.797 83403.73 -99258.244 83403.727 -99258.251 83403.725 -99258.256 83233.116 -99708.116 83099.26 -100170.241 83003.021 -100641.645 83003.021 -100641.646 83003.021 -100641.648 82945.028 -101119.265 82925.655 -101600 82945.028 -102080.735 82959.398 -102199.082 83003.021 -102558.355 83003.021 -102558.354 83083.729 -102953.685 83099.259 -103029.754 83233.116 -103491.884 83390.418 -103906.657 83403.73 -103941.756 83412.521 -103960.282 83609.98 -104376.417 83791.83 -104691.39 83850.548 -104793.091 83906.94 -104874.788 84123.853 -105189.042 84428.139 -105561.724 84761.426 -105908.712 85121.553 -106227.757 85472.643 -106491.585 85506.188 -106516.792 85912.83 -106773.937 85912.831 -106773.937 86327.649 -106991.65 86338.853 -106997.53 86538.291 -107082.502 86781.468 -107186.11 86781.47 -107186.11 86781.478 -107186.114 86963.002 -107246.715 87237.833 -107338.467 87237.836 -107338.467 87237.836 -107338.468 87704.976 -107453.607 88179.87 -107530.785 88179.871 -107530.785 88659.435 -107569.5 88659.437 -107569.5 89140.565 -107569.5 89620.129 -107530.785 89620.13 -107530.785 90095.024 -107453.607 90562.164 -107338.468 90562.164 -107338.467 90562.167 -107338.467 90836.997 -107246.715 91018.522 -107186.114 91018.529 -107186.11 91018.532 -107186.11 91261.709 -107082.502 91461.147 -106997.53 91472.351 -106991.65 91887.169 -106773.937 91887.17 -106773.937 92293.812 -106516.792 92327.357 -106491.585 92678.447 -106227.757 93038.574 -105908.712 93371.861 -105561.724 93676.147 -105189.042 93893.06 -104874.788 93949.452 -104793.091 94008.17 -104691.39 94190.02 -104376.417 94387.479 -103960.282 94396.27 -103941.756 94409.582 -103906.657 94566.884 -103491.884 94700.741 -103029.754 94716.271 -102953.685 94796.979 -102558.354 94796.979 -102558.355 94840.602 -102199.082 94854.972 -102080.735 94874.345 -101600 94854.972 -101119.265 94796.979 -100641.648 94796.979 -100641.646 94796.978 -100641.645 94700.74 -100170.241 94566.884 -99708.116 94396.275 -99258.256 94396.272 -99258.251 94396.27 -99258.244 94283.599 -99020.797 94190.02 -98823.583 93949.457 -98406.917 93949.454 -98406.913 93949.452 -98406.909 93861.359 -98279.285 93676.147 -98010.958 93371.861 -97638.276 93038.574 -97291.288 92678.447 -96972.243 92293.815 -96683.21 91887.173 -96426.065 91887.17 -96426.063 91887.169 -96426.063 91461.147 -96202.47 91133.872 -96063.031 91018.532 -96013.89 91018.529 -96013.889 91018.522 -96013.886 90836.997 -95953.284 90562.167 -95861.533 90562.164 -95861.532 90328.325 -95803.896 90267.944 -95768.739 90236.156 -95706.52 90234 -95683.499 90234 -92419.923 90253.685 -92352.884 90306.489 -92307.129 90375.647 -92297.185 90439.203 -92326.21 90445.681 -92332.242 100574.193 -102460.754 100739.246 -102625.807 100784.936 -102657.799 100789.199 -102661.07 100820.674 -102687.481 100831.922 -102696.92 100831.929 -102696.925 100880.211 -102724.801 100884.775 -102727.708 100930.447 -102759.688 100930.449 -102759.689 100930.452 -102759.691 100980.979 -102783.252 100985.772 -102785.748 101016.186 -102803.306 101034.073 -102813.634 101064.695 -102824.779 101086.472 -102832.705 101091.473 -102834.777 101114.362 -102845.45 101142.002 -102858.339 101142.006 -102858.34 101142.004 -102858.34 101188.965 -102870.922 101195.857 -102872.769 101195.865 -102872.771 101201.027 -102874.399 101220.988 -102881.663 101253.417 -102893.467 101308.342 -102903.151 101313.59 -102904.315 101367.468 -102918.752 101417.666 -102923.143 101423.017 -102923.612 101428.376 -102924.317 101483.29 -102934 101541.753 -102934 102028.51 -102934 102095.549 -102953.685 102141.304 -103006.489 102148.906 -103028.323 102149.257 -103029.748 102149.259 -103029.754 102283.116 -103491.884 102440.418 -103906.657 102453.73 -103941.756 102462.521 -103960.282 102659.98 -104376.417 102841.83 -104691.39 102900.548 -104793.091 102956.94 -104874.788 103173.853 -105189.042 103478.139 -105561.724 103811.426 -105908.712 104171.553 -106227.757 104522.643 -106491.585 104556.188 -106516.792 104962.83 -106773.937 104962.831 -106773.937 105377.649 -106991.65 105388.853 -106997.53 105588.291 -107082.502 105831.468 -107186.11 105831.47 -107186.11 105831.478 -107186.114 106013.002 -107246.715 106287.833 -107338.467 106287.836 -107338.467 106287.836 -107338.468 106754.976 -107453.607 107229.87 -107530.785 107229.871 -107530.785 107709.435 -107569.5 107709.437 -107569.5 108190.565 -107569.5 108670.129 -107530.785 108670.13 -107530.785 109145.024 -107453.607 109612.164 -107338.468 109612.164 -107338.467 109612.167 -107338.467 109886.997 -107246.715 110068.522 -107186.114 110068.529 -107186.11 110068.532 -107186.11 110311.709 -107082.502 110511.147 -106997.53 110522.351 -106991.65 110937.169 -106773.937 110937.17 -106773.937 111343.812 -106516.792 111377.357 -106491.585 111728.447 -106227.757 112088.574 -105908.712 112421.861 -105561.724 112726.147 -105189.042 112943.06 -104874.788 112999.452 -104793.091 113058.17 -104691.39 113240.02 -104376.417 113437.479 -103960.282 113446.27 -103941.756 113459.582 -103906.657 113616.884 -103491.884 113750.741 -103029.754 113766.271 -102953.685 113846.979 -102558.354 113846.979 -102558.355 113890.602 -102199.082 113904.972 -102080.735 113921.614 -101667.763 125145.787 -101667.763 125175.413 -101937.013 125175.415 -101937.024 125224.982 -102126.62 125243.928 -102199.088 125349.87 -102448.39 125458.147 -102625.808 125490.979 -102679.605 125490.986 -102679.615 125664.253 -102887.819 125664.259 -102887.824 125715.765 -102933.973 125865.998 -103068.582 126091.91 -103218.044 126337.176 -103333.02 126337.183 -103333.022 126337.185 -103333.023 126596.557 -103411.057 126596.564 -103411.058 126596.569 -103411.06 126864.561 -103450.5 126864.566 -103450.5 127067.636 -103450.5 127119.133 -103446.73 127270.156 -103435.677 127406.451 -103405.316 127534.546 -103376.782 127534.548 -103376.781 127534.553 -103376.78 127787.558 -103280.014 128023.777 -103147.441 128238.177 -102981.888 128426.186 -102786.881 128583.799 -102566.579 128679.85 -102379.759 128707.649 -102325.69 128707.651 -102325.684 128707.656 -102325.675 128795.118 -102069.305 128844.319 -101802.933 128854.212 -101532.235 128824.586 -101262.982 128756.072 -101000.912 128650.13 -100751.61 128509.018 -100520.39 128419.747 -100413.119 128335.746 -100312.18 128335.74 -100312.175 128134.002 -100131.418 127908.092 -99981.957 127908.09 -99981.956 127662.824 -99866.98 127662.819 -99866.978 127662.814 -99866.976 127403.442 -99788.942 127403.428 -99788.939 127287.791 -99771.921 127135.439 -99749.5 126932.369 -99749.5 126932.364 -99749.5 126729.844 -99764.323 126729.831 -99764.325 126465.453 -99823.217 126465.446 -99823.22 126212.439 -99919.987 125976.226 -100052.557 125761.822 -100218.112 125573.822 -100413.109 125573.816 -100413.116 125416.202 -100633.419 125416.199 -100633.424 125292.35 -100874.309 125292.343 -100874.327 125204.884 -101130.685 125204.881 -101130.699 125155.681 -101397.068 125155.68 -101397.075 125145.787 -101667.763 113921.614 -101667.763 113924.345 -101600 113904.972 -101119.265 113846.979 -100641.648 113846.979 -100641.646 113846.978 -100641.645 113750.74 -100170.241 113616.884 -99708.116 113446.275 -99258.256 113446.272 -99258.251 113446.27 -99258.244 113333.599 -99020.797 113240.02 -98823.583 112999.457 -98406.917 112999.454 -98406.913 112999.452 -98406.909 112911.359 -98279.285 112726.147 -98010.958 112421.861 -97638.276 112088.574 -97291.288 111728.447 -96972.243 111343.815 -96683.21 110937.173 -96426.065 110937.17 -96426.063 110937.169 -96426.063 110511.147 -96202.47 110183.872 -96063.031 110068.532 -96013.89 110068.529 -96013.889 110068.522 -96013.886 109886.997 -95953.284 109612.167 -95861.533 109612.164 -95861.532 109145.024 -95746.393 108670.13 -95669.215 108670.129 -95669.215 108190.565 -95630.5 108190.563 -95630.5 107709.437 -95630.5 107709.435 -95630.5 107229.871 -95669.215 107229.87 -95669.215 106754.976 -95746.393 106287.836 -95861.532 106287.833 -95861.533 106013.002 -95953.284 105831.478 -96013.886 105831.47 -96013.889 105831.468 -96013.89 105716.128 -96063.031 105388.853 -96202.47 104962.832 -96426.063 104962.831 -96426.063 104962.828 -96426.065 104556.185 -96683.21 104171.553 -96972.243 103811.426 -97291.288 103478.139 -97638.276 103173.853 -98010.958 102988.64 -98279.285 102900.548 -98406.909 102900.545 -98406.913 102900.543 -98406.917 102659.98 -98823.583 102566.4 -99020.797 102453.73 -99258.244 102453.727 -99258.251 102453.725 -99258.256 102283.116 -99708.116 102259.705 -99788.94 102186.882 -100040.354 102149.323 -100099.27 102085.874 -100128.527 102016.68 -100118.837 101980.097 -100093.536 94872.242 -92985.681 94838.757 -92924.358 94843.741 -92854.666 94885.613 -92798.733 94951.077 -92774.316 94959.923 -92774 121401.707 -92774 121401.71 -92774 121456.645 -92764.313 121461.966 -92763.613 121517.532 -92758.752 121571.416 -92744.313 121576.653 -92743.152 121631.583 -92733.467 121683.977 -92714.397 121689.13 -92712.772 121742.998 -92698.339 121793.536 -92674.771 121798.526 -92672.705 121798.54 -92672.7 121850.927 -92653.634 121899.232 -92625.744 121904.006 -92623.258 121954.548 -92599.691 122000.226 -92567.706 122004.772 -92564.809 122053.074 -92536.923 122095.811 -92501.06 122100.068 -92497.795 122145.754 -92465.807 122310.807 -92300.754 123758.792 -90852.767 123820.113 -90819.284 123889.804 -90824.268 123912.741 -90835.644 123939.822 -90852.769 124012.83 -90898.937 124012.831 -90898.937 124438.853 -91122.53 124766.128 -91261.968 124881.468 -91311.11 124881.47 -91311.11 124881.478 -91311.114 125063.002 -91371.715 125337.833 -91463.467 125337.836 -91463.467 125337.836 -91463.468 125804.976 -91578.607 126279.87 -91655.785 126279.871 -91655.785 126759.435 -91694.5 126759.437 -91694.5 127240.565 -91694.5 127720.129 -91655.785 127720.13 -91655.785 128195.024 -91578.607 128662.164 -91463.468 128662.164 -91463.467 128662.167 -91463.467 128936.997 -91371.715 129118.522 -91311.114 129118.529 -91311.11 129118.532 -91311.11 129233.872 -91261.968 129561.147 -91122.53 129987.169 -90898.937 129987.17 -90898.937 130393.812 -90641.792 130778.447 -90352.757 131138.573 -90033.713 131471.858 -89686.727 131471.857 -89686.727 131471.861 -89686.724 131776.147 -89314.042 132016.227 -88966.225 132049.452 -88918.091 132068.879 -88884.444 132290.02 -88501.417 132383.599 -88304.202 132496.27 -88066.756 132666.881 -87616.893 132666.884 -87616.884 132800.741 -87154.754 132827.011 -87026.077 132896.979 -86683.354 132896.979 -86683.355 132954.972 -86205.734 132974.345 -85725.001 132974.345 -85724.999 132954.972 -85244.266 132896.979 -84766.645 132896.979 -84766.646 132800.74 -84295.241 132666.884 -83833.116 132496.275 -83383.256 132496.272 -83383.251 132496.27 -83383.244 132371.387 -83120.061 132290.02 -82948.583 132049.457 -82531.917 132049.454 -82531.913 132049.452 -82531.909 131959.224 -82401.191 131776.147 -82135.958 131766.891 -82124.622 131582.723 -81899.057 131471.861 -81763.276 131138.574 -81416.288 131054.695 -81341.978 130778.447 -81097.243 130393.812 -80808.208 129987.17 -80551.063 129987.169 -80551.063 129561.147 -80327.47 129233.872 -80188.031 129118.532 -80138.89 129118.529 -80138.889 129118.522 -80138.886 128936.997 -80078.284 128662.167 -79986.533 128662.164 -79986.532 128195.024 -79871.393 127720.13 -79794.215 127720.129 -79794.215 127240.565 -79755.5 127240.563 -79755.5 126759.437 -79755.5 126759.435 -79755.5 126279.871 -79794.215 126279.87 -79794.215 125804.976 -79871.393 125337.836 -79986.532 125337.833 -79986.533 125063.002 -80078.284 124881.478 -80138.886 124881.47 -80138.889 124881.468 -80138.89 124766.128 -80188.031 124438.853 -80327.47 124012.832 -80551.063 124012.831 -80551.063 123606.188 -80808.208 123221.553 -81097.243 122945.305 -81341.978 122861.426 -81416.288 122528.139 -81763.276 122417.277 -81899.057 122233.109 -82124.622 122223.853 -82135.958 122040.776 -82401.191 121950.548 -82531.909 121950.545 -82531.913 121950.543 -82531.917 121709.98 -82948.583 121628.613 -83120.061 121503.73 -83383.244 121503.727 -83383.251 121503.725 -83383.256 121333.116 -83833.116 121199.26 -84295.241 121103.021 -84766.646 121103.021 -84766.645 121045.028 -85244.266 121025.655 -85724.999 121025.655 -85725.001 121045.028 -86205.734 121103.021 -86683.355 121103.021 -86683.354 121172.989 -87026.077 121199.259 -87154.754 121333.116 -87616.884 121333.119 -87616.893 121503.73 -88066.756 121616.4 -88304.202 121709.98 -88501.417 121709.982 -88501.42 121891.918 -88816.544 121908.391 -88884.444 121885.538 -88950.471 121872.212 -88966.225 120768.758 -90069.681 120707.435 -90103.166 120681.077 -90106 105754.924 -90106 105687.885 -90086.315 105642.13 -90033.511 105632.186 -89964.353 105661.211 -89900.797 105667.242 -89894.319 105800.807 -89760.754 110269.808 -85291.753 123758.792 -71802.767 123820.113 -71769.284 123889.805 -71774.268 123912.741 -71785.644 123939.822 -71802.769 124012.83 -71848.937 124012.831 -71848.937 124438.853 -72072.53 124766.128 -72211.968 124881.468 -72261.11 124881.47 -72261.11 124881.478 -72261.114 125063.002 -72321.715 125337.833 -72413.467 125337.836 -72413.467 125337.836 -72413.468 125804.976 -72528.607 126279.87 -72605.785 126279.871 -72605.785 126759.435 -72644.5 126759.437 -72644.5 127240.565 -72644.5 127720.129 -72605.785 127720.13 -72605.785 128195.024 -72528.607 128662.164 -72413.468 128662.164 -72413.467 128662.167 -72413.467 128936.997 -72321.715 129118.522 -72261.114 129118.529 -72261.11 129118.532 -72261.11 129233.872 -72211.968 129561.147 -72072.53 129987.169 -71848.937 129987.17 -71848.937 130393.812 -71591.792 130778.447 -71302.757 131138.573 -70983.713 131471.858 -70636.727 131471.857 -70636.727 131471.861 -70636.724 131776.147 -70264.042 132016.227 -69916.225 132049.452 -69868.091 132068.879 -69834.444 132290.02 -69451.417 132383.599 -69254.202 132496.27 -69016.756 132666.881 -68566.893 132666.884 -68566.884 132800.741 -68104.754 132896.979 -67633.354 132896.979 -67633.355 132954.972 -67155.734 132974.345 -66675.001 132974.345 -66674.999 132954.972 -66194.266 132949.918 -66152.646 132932.621 -66010.187 132896.979 -65716.645 132896.979 -65716.646 132800.74 -65245.241 132666.884 -64783.116 132496.275 -64333.256 132496.272 -64333.251 132496.27 -64333.244 132383.599 -64095.797 132290.02 -63898.583 132049.457 -63481.917 132049.454 -63481.913 132049.452 -63481.909 131961.359 -63354.285 131776.147 -63085.958 131471.861 -62713.276 131138.574 -62366.288 130778.447 -62047.243 130393.815 -61758.21 129987.173 -61501.065 129987.17 -61501.063 129987.169 -61501.063 129561.147 -61277.47 129233.872 -61138.031 129118.532 -61088.89 129118.529 -61088.889 129118.522 -61088.886 128936.997 -61028.284 128662.167 -60936.533 128662.164 -60936.532 128195.024 -60821.393 127720.13 -60744.215 127720.129 -60744.215 127240.565 -60705.5 127240.563 -60705.5 126759.437 -60705.5 126759.435 -60705.5 126279.871 -60744.215 126279.87 -60744.215 125804.976 -60821.393 125337.836 -60936.532 125337.833 -60936.533 125063.002 -61028.284 124881.478 -61088.886 124881.47 -61088.889 124881.468 -61088.89 124766.128 -61138.031 124438.853 -61277.47 124012.832 -61501.063 124012.831 -61501.063 124012.828 -61501.065 123606.185 -61758.21 123221.553 -62047.243 122861.426 -62366.288 122528.139 -62713.276 122223.853 -63085.958 122038.64 -63354.285 121950.548 -63481.909 121950.545 -63481.913 121950.543 -63481.917 121709.98 -63898.583 121616.4 -64095.797 121503.73 -64333.244 121503.727 -64333.251 121503.725 -64333.256 121333.116 -64783.116 121199.26 -65245.241 121103.021 -65716.646 121103.021 -65716.645 121067.379 -66010.187 121050.082 -66152.646 121045.028 -66194.266 121025.655 -66674.999 121025.655 -66675.001 121045.028 -67155.734 121103.021 -67633.355 121103.021 -67633.354 121199.259 -68104.754 121333.116 -68566.884 121333.119 -68566.893 121503.73 -69016.756 121616.4 -69254.202 121709.98 -69451.417 121709.982 -69451.42 121891.918 -69766.544 121908.391 -69834.444 121885.538 -69900.471 121872.212 -69916.225 104258.758 -87529.681 104197.435 -87563.166 104171.077 -87566 94583.923 -87566 94516.884 -87546.315 94496.242 -87529.681 94080.319 -87113.758 94046.834 -87052.435 94044 -87026.077 94044 -85291.753 94028.752 -85117.472 94028.752 -85117.468 94003.724 -85024.062 93999.499 -84991.969 93999.499 -83166.809 93996.716 -83120.075 93996.716 -83120.067 93952.488 -82916.753 93870.581 -82725.483 93753.957 -82553.171 93606.829 -82406.043 93606.827 -82406.042 93606.822 -82406.037 93599.661 -82401.191 93555.175 -82347.313 93546.88 -82277.938 93577.408 -82215.091 93637.069 -82178.725 93669.163 -82174.5 100206.001 -82174.5 100206.01 -82174.499 100210.266 -82174.49 100210.283 -82174.488 100210.285 -82174.488 100388.005 -82154.951 100396.147 -82154.056 100447.658 -82142.85 100517.681 -82124.622 100629.808 -82077.236 100689.928 -82051.83 100689.93 -82051.829 100689.93 -82051.828 100689.932 -82051.828 100843.284 -81944.812 100896.088 -81899.057 100991.874 -81802.355 101097.427 -81647.992 101168.579 -81475.056 101188.264 -81408.017 101204.953 -81341.977 101224.5 -81156 101224.5 -66799 101224.49 -66794.734 101211.327 -66674.999 101204.058 -66608.871 101204.055 -66608.849 101192.85 -66557.342 101174.621 -66487.317 101101.83 -66315.071 101101.829 -66315.069 100994.812 -66161.716 100949.054 -66108.909 100852.353 -66013.124 100697.989 -65907.571 100525.062 -65836.423 100525.058 -65836.421 100525.056 -65836.421 100458.017 -65816.736 100436.315 -65811.251 100391.983 -65800.048 100391.978 -65800.047 100354.781 -65796.137 100206 -65780.5 77594 -65780.5 77593.999 -65780.5 77589.734 -65780.51 77589.714 -65780.511 77403.871 -65800.941 77403.849 -65800.944 77352.342 -65812.15 77282.317 -65830.378 77110.071 -65903.169 77110.069 -65903.17 76956.716 -66010.187 76903.909 -66055.946 76808.124 -66152.646 76702.571 -66307.01 76631.423 -66479.937 76611.736 -66546.984 76595.048 -66613.016 76595.047 -66613.021 76575.5 -66798.999 76575.5 -81156.001 76575.51 -81160.265 76575.511 -81160.285 76595.941 -81346.128 76595.944 -81346.15 76607.15 -81397.658 76625.378 -81467.682 76698.169 -81639.928 76698.17 -81639.93 76805.187 -81793.283 76850.946 -81846.091 76947.646 -81941.875 77019.027 -81990.685 77102.008 -82047.427 77102.009 -82047.427 77102.01 -82047.428 77205.114 -82089.848 77274.944 -82118.579 77341.983 -82138.264 77408.023 -82154.953 77594 -82174.5 84130.837 -82174.5 84197.876 -82194.185 84243.631 -82246.989 84253.575 -82316.147 84224.55 -82379.703 84200.339 -82401.191 84193.177 -82406.037 84193.168 -82406.045 84046.045 -82553.168 84046.041 -82553.173 83929.416 -82725.487 83847.512 -82916.751 83847.509 -82916.762 83803.284 -83120.061 83800.5 -83166.808 83800.5 -84991.97 83796.275 -85024.062 83771.25 -85117.46 83771.247 -85117.473 83756 -85291.753 83756 -87046.077 83736.315 -87113.116 83719.681 -87133.758 83323.758 -87529.681 83262.435 -87563.166 83236.077 -87566 73628.923 -87566 73561.884 -87546.315 73541.242 -87529.681 55927.786 -69916.225 55894.301 -69854.902 55899.285 -69785.21 55908.08 -69766.544 56090.018 -69451.42 56090.02 -69451.417 56183.599 -69254.202 56296.27 -69016.756 56466.881 -68566.893 56466.884 -68566.884 56600.741 -68104.754 56696.979 -67633.354 56696.979 -67633.355 56754.972 -67155.734 56774.345 -66675.001 56774.345 -66674.999 56754.972 -66194.266 56749.918 -66152.646 56732.621 -66010.187 56696.979 -65716.645 56696.979 -65716.646 56600.74 -65245.241 56466.884 -64783.116 56296.275 -64333.256 56296.272 -64333.251 56296.27 -64333.244 56183.599 -64095.797 56090.02 -63898.583 55849.457 -63481.917 55849.454 -63481.913 55849.452 -63481.909 55761.359 -63354.285 55576.147 -63085.958 55271.861 -62713.276 54938.574 -62366.288 54578.447 -62047.243 54193.815 -61758.21 53787.173 -61501.065 53787.17 -61501.063 53787.169 -61501.063 53361.147 -61277.47 53033.872 -61138.031 52918.532 -61088.89 52918.529 -61088.889 52918.522 -61088.886 52736.997 -61028.284 52462.167 -60936.533 52462.164 -60936.532 51995.024 -60821.393 51520.13 -60744.215 51520.129 -60744.215 51040.565 -60705.5 51040.563 -60705.5 50559.437 -60705.5 50559.435 -60705.5 50079.871 -60744.215 50079.87 -60744.215 49604.976 -60821.393 49137.836 -60936.532 49137.833 -60936.533 48863.002 -61028.284 48681.478 -61088.886 48681.47 -61088.889 48681.468 -61088.89 48566.128 -61138.031 48238.853 -61277.47 47812.832 -61501.063 47812.831 -61501.063 47812.828 -61501.065 47406.185 -61758.21 47021.553 -62047.243 46661.426 -62366.288 46328.139 -62713.276 46023.853 -63085.958 45838.64 -63354.285 45750.548 -63481.909 45750.545 -63481.913 45750.543 -63481.917 45509.98 -63898.583 45416.4 -64095.797 45303.73 -64333.244 45303.727 -64333.251 45303.725 -64333.256 45133.116 -64783.116 44999.26 -65245.241 44903.021 -65716.646 44903.021 -65716.645 44867.379 -66010.187 44850.082 -66152.646 44845.028 -66194.266 44825.655 -66674.999 44825.655 -66675.001 44845.028 -67155.734 44903.021 -67633.355 44903.021 -67633.354 44999.259 -68104.754 45133.116 -68566.884 45133.119 -68566.893 45303.73 -69016.756 45416.4 -69254.202 45509.98 -69451.417 45731.121 -69834.444 45750.548 -69868.091 45783.773 -69916.225 46023.853 -70264.042 46328.139 -70636.724 46328.142 -70636.727 46661.427 -70983.713 47021.553 -71302.757 47406.188 -71591.792 47812.83 -71848.937 47812.831 -71848.937 48238.853 -72072.53 48566.128 -72211.968 48681.468 -72261.11 48681.47 -72261.11 48681.478 -72261.114 48863.002 -72321.715 49137.833 -72413.467 49137.836 -72413.467 49137.836 -72413.468 49604.976 -72528.607 50079.87 -72605.785 50079.871 -72605.785 50559.435 -72644.5 50559.437 -72644.5 51040.565 -72644.5 51520.129 -72605.785 51520.13 -72605.785 51995.024 -72528.607 52462.164 -72413.468 52462.164 -72413.467 52462.167 -72413.467 52736.997 -72321.715 52918.522 -72261.114 52918.529 -72261.11 52918.532 -72261.11 53033.872 -72211.968 53361.147 -72072.53 53787.169 -71848.937 53787.168 -71848.937 53787.173 -71848.935 53887.255 -71785.646 53954.434 -71766.453 54021.328 -71786.628 54041.208 -71802.769 72132.758 -89894.319 72166.242 -89955.642 72161.258 -90025.334 72119.386 -90081.267 72053.922 -90105.684 72045.076 -90106 57118.923 -90106 57051.884 -90086.315 57031.242 -90069.681 55927.786 -88966.225 55894.301 -88904.902 55899.285 -88835.21 55908.08 -88816.544 56090.018 -88501.42 56090.02 -88501.417 56183.599 -88304.202 56296.27 -88066.756 56466.881 -87616.893 56466.884 -87616.884 56600.741 -87154.754 56627.011 -87026.077 56696.979 -86683.354 56696.979 -86683.355 56754.972 -86205.734 56774.345 -85725.001 56774.345 -85724.999 56754.972 -85244.266 56696.979 -84766.645 56696.979 -84766.646 56600.74 -84295.241 56466.884 -83833.116 56296.275 -83383.256 56296.272 -83383.251 56296.27 -83383.244 56171.387 -83120.061 56090.02 -82948.583 55849.457 -82531.917 55849.454 -82531.913 55849.452 -82531.909 55759.224 -82401.191 55576.147 -82135.958 55566.891 -82124.622 55382.723 -81899.057 55271.861 -81763.276 54938.574 -81416.288 54854.695 -81341.978 54578.447 -81097.243 54193.812 -80808.208 53787.17 -80551.063 53787.169 -80551.063 53361.147 -80327.47 53033.872 -80188.031 52918.532 -80138.89 52918.529 -80138.889 52918.522 -80138.886 52736.997 -80078.284 52462.167 -79986.533 52462.164 -79986.532 51995.024 -79871.393 51520.13 -79794.215 51520.129 -79794.215 51040.565 -79755.5 51040.563 -79755.5 50559.437 -79755.5 50559.435 -79755.5 50079.871 -79794.215 50079.87 -79794.215 49604.976 -79871.393 49137.836 -79986.532 49137.833 -79986.533 48863.002 -80078.284 48681.478 -80138.886 48681.47 -80138.889 48681.468 -80138.89 48566.128 -80188.031 48238.853 -80327.47 47812.832 -80551.063 47812.831 -80551.063 47406.188 -80808.208 47021.553 -81097.243 46745.305 -81341.978 46661.426 -81416.288 46328.139 -81763.276 46217.277 -81899.057 46033.109 -82124.622 46023.853 -82135.958 45840.776 -82401.191 45750.548 -82531.909 45750.545 -82531.913 45750.543 -82531.917 45509.98 -82948.583 45428.613 -83120.061 45303.73 -83383.244 45303.727 -83383.251 45303.725 -83383.256 45133.116 -83833.116 44999.26 -84295.241 44903.021 -84766.646 44903.021 -84766.645 44845.028 -85244.266 44825.655 -85724.999 44825.655 -85725.001 43180.5 -85725.001 43180.5 -50867.763 48945.787 -50867.763 48975.413 -51137.013 48975.415 -51137.024 49043.926 -51399.082 49043.928 -51399.088 49149.87 -51648.39 49216.932 -51758.275 49290.979 -51879.605 49290.986 -51879.615 49464.253 -52087.819 49464.259 -52087.824 49665.998 -52268.582 49891.91 -52418.044 50137.176 -52533.02 50137.183 -52533.022 50137.185 -52533.023 50396.557 -52611.057 50396.564 -52611.058 50396.569 -52611.06 50664.561 -52650.5 50664.566 -52650.5 50867.636 -52650.5 50919.133 -52646.73 51070.156 -52635.677 51182.758 -52610.593 51334.546 -52576.782 51334.548 -52576.781 51334.553 -52576.78 51587.558 -52480.014 51823.777 -52347.441 52038.177 -52181.888 52226.186 -51986.881 52383.799 -51766.579 52457.787 -51622.669 52507.649 -51525.69 52507.651 -51525.684 52507.656 -51525.675 52595.118 -51269.305 52644.319 -51002.933 52651.735 -50800 63876.155 -50800 63895.526 -51280.694 63953.515 -51758.275 63953.515 -51758.274 64049.745 -52229.64 64183.593 -52691.735 64354.186 -53141.55 64560.425 -53576.187 64800.97 -53992.824 64800.97 -53992.823 65074.256 -54388.746 65378.509 -54761.388 65378.51 -54761.389 65455.207 -54841.238 67521.458 -52774.987 67541.199 -52800.588 67784.298 -53050.731 67877.01 -53126.541 65809.034 -55194.517 66071.877 -55427.376 66456.478 -55716.384 66863.08 -55973.504 66863.081 -55973.504 67289.063 -56197.076 67731.655 -56385.646 68187.974 -56537.986 68187.975 -56537.987 68655.089 -56653.119 69129.931 -56730.289 69129.932 -56730.289 69609.457 -56769 70090.543 -56769 70570.068 -56730.289 70570.069 -56730.289 71044.911 -56653.119 71512.025 -56537.987 71512.026 -56537.986 71968.345 -56385.646 72410.937 -56197.076 72836.919 -55973.504 72836.92 -55973.504 73243.522 -55716.384 73628.123 -55427.376 73890.965 -55194.518 71824.302 -53127.855 72040.825 -52929.132 72176.317 -52772.764 74244.791 -54841.238 74244.792 -54841.238 74321.484 -54761.395 74625.744 -54388.745 74625.744 -54388.746 74899.03 -53992.823 74899.03 -53992.824 75139.575 -53576.187 75345.814 -53141.55 75516.407 -52691.735 75650.255 -52229.64 75746.485 -51758.274 75746.485 -51758.275 75804.474 -51280.694 75821.114 -50867.763 125145.787 -50867.763 125175.413 -51137.013 125175.415 -51137.024 125243.926 -51399.082 125243.928 -51399.088 125349.87 -51648.39 125416.932 -51758.275 125490.979 -51879.605 125490.986 -51879.615 125664.253 -52087.819 125664.259 -52087.824 125865.998 -52268.582 126091.91 -52418.044 126337.176 -52533.02 126337.183 -52533.022 126337.185 -52533.023 126596.557 -52611.057 126596.564 -52611.058 126596.569 -52611.06 126864.561 -52650.5 126864.566 -52650.5 127067.636 -52650.5 127119.133 -52646.73 127270.156 -52635.677 127382.758 -52610.593 127534.546 -52576.782 127534.548 -52576.781 127534.553 -52576.78 127787.558 -52480.014 128023.777 -52347.441 128238.177 -52181.888 128426.186 -51986.881 128583.799 -51766.579 128657.787 -51622.669 128707.649 -51525.69 128707.651 -51525.684 128707.656 -51525.675 128795.118 -51269.305 128844.319 -51002.933 128854.212 -50732.235 128824.586 -50462.982 128756.072 -50200.912 128650.13 -49951.61 128509.018 -49720.39 128419.747 -49613.119 128335.746 -49512.18 128335.74 -49512.175 128134.002 -49331.418 127908.092 -49181.957 127908.09 -49181.956 127662.824 -49066.98 127662.819 -49066.978 127662.814 -49066.976 127403.442 -48988.942 127403.428 -48988.939 127287.791 -48971.921 127135.439 -48949.5 126932.369 -48949.5 126932.364 -48949.5 126729.844 -48964.323 126729.831 -48964.325 126465.453 -49023.217 126465.446 -49023.22 126212.439 -49119.987 125976.226 -49252.557 125761.822 -49418.112 125573.822 -49613.109 125573.816 -49613.116 125416.202 -49833.419 125416.199 -49833.424 125292.35 -50074.309 125292.343 -50074.327 125204.884 -50330.685 125204.881 -50330.699 125155.681 -50597.068 125155.68 -50597.075 125145.787 -50867.763 75821.114 -50867.763 75823.845 -50800 75804.474 -50319.306 75746.485 -49841.725 75746.485 -49841.726 75650.255 -49370.36 75516.407 -48908.265 75345.814 -48458.45 75139.575 -48023.813 74899.03 -47607.176 74899.03 -47607.177 74625.744 -47211.254 74321.491 -46838.612 74321.49 -46838.611 74244.791 -46758.76 72178.54 -48825.01 72158.801 -48799.412 71915.702 -48549.269 71822.988 -48473.457 73890.965 -46405.481 73628.123 -46172.624 73243.522 -45883.616 72836.92 -45626.496 72836.919 -45626.496 72410.937 -45402.924 71968.345 -45214.354 71512.026 -45062.014 71512.025 -45062.013 71044.911 -44946.881 70570.069 -44869.711 70570.068 -44869.711 70090.543 -44831 69609.457 -44831 69129.932 -44869.711 69129.931 -44869.711 68655.089 -44946.881 68187.975 -45062.013 68187.974 -45062.014 67731.655 -45214.354 67289.063 -45402.924 66863.082 -45626.496 66863.081 -45626.496 66456.478 -45883.616 66071.869 -46172.629 65809.034 -46405.48 65809.033 -46405.48 67875.697 -48472.144 67659.175 -48670.868 67523.682 -48827.235 65455.207 -46758.76 65455.206 -46758.76 65378.51 -46838.611 65074.256 -47211.254 64800.97 -47607.177 64800.97 -47607.176 64560.425 -48023.813 64354.186 -48458.45 64183.593 -48908.265 64049.745 -49370.36 63953.515 -49841.726 63953.515 -49841.725 63895.526 -50319.306 63876.155 -50800 52651.735 -50800 52654.212 -50732.235 52624.586 -50462.982 52556.072 -50200.912 52450.13 -49951.61 52309.018 -49720.39 52219.747 -49613.119 52135.746 -49512.18 52135.74 -49512.175 51934.002 -49331.418 51708.092 -49181.957 51708.09 -49181.956 51462.824 -49066.98 51462.819 -49066.978 51462.814 -49066.976 51203.442 -48988.942 51203.428 -48988.939 51087.791 -48971.921 50935.439 -48949.5 50732.369 -48949.5 50732.364 -48949.5 50529.844 -48964.323 50529.831 -48964.325 50265.453 -49023.217 50265.446 -49023.22 50012.439 -49119.987 49776.226 -49252.557 49561.822 -49418.112 49373.822 -49613.109 49373.816 -49613.116 49216.202 -49833.419 49216.199 -49833.424 49092.35 -50074.309 49092.343 -50074.327 49004.884 -50330.685 49004.881 -50330.699 48955.681 -50597.068 48955.68 -50597.075 48945.787 -50867.763 43180.5 -50867.763 43180.5 -50800 43191.498 -50478.044 43198.662 -50277.475 43198.941 -50273.423 43228.583 -49985.081 43254.047 -49748.242 43254.588 -49744.38 43258.724 -49720.394 43302.6 -49465.918 43346.212 -49224.199 43346.96 -49220.667 43413.151 -48949.05 43474.694 -48707.93 43475.641 -48704.617 43559.725 -48439.689 43638.874 -48201.885 43639.999 -48198.793 43695.338 -48058.464 43741.592 -47941.168 43837.939 -47708.568 43839.188 -47705.759 43957.879 -47456.187 44070.907 -47230.387 44072.272 -47227.815 44207.53 -46987.259 44336.662 -46769.619 44338.101 -46767.313 44489.345 -46536.724 44634.588 -46327.534 44801.919 -46106.875 44961.84 -45908.424 45143.758 -45699.792 45317.483 -45513.197 45513.197 -45317.483 45699.784 -45143.765 45908.424 -44961.84 46106.875 -44801.919 46327.534 -44634.588 46536.724 -44489.345 46767.313 -44338.101 46769.619 -44336.662 46987.232 -44207.545 47227.815 -44072.272 47230.387 -44070.907 47456.167 -43957.889 47705.759 -43839.188 47708.568 -43837.939 47941.162 -43741.595 48198.808 -43639.993 48201.885 -43638.874 48439.689 -43559.725 48704.617 -43475.641 48707.93 -43474.694 48949.035 -43413.155 49220.667 -43346.96 49224.199 -43346.212 49465.918 -43302.6 49744.393 -43254.586 49748.242 -43254.047 49985.08 -43228.584 50273.423 -43198.941 50277.475 -43198.662 50477.678 -43191.51 50800 -43180.5 50800.5 -43180.5 126999.5 -43180.5 127000 -43180.5 127322.14 -43191.504"/><path d="M 100273.039 -66694.685 100318.794 -66747.489 100330 -66799 100330 -81156 100310.315 -81223.039 100257.511 -81268.794 100206 -81280 77594 -81280 77526.961 -81260.315 77481.206 -81207.511 77470 -81156 77470 -66799 77489.685 -66731.961 77542.489 -66686.206 77594 -66675 100206 -66675 100273.039 -66694.685"/></g><g id="I39lRH7SRugk_top_soldermask"><path d="M 77470 -66675 100330 -66675 100330 -81280 77470 -81280 77470 -66675" fill="none" stroke-width="150"/><use xlink:href="#Kr5FDTwISrga_pad-11" x="127000" y="-101600"/><use xlink:href="#Kr5FDTwISrga_pad-12" x="69850" y="-50800"/><use xlink:href="#Kr5FDTwISrga_pad-11" x="50800" y="-101600"/><use xlink:href="#Kr5FDTwISrga_pad-11" x="50800" y="-50800"/><use xlink:href="#Kr5FDTwISrga_pad-12" x="88900" y="-101600"/><use xlink:href="#Kr5FDTwISrga_pad-12" x="50800" y="-66675"/><use xlink:href="#Kr5FDTwISrga_pad-12" x="69850" y="-101600"/><use xlink:href="#Kr5FDTwISrga_pad-12" x="127000" y="-85725"/><use xlink:href="#Kr5FDTwISrga_pad-12" x="107950" y="-101600"/><use xlink:href="#Kr5FDTwISrga_pad-11" x="127000" y="-50800"/><use xlink:href="#Kr5FDTwISrga_pad-12" x="50800" y="-85725"/><use xlink:href="#Kr5FDTwISrga_pad-12" x="127000" y="-66675"/><use xlink:href="#Kr5FDTwISrga_pad-13" x="85090" y="-85350"/><use xlink:href="#Kr5FDTwISrga_pad-13" x="86360" y="-85350"/><use xlink:href="#Kr5FDTwISrga_pad-13" x="87630" y="-85350"/><use xlink:href="#Kr5FDTwISrga_pad-13" x="88900" y="-85350"/><use xlink:href="#Kr5FDTwISrga_pad-14" x="88900" y="-76200"/><use xlink:href="#Kr5FDTwISrga_pad-13" x="90170" y="-85350"/><use xlink:href="#Kr5FDTwISrga_pad-13" x="91440" y="-85350"/><use xlink:href="#Kr5FDTwISrga_pad-13" x="92710" y="-85350"/><path d="M 100273.039 -66694.685 100318.794 -66747.489 100330 -66799 100330 -81156 100310.315 -81223.039 100257.511 -81268.794 100206 -81280 77594 -81280 77526.961 -81260.315 77481.206 -81207.511 77470 -81156 77470 -66799 77489.685 -66731.961 77542.489 -66686.206 77594 -66675 100206 -66675 100273.039 -66694.685"/></g><g id="I39lRH7SRugk_top_solderpaste"><use xlink:href="#ONw01ofrACyi_pad-10" x="85090" y="-85350"/><use xlink:href="#ONw01ofrACyi_pad-10" x="86360" y="-85350"/><use xlink:href="#ONw01ofrACyi_pad-10" x="87630" y="-85350"/><use xlink:href="#ONw01ofrACyi_pad-10" x="88900" y="-85350"/><use xlink:href="#ONw01ofrACyi_pad-11" x="86125" y="-78625"/><use xlink:href="#ONw01ofrACyi_pad-11" x="91675" y="-78625"/><use xlink:href="#ONw01ofrACyi_pad-11" x="86125" y="-73775"/><use xlink:href="#ONw01ofrACyi_pad-11" x="91675" y="-73775"/><use xlink:href="#ONw01ofrACyi_pad-10" x="90170" y="-85350"/><use xlink:href="#ONw01ofrACyi_pad-10" x="91440" y="-85350"/><use xlink:href="#ONw01ofrACyi_pad-10" x="92710" y="-85350"/></g><g id="I39lRH7SRugk_top_silkscreen"><path d="M 90242.855 -49063.328 90242.855 -47563.328 M 90885.713 -49063.328 90885.713 -48277.614 90814.284 -48134.757 90671.427 -48063.328 90457.141 -48063.328 90314.284 -48134.757 90242.855 -48206.185 M 91385.713 -48063.328 91957.141 -48063.328 M 91599.998 -47563.328 91599.998 -48849.042 91671.427 -48991.9 91814.284 -49063.328 91957.141 -49063.328 M 92242.856 -48063.328 92814.284 -48063.328 M 92457.141 -47563.328 92457.141 -48849.042 92528.57 -48991.9 92671.427 -49063.328 92814.284 -49063.328 M 93314.284 -48063.328 93314.284 -49563.328 M 93314.284 -48134.757 93457.142 -48063.328 93742.856 -48063.328 93885.713 -48134.757 93957.142 -48206.185 94028.57 -48349.042 94028.57 -48777.614 93957.142 -48920.471 93885.713 -48991.9 93742.856 -49063.328 93457.142 -49063.328 93314.284 -48991.9 M 94599.999 -48991.9 94742.856 -49063.328 95028.57 -49063.328 95171.427 -48991.9 95242.856 -48849.042 95242.856 -48777.614 95171.427 -48634.757 95028.57 -48563.328 94814.285 -48563.328 94671.427 -48491.9 94599.999 -48349.042 94599.999 -48277.614 94671.427 -48134.757 94814.285 -48063.328 95028.57 -48063.328 95171.427 -48134.757 M 95885.713 -48920.471 95957.142 -48991.9 95885.713 -49063.328 95814.285 -48991.9 95885.713 -48920.471 95885.713 -49063.328 M 95885.713 -48134.757 95957.142 -48206.185 95885.713 -48277.614 95814.285 -48206.185 95885.713 -48134.757 95885.713 -48277.614 M 97671.428 -47491.9 96385.714 -49420.471 M 99242.857 -47491.9 97957.143 -49420.471 M 100385.715 -48063.328 100385.715 -49277.614 100314.286 -49420.471 100242.857 -49491.9 100100 -49563.328 99885.715 -49563.328 99742.857 -49491.9 M 100385.715 -48991.9 100242.857 -49063.328 99957.143 -49063.328 99814.286 -48991.9 99742.857 -48920.471 99671.429 -48777.614 99671.429 -48349.042 99742.857 -48206.185 99814.286 -48134.757 99957.143 -48063.328 100242.857 -48063.328 100385.715 -48134.757 M 101100 -49063.328 101100 -48063.328 M 101100 -47563.328 101028.572 -47634.757 101100 -47706.185 101171.429 -47634.757 101100 -47563.328 101100 -47706.185 M 101600.001 -48063.328 102171.429 -48063.328 M 101814.286 -47563.328 101814.286 -48849.042 101885.715 -48991.9 102028.572 -49063.328 102171.429 -49063.328 M 102671.429 -49063.328 102671.429 -47563.328 M 103314.287 -49063.328 103314.287 -48277.614 103242.858 -48134.757 103100.001 -48063.328 102885.715 -48063.328 102742.858 -48134.757 102671.429 -48206.185 M 104671.43 -48063.328 104671.43 -49063.328 M 104028.572 -48063.328 104028.572 -48849.042 104100.001 -48991.9 104242.858 -49063.328 104457.144 -49063.328 104600.001 -48991.9 104671.43 -48920.471 M 105385.715 -49063.328 105385.715 -47563.328 M 105385.715 -48134.757 105528.573 -48063.328 105814.287 -48063.328 105957.144 -48134.757 106028.573 -48206.185 106100.001 -48349.042 106100.001 -48777.614 106028.573 -48920.471 105957.144 -48991.9 105814.287 -49063.328 105528.573 -49063.328 105385.715 -48991.9 M 106742.858 -48920.471 106814.287 -48991.9 106742.858 -49063.328 106671.43 -48991.9 106742.858 -48920.471 106742.858 -49063.328 M 108100.002 -48991.9 107957.144 -49063.328 107671.43 -49063.328 107528.573 -48991.9 107457.144 -48920.471 107385.716 -48777.614 107385.716 -48349.042 107457.144 -48206.185 107528.573 -48134.757 107671.43 -48063.328 107957.144 -48063.328 108100.002 -48134.757 M 108957.144 -49063.328 108814.287 -48991.9 108742.858 -48920.471 108671.43 -48777.614 108671.43 -48349.042 108742.858 -48206.185 108814.287 -48134.757 108957.144 -48063.328 109171.43 -48063.328 109314.287 -48134.757 109385.716 -48206.185 109457.144 -48349.042 109457.144 -48777.614 109385.716 -48920.471 109314.287 -48991.9 109171.43 -49063.328 108957.144 -49063.328 M 110100.001 -49063.328 110100.001 -48063.328 M 110100.001 -48206.185 110171.43 -48134.757 110314.287 -48063.328 110528.573 -48063.328 110671.43 -48134.757 110742.859 -48277.614 110742.859 -49063.328 M 110742.859 -48277.614 110814.287 -48134.757 110957.144 -48063.328 111171.43 -48063.328 111314.287 -48134.757 111385.716 -48277.614 111385.716 -49063.328 M 113171.43 -47491.9 111885.716 -49420.471 M 86671.427 -50478.328 86671.427 -51478.328 M 86028.569 -50478.328 86028.569 -51264.042 86099.998 -51406.9 86242.855 -51478.328 86457.141 -51478.328 86599.998 -51406.9 86671.427 -51335.471 M 87242.855 -50478.328 87528.57 -51478.328 87814.284 -50764.042 88099.998 -51478.328 88385.712 -50478.328 M 88957.141 -50906.9 90099.999 -50906.9 M 90814.284 -51478.328 90814.284 -50478.328 M 90814.284 -50621.185 90885.713 -50549.757 91028.57 -50478.328 91242.856 -50478.328 91385.713 -50549.757 91457.142 -50692.614 91457.142 -51478.328 M 91457.142 -50692.614 91528.57 -50549.757 91671.427 -50478.328 91885.713 -50478.328 92028.57 -50549.757 92099.999 -50692.614 92099.999 -51478.328 M 93457.142 -51478.328 93457.142 -50692.614 93385.713 -50549.757 93242.856 -50478.328 92957.142 -50478.328 92814.284 -50549.757 M 93457.142 -51406.9 93314.284 -51478.328 92957.142 -51478.328 92814.284 -51406.9 92742.856 -51264.042 92742.856 -51121.185 92814.284 -50978.328 92957.142 -50906.9 93314.284 -50906.9 93457.142 -50835.471 M 94814.285 -51478.328 94814.285 -49978.328 M 94814.285 -51406.9 94671.427 -51478.328 94385.713 -51478.328 94242.856 -51406.9 94171.427 -51335.471 94099.999 -51192.614 94099.999 -50764.042 94171.427 -50621.185 94242.856 -50549.757 94385.713 -50478.328 94671.427 -50478.328 94814.285 -50549.757 M 95528.57 -51478.328 95528.57 -50478.328 M 95528.57 -49978.328 95457.142 -50049.757 95528.57 -50121.185 95599.999 -50049.757 95528.57 -49978.328 95528.57 -50121.185 M 96171.428 -51406.9 96314.285 -51478.328 96599.999 -51478.328 96742.856 -51406.9 96814.285 -51264.042 96814.285 -51192.614 96742.856 -51049.757 96599.999 -50978.328 96385.714 -50978.328 96242.856 -50906.9 96171.428 -50764.042 96171.428 -50692.614 96242.856 -50549.757 96385.714 -50478.328 96599.999 -50478.328 96742.856 -50549.757 M 97671.428 -51478.328 97528.571 -51406.9 97457.142 -51335.471 97385.714 -51192.614 97385.714 -50764.042 97457.142 -50621.185 97528.571 -50549.757 97671.428 -50478.328 97885.714 -50478.328 98028.571 -50549.757 98100 -50621.185 98171.428 -50764.042 98171.428 -51192.614 98100 -51335.471 98028.571 -51406.9 97885.714 -51478.328 97671.428 -51478.328 M 98814.285 -50478.328 98814.285 -51478.328 M 98814.285 -50621.185 98885.714 -50549.757 99028.571 -50478.328 99242.857 -50478.328 99385.714 -50549.757 99457.143 -50692.614 99457.143 -51478.328 M 100171.428 -50906.9 101314.286 -50906.9 M 102671.429 -51406.9 102528.571 -51478.328 102242.857 -51478.328 102100 -51406.9 102028.571 -51335.471 101957.143 -51192.614 101957.143 -50764.042 102028.571 -50621.185 102100 -50549.757 102242.857 -50478.328 102528.571 -50478.328 102671.429 -50549.757 M 103314.285 -51478.328 103314.285 -49978.328 M 103957.143 -51478.328 103957.143 -50692.614 103885.714 -50549.757 103742.857 -50478.328 103528.571 -50478.328 103385.714 -50549.757 103314.285 -50621.185 M 105242.857 -51406.9 105100 -51478.328 104814.286 -51478.328 104671.428 -51406.9 104600 -51264.042 104600 -50692.614 104671.428 -50549.757 104814.286 -50478.328 105100 -50478.328 105242.857 -50549.757 105314.286 -50692.614 105314.286 -50835.471 104600 -50978.328 M 105957.142 -51478.328 105957.142 -50478.328 M 105957.142 -50621.185 106028.571 -50549.757 106171.428 -50478.328 106385.714 -50478.328 106528.571 -50549.757 106600 -50692.614 106600 -51478.328 M 106600 -50692.614 106671.428 -50549.757 106814.285 -50478.328 107028.571 -50478.328 107171.428 -50549.757 107242.857 -50692.614 107242.857 -51478.328 M 107957.142 -50906.9 109100 -50906.9 M 109742.857 -51406.9 109885.714 -51478.328 110171.428 -51478.328 110314.285 -51406.9 110385.714 -51264.042 110385.714 -51192.614 110314.285 -51049.757 110171.428 -50978.328 109957.143 -50978.328 109814.285 -50906.9 109742.857 -50764.042 109742.857 -50692.614 109814.285 -50549.757 109957.143 -50478.328 110171.428 -50478.328 110314.285 -50549.757 M 111028.571 -51478.328 111028.571 -49978.328 M 111671.429 -51478.328 111671.429 -50692.614 111600 -50549.757 111457.143 -50478.328 111242.857 -50478.328 111100 -50549.757 111028.571 -50621.185 M 112600 -51478.328 112457.143 -51406.9 112385.714 -51335.471 112314.286 -51192.614 112314.286 -50764.042 112385.714 -50621.185 112457.143 -50549.757 112600 -50478.328 112814.286 -50478.328 112957.143 -50549.757 113028.572 -50621.185 113100 -50764.042 113100 -51192.614 113028.572 -51335.471 112957.143 -51406.9 112814.286 -51478.328 112600 -51478.328 M 113742.857 -50478.328 113742.857 -51978.328 M 113742.857 -50549.757 113885.715 -50478.328 114171.429 -50478.328 114314.286 -50549.757 114385.715 -50621.185 114457.143 -50764.042 114457.143 -51192.614 114385.715 -51335.471 114314.286 -51406.9 114171.429 -51478.328 113885.715 -51478.328 113742.857 -51406.9 M 115028.572 -51406.9 115171.429 -51478.328 115457.143 -51478.328 115600 -51406.9 115671.429 -51264.042 115671.429 -51192.614 115600 -51049.757 115457.143 -50978.328 115242.858 -50978.328 115100 -50906.9 115028.572 -50764.042 115028.572 -50692.614 115100 -50549.757 115242.858 -50478.328 115457.143 -50478.328 115600 -50549.757 M 117385.715 -49906.9 116100.001 -51835.471 M 92314.286 -52893.328 92885.714 -52893.328 M 92528.571 -52393.328 92528.571 -53679.042 92600 -53821.9 92742.857 -53893.328 92885.714 -53893.328 M 93600 -53893.328 93457.143 -53821.9 93385.714 -53750.471 93314.286 -53607.614 93314.286 -53179.042 93385.714 -53036.185 93457.143 -52964.757 93600 -52893.328 93814.286 -52893.328 93957.143 -52964.757 94028.572 -53036.185 94100 -53179.042 94100 -53607.614 94028.572 -53750.471 93957.143 -53821.9 93814.286 -53893.328 93600 -53893.328 M 94671.429 -52536.185 94742.857 -52464.757 94885.715 -52393.328 95242.857 -52393.328 95385.715 -52464.757 95457.143 -52536.185 95528.572 -52679.042 95528.572 -52821.9 95457.143 -53036.185 94600 -53893.328 95528.572 -53893.328 M 96814.286 -52393.328 96528.571 -52393.328 96385.714 -52464.757 96314.286 -52536.185 96171.428 -52750.471 96100 -53036.185 96100 -53607.614 96171.428 -53750.471 96242.857 -53821.9 96385.714 -53893.328 96671.428 -53893.328 96814.286 -53821.9 96885.714 -53750.471 96957.143 -53607.614 96957.143 -53250.471 96885.714 -53107.614 96814.286 -53036.185 96671.428 -52964.757 96385.714 -52964.757 96242.857 -53036.185 96171.428 -53107.614 96100 -53250.471 M 97457.142 -52393.328 98385.714 -52393.328 97885.714 -52964.757 98099.999 -52964.757 98242.857 -53036.185 98314.285 -53107.614 98385.714 -53250.471 98385.714 -53607.614 98314.285 -53750.471 98242.857 -53821.9 98099.999 -53893.328 97671.428 -53893.328 97528.571 -53821.9 97457.142 -53750.471 M 99028.57 -53321.9 100171.428 -53321.9 M 100885.713 -52893.328 100885.713 -54393.328 M 100885.713 -52964.757 101028.571 -52893.328 101314.285 -52893.328 101457.142 -52964.757 101528.571 -53036.185 101599.999 -53179.042 101599.999 -53607.614 101528.571 -53750.471 101457.142 -53821.9 101314.285 -53893.328 101028.571 -53893.328 100885.713 -53821.9 M 102242.856 -53893.328 102242.856 -52893.328 M 102242.856 -53179.042 102314.285 -53036.185 102385.714 -52964.757 102528.571 -52893.328 102671.428 -52893.328 M 103385.713 -53893.328 103242.856 -53821.9 103171.427 -53750.471 103099.999 -53607.614 103099.999 -53179.042 103171.427 -53036.185 103242.856 -52964.757 103385.713 -52893.328 103599.999 -52893.328 103742.856 -52964.757 103814.285 -53036.185 103885.713 -53179.042 103885.713 -53607.614 103814.285 -53750.471 103742.856 -53821.9 103599.999 -53893.328 103385.713 -53893.328 M 104314.285 -52893.328 104885.713 -52893.328 M 104528.57 -52393.328 104528.57 -53679.042 104599.999 -53821.9 104742.856 -53893.328 104885.713 -53893.328 M 105599.999 -53893.328 105457.142 -53821.9 105385.713 -53750.471 105314.285 -53607.614 105314.285 -53179.042 105385.713 -53036.185 105457.142 -52964.757 105599.999 -52893.328 105814.285 -52893.328 105957.142 -52964.757 106028.571 -53036.185 106099.999 -53179.042 106099.999 -53607.614 106028.571 -53750.471 105957.142 -53821.9 105814.285 -53893.328 105599.999 -53893.328 M 106528.571 -52893.328 107099.999 -52893.328 M 106742.856 -52393.328 106742.856 -53679.042 106814.285 -53821.9 106957.142 -53893.328 107099.999 -53893.328 M 107457.142 -52893.328 107814.285 -53893.328 M 108171.428 -52893.328 107814.285 -53893.328 107671.428 -54250.471 107599.999 -54321.9 107457.142 -54393.328 M 108742.856 -52893.328 108742.856 -54393.328 M 108742.856 -52964.757 108885.714 -52893.328 109171.428 -52893.328 109314.285 -52964.757 109385.714 -53036.185 109457.142 -53179.042 109457.142 -53607.614 109385.714 -53750.471 109314.285 -53821.9 109171.428 -53893.328 108885.714 -53893.328 108742.856 -53821.9 M 110671.428 -53821.9 110528.571 -53893.328 110242.857 -53893.328 110099.999 -53821.9 110028.571 -53679.042 110028.571 -53107.614 110099.999 -52964.757 110242.857 -52893.328 110528.571 -52893.328 110671.428 -52964.757 110742.857 -53107.614 110742.857 -53250.471 110028.571 -53393.328 M 68707.143 -57669.757 68564.286 -57598.328 68350 -57598.328 68135.714 -57669.757 67992.857 -57812.614 67921.428 -57955.471 67850 -58241.185 67850 -58455.471 67921.428 -58741.185 67992.857 -58884.042 68135.714 -59026.9 68350 -59098.328 68492.857 -59098.328 68707.143 -59026.9 68778.571 -58955.471 68778.571 -58455.471 68492.857 -58455.471 M 69421.428 -59098.328 69421.428 -57598.328 70278.571 -59098.328 70278.571 -57598.328 M 70992.857 -59098.328 70992.857 -57598.328 71350 -57598.328 71564.286 -57669.757 71707.143 -57812.614 71778.572 -57955.471 71850 -58241.185 71850 -58455.471 71778.572 -58741.185 71707.143 -58884.042 71564.286 -59026.9 71350 -59098.328 70992.857 -59098.328" fill="none" stroke-width="300"/><path d="M 69516.666 -43754.819 69516.666 -44469.104 69469.047 -44611.961 69373.809 -44707.2 69230.952 -44754.819 69135.714 -44754.819 M 70135.714 -44183.39 70040.476 -44135.771 69992.857 -44088.152 69945.238 -43992.914 69945.238 -43945.295 69992.857 -43850.057 70040.476 -43802.438 70135.714 -43754.819 70326.19 -43754.819 70421.428 -43802.438 70469.047 -43850.057 70516.666 -43945.295 70516.666 -43992.914 70469.047 -44088.152 70421.428 -44135.771 70326.19 -44183.39 70135.714 -44183.39 70040.476 -44231.009 69992.857 -44278.628 69945.238 -44373.866 69945.238 -44564.342 69992.857 -44659.58 70040.476 -44707.2 70135.714 -44754.819 70326.19 -44754.819 70421.428 -44707.2 70469.047 -44659.58 70516.666 -44564.342 70516.666 -44373.866 70469.047 -44278.628 70421.428 -44231.009 70326.19 -44183.39 M 88566.666 -94554.819 88566.666 -95269.104 88519.047 -95411.961 88423.809 -95507.2 88280.952 -95554.819 88185.714 -95554.819 M 89471.428 -94888.152 89471.428 -95554.819 M 89233.333 -94507.2 88995.238 -95221.485 89614.285 -95221.485 M 50466.666 -59629.819 50466.666 -60344.104 50419.047 -60486.961 50323.809 -60582.2 50180.952 -60629.819 50085.714 -60629.819 M 51466.666 -60629.819 50895.238 -60629.819 M 51180.952 -60629.819 51180.952 -59629.819 51085.714 -59772.676 50990.476 -59867.914 50895.238 -59915.533 M 69516.666 -94554.819 69516.666 -95269.104 69469.047 -95411.961 69373.809 -95507.2 69230.952 -95554.819 69135.714 -95554.819 M 69897.619 -94554.819 70516.666 -94554.819 70183.333 -94935.771 70326.19 -94935.771 70421.428 -94983.39 70469.047 -95031.009 70516.666 -95126.247 70516.666 -95364.342 70469.047 -95459.58 70421.428 -95507.2 70326.19 -95554.819 70040.476 -95554.819 69945.238 -95507.2 69897.619 -95459.58 M 126666.666 -78679.819 126666.666 -79394.104 126619.047 -79536.961 126523.809 -79632.2 126380.952 -79679.819 126285.714 -79679.819 M 127571.428 -78679.819 127380.952 -78679.819 127285.714 -78727.438 127238.095 -78775.057 127142.857 -78917.914 127095.238 -79108.39 127095.238 -79489.342 127142.857 -79584.58 127190.476 -79632.2 127285.714 -79679.819 127476.19 -79679.819 127571.428 -79632.2 127619.047 -79584.58 127666.666 -79489.342 127666.666 -79251.247 127619.047 -79156.009 127571.428 -79108.39 127476.19 -79060.771 127285.714 -79060.771 127190.476 -79108.39 127142.857 -79156.009 127095.238 -79251.247 M 107616.666 -94554.819 107616.666 -95269.104 107569.047 -95411.961 107473.809 -95507.2 107330.952 -95554.819 107235.714 -95554.819 M 108569.047 -94554.819 108092.857 -94554.819 108045.238 -95031.009 108092.857 -94983.39 108188.095 -94935.771 108426.19 -94935.771 108521.428 -94983.39 108569.047 -95031.009 108616.666 -95126.247 108616.666 -95364.342 108569.047 -95459.58 108521.428 -95507.2 108426.19 -95554.819 108188.095 -95554.819 108092.857 -95507.2 108045.238 -95459.58 M 50466.666 -78679.819 50466.666 -79394.104 50419.047 -79536.961 50323.809 -79632.2 50180.952 -79679.819 50085.714 -79679.819 M 50895.238 -78775.057 50942.857 -78727.438 51038.095 -78679.819 51276.19 -78679.819 51371.428 -78727.438 51419.047 -78775.057 51466.666 -78870.295 51466.666 -78965.533 51419.047 -79108.39 50847.619 -79679.819 51466.666 -79679.819 M 126666.666 -59629.819 126666.666 -60344.104 126619.047 -60486.961 126523.809 -60582.2 126380.952 -60629.819 126285.714 -60629.819 M 127047.619 -59629.819 127714.285 -59629.819 127285.714 -60629.819 M 81704.819 -78461.904 82514.342 -78461.904 82609.58 -78414.285 82657.2 -78366.666 82704.819 -78271.428 82704.819 -78080.952 82657.2 -77985.714 82609.58 -77938.095 82514.342 -77890.476 81704.819 -77890.476 M 82704.819 -76890.476 82704.819 -77461.904 M 82704.819 -77176.19 81704.819 -77176.19 81847.676 -77271.428 81942.914 -77366.666 81990.533 -77461.904" fill="none" stroke-width="150"/><path d="M 75350 -50800 A 5500 5500 0 0 1 64350 -50800 5500 5500 0 0 1 75350 -50800 M 94400 -101600 A 5500 5500 0 0 1 83400 -101600 5500 5500 0 0 1 94400 -101600 M 56300 -66675 A 5500 5500 0 0 1 45300 -66675 5500 5500 0 0 1 56300 -66675 M 75350 -101600 A 5500 5500 0 0 1 64350 -101600 5500 5500 0 0 1 75350 -101600 M 132500 -85725 A 5500 5500 0 0 1 121500 -85725 5500 5500 0 0 1 132500 -85725 M 113450 -101600 A 5500 5500 0 0 1 102450 -101600 5500 5500 0 0 1 113450 -101600 M 56300 -85725 A 5500 5500 0 0 1 45300 -85725 5500 5500 0 0 1 56300 -85725 M 132500 -66675 A 5500 5500 0 0 1 121500 -66675 5500 5500 0 0 1 132500 -66675 M 83700 -82525 84390 -82525 84390 -87650 M 93410 -82525 93410 -83625 M 94100 -82525 93410 -82525 M 83700 -81025 83700 -82525 M 94100 -81025 94100 -82525" fill="none" stroke-width="120"/></g><g id="I39lRH7SRugk_top_drill1" transform="scale(25.4,25.4)"><use xlink:href="#xtJRsqmrZoYR_pad-1" x="2000" y="-2000"/><use xlink:href="#xtJRsqmrZoYR_pad-1" x="2000" y="-4000"/><use xlink:href="#xtJRsqmrZoYR_pad-1" x="5000" y="-2000"/><use xlink:href="#xtJRsqmrZoYR_pad-1" x="5000" y="-4000"/></g><g id="I39lRH7SRugk_top_drill2" transform="scale(25.4,25.4)"><use xlink:href="#jpgEpCM7KWBz_pad-1" x="3200" y="-2750"/><use xlink:href="#jpgEpCM7KWBz_pad-1" x="3200" y="-2850"/><use xlink:href="#jpgEpCM7KWBz_pad-1" x="3200" y="-2950"/><use xlink:href="#jpgEpCM7KWBz_pad-1" x="3200" y="-3050"/><use xlink:href="#jpgEpCM7KWBz_pad-1" x="3200" y="-3150"/><use xlink:href="#jpgEpCM7KWBz_pad-1" x="3300" y="-2700"/><use xlink:href="#jpgEpCM7KWBz_pad-1" x="3400" y="-2700"/><use xlink:href="#jpgEpCM7KWBz_pad-1" x="3500" y="-2700"/><use xlink:href="#jpgEpCM7KWBz_pad-1" x="3600" y="-2700"/><use xlink:href="#jpgEpCM7KWBz_pad-1" x="3700" y="-2700"/><use xlink:href="#jpgEpCM7KWBz_pad-1" x="3800" y="-2750"/><use xlink:href="#jpgEpCM7KWBz_pad-1" x="3800" y="-2850"/><use xlink:href="#jpgEpCM7KWBz_pad-1" x="3800" y="-2950"/><use xlink:href="#jpgEpCM7KWBz_pad-1" x="3800" y="-3050"/><use xlink:href="#jpgEpCM7KWBz_pad-1" x="3800" y="-3150"/><use xlink:href="#jpgEpCM7KWBz_pad-2" x="2000" y="-2625"/><use xlink:href="#jpgEpCM7KWBz_pad-2" x="2000" y="-3375"/><use xlink:href="#jpgEpCM7KWBz_pad-2" x="2750" y="-2000"/><use xlink:href="#jpgEpCM7KWBz_pad-2" x="2750" y="-4000"/><use xlink:href="#jpgEpCM7KWBz_pad-2" x="3500" y="-4000"/><use xlink:href="#jpgEpCM7KWBz_pad-2" x="4250" y="-4000"/><use xlink:href="#jpgEpCM7KWBz_pad-2" x="5000" y="-2625"/><use xlink:href="#jpgEpCM7KWBz_pad-2" x="5000" y="-3375"/></g><clipPath id="I39lRH7SRugk_top_outline"><path d="M 50800 -43180 127000 -43180 A 7620 7620 0 0 0 134620 -50800 L 134620 -101600 A 7620 7620 0 0 0 127000 -109220 L 50800 -109220 A 7620 7620 0 0 0 43180 -101600 L 43180 -50800 A 7620 7620 0 0 0 50800 -43180" fill="none" stroke-width="100"/></clipPath><mask id="I39lRH7SRugk_top_mech-mask"><g fill="#000" stroke="#000"><rect x="43180" y="-109220" width="91440" height="66040" fill="#fff"/><use xlink:href="#I39lRH7SRugk_top_drill1"/><use xlink:href="#I39lRH7SRugk_top_drill2"/></g></mask><mask id="I39lRH7SRugk_top_cf-mask"><g fill="#fff" stroke="#fff"><use xlink:href="#I39lRH7SRugk_top_soldermask"/></g></mask><mask id="I39lRH7SRugk_top_sm-mask"><g fill="#000" stroke="#000"><rect x="43180" y="-109220" width="91440" height="66040" fill="#fff"/><use xlink:href="#I39lRH7SRugk_top_soldermask"/></g></mask></defs><g transform="translate(0,-152400) scale(1,-1)"><g mask="url(#I39lRH7SRugk_top_mech-mask)" clip-path="url(#I39lRH7SRugk_top_outline)"><rect x="43180" y="-109220" width="91440" height="66040" fill="currentColor" class="I39lRH7SRugk_fr4"/><use xlink:href="#I39lRH7SRugk_top_copper" fill="currentColor" stroke="currentColor" class="I39lRH7SRugk_cu"/><use xlink:href="#I39lRH7SRugk_top_copper" fill="currentColor" stroke="currentColor" class="I39lRH7SRugk_cf" mask="url(#I39lRH7SRugk_top_cf-mask)"/><g mask="url(#I39lRH7SRugk_top_sm-mask)"><rect x="43180" y="-109220" width="91440" height="66040" fill="currentColor" class="I39lRH7SRugk_sm"/><use xlink:href="#I39lRH7SRugk_top_silkscreen" fill="currentColor" stroke="currentColor" class="I39lRH7SRugk_ss"/></g><use xlink:href="#I39lRH7SRugk_top_solderpaste" fill="currentColor" stroke="currentColor" class="I39lRH7SRugk_sp"/></g></g></svg>