<svg version="1.1" xmlns="http://www.w3.org/2000/svg" xmlns:xlink="http://www.w3.org/1999/xlink" stroke-linecap="round" stroke-linejoin="round" stroke-width="0" fill-rule="evenodd" clip-rule="evenodd" id="kOPADjvq6iYJ_bottom" viewBox="43180 -109220 91440 66040" width="91.44mm" height="66.04mm"><defs><style>.kOPADjvq6iYJ_fr4 {color: #666666;}
.kOPADjvq6iYJ_cu {color: #cccccc;}
.kOPADjvq6iYJ_cf {color: #cc9933;}
.kOPADjvq6iYJ_sm {color: #ff0000; opacity: 0.75;}
.kOPADjvq6iYJ_ss {color: #ffffff;}
.kOPADjvq6iYJ_sp {color: #999999;}
.kOPADjvq6iYJ_out {color: #000000;}</style><circle cx="0" cy="0" r="5080" id="hqQzk3RsEz9a_pad-10"/><circle cx="0" cy="0" r="1600" id="xvEZx_FFW8X0_pad-10"/><circle cx="0" cy="0" r="5080" id="xvEZx_FFW8X0_pad-11"/><circle cx="0" cy="0" r="63" id="t2iq8n6KAuKx_pad-1"/><circle cx="0" cy="0" r="120.1" id="LDhWg3ZusWoI_pad-1"/><g id="kOPADjvq6iYJ_bottom_copper"><use xlink:href="#hqQzk3RsEz9a_pad-10" x="69850" y="-50800"/><use xlink:href="#hqQzk3RsEz9a_pad-10" x="88900" y="-101600"/><use xlink:href="#hqQzk3RsEz9a_pad-10" x="50800" y="-66675"/><use xlink:href="#hqQzk3RsEz9a_pad-10" x="69850" y="-101600"/><use xlink:href="#hqQzk3RsEz9a_pad-10" x="127000" y="-85725"/><use xlink:href="#hqQzk3RsEz9a_pad-10" x="107950" y="-101600"/><use xlink:href="#hqQzk3RsEz9a_pad-10" x="50800" y="-85725"/><use xlink:href="#hqQzk3RsEz9a_pad-10" x="127000" y="-66675"/><path d="M 127322.14 -43191.504 127522.52 -43198.661 127526.58 -43198.942 127814.973 -43228.589 128051.748 -43254.046 128055.619 -43254.588 128334.032 -43302.592 128575.786 -43346.209 128579.345 -43346.963 128841.257 -43410.789 128850.934 -43413.148 129092.051 -43474.689 129095.4 -43475.647 129360.331 -43559.732 129598.091 -43638.866 129601.205 -43639.999 129715.553 -43685.091 129858.831 -43741.592 130091.402 -43837.927 130094.269 -43839.202 130251.768 -43914.105 130343.806 -43957.877 130569.576 -44070.889 130572.211 -44072.288 130812.732 -44207.526 130898.176 -44258.221 131030.359 -44336.65 131032.709 -44338.117 131163.888 -44424.157 131263.229 -44489.315 131263.251 -44489.329 131472.485 -44634.603 131693.115 -44801.912 131891.579 -44961.844 131996.099 -45052.98 132100.199 -45143.751 132286.816 -45317.497 132482.502 -45513.183 132656.248 -45699.8 132708.86 -45760.137 132838.158 -45908.423 132947.881 -46044.582 132998.087 -46106.884 133165.396 -46327.514 133310.67 -46536.748 133461.881 -46767.289 133463.359 -46769.656 133592.473 -46987.267 133727.71 -47227.787 133729.109 -47230.422 133842.122 -47456.193 133960.786 -47705.706 133962.076 -47708.608 134058.414 -47941.188 134159.999 -48198.793 134161.15 -48201.959 134240.283 -48439.717 134324.34 -48704.561 134325.319 -48707.984 134386.851 -48949.065 134453.021 -49220.589 134453.799 -49224.261 134497.418 -49466.026 134545.41 -49744.381 134545.957 -49748.288 134571.425 -49985.174 134601.053 -50273.378 134601.338 -50277.506 134608.507 -50478.225 134619.5 -50800.001 134619.5 -101599.999 134608.507 -101921.774 134601.338 -102122.492 134601.053 -102126.62 134571.425 -102414.825 134545.957 -102651.71 134545.41 -102655.617 134497.418 -102933.973 134453.799 -103175.737 134453.021 -103179.409 134386.851 -103450.934 134325.319 -103692.014 134324.34 -103695.437 134240.283 -103960.282 134161.15 -104198.039 134160 -104201.205 134058.414 -104458.811 133962.076 -104691.39 133960.786 -104694.292 133842.122 -104943.806 133729.109 -105169.576 133727.71 -105172.211 133592.473 -105412.732 133463.359 -105630.342 133461.881 -105632.709 133310.67 -105863.251 133165.396 -106072.485 132998.087 -106293.115 132838.151 -106491.585 132656.248 -106700.199 132482.502 -106886.816 132286.816 -107082.502 132100.199 -107256.248 131891.585 -107438.151 131693.115 -107598.087 131472.485 -107765.396 131263.251 -107910.67 131032.709 -108061.881 131030.342 -108063.359 130812.732 -108192.473 130572.211 -108327.71 130569.576 -108329.109 130343.806 -108442.122 130094.292 -108560.786 130091.39 -108562.076 129858.811 -108658.414 129601.205 -108760 129598.039 -108761.15 129360.282 -108840.283 129095.437 -108924.34 129092.014 -108925.319 128850.934 -108986.851 128579.409 -109053.021 128575.737 -109053.799 128333.973 -109097.418 128055.617 -109145.41 128051.71 -109145.957 127814.825 -109171.425 127526.62 -109201.053 127522.492 -109201.338 127321.774 -109208.507 126999.999 -109219.5 50800.001 -109219.5 50478.225 -109208.507 50277.506 -109201.338 50273.378 -109201.053 49985.174 -109171.425 49748.288 -109145.957 49744.381 -109145.41 49466.026 -109097.418 49224.261 -109053.799 49220.604 -109053.024 49119.381 -109028.356 48949.065 -108986.851 48707.984 -108925.319 48704.561 -108924.34 48439.717 -108840.283 48201.95 -108761.146 48198.793 -108759.999 47941.188 -108658.414 47708.608 -108562.076 47705.706 -108560.786 47456.193 -108442.122 47230.422 -108329.109 47227.787 -108327.71 46987.267 -108192.473 46769.656 -108063.359 46767.289 -108061.881 46536.748 -107910.67 46327.514 -107765.396 46106.884 -107598.087 46023.367 -107530.785 45908.423 -107438.158 45760.137 -107308.86 45699.8 -107256.248 45513.183 -107082.502 45317.497 -106886.816 45143.751 -106700.199 45066.097 -106611.142 44961.844 -106491.579 44801.912 -106293.115 44634.603 -106072.485 44489.329 -105863.251 44338.117 -105632.709 44336.65 -105630.359 44207.526 -105412.732 44072.288 -105172.211 44070.889 -105169.576 43957.877 -104943.806 43918.755 -104861.545 43839.202 -104694.27 43837.922 -104691.39 43741.585 -104458.811 43639.999 -104201.205 43638.866 -104198.091 43559.732 -103960.331 43475.647 -103695.4 43474.689 -103692.051 43413.148 -103450.934 43402.031 -103405.316 43346.963 -103179.345 43346.209 -103175.786 43302.592 -102934.032 43254.588 -102655.617 43254.046 -102651.748 43228.574 -102414.825 43198.942 -102126.58 43198.661 -102122.52 43191.492 -101921.774 43182.815 -101667.763 48945.787 -101667.763 48975.413 -101937.013 48975.415 -101937.024 49024.982 -102126.62 49043.928 -102199.088 49149.87 -102448.39 49216.981 -102558.355 49290.979 -102679.605 49290.986 -102679.615 49464.253 -102887.819 49464.259 -102887.824 49515.765 -102933.973 49665.998 -103068.582 49891.91 -103218.044 50137.176 -103333.02 50137.183 -103333.022 50137.185 -103333.023 50396.557 -103411.057 50396.564 -103411.058 50396.569 -103411.06 50664.561 -103450.5 50664.566 -103450.5 50867.636 -103450.5 50919.133 -103446.73 51070.156 -103435.677 51206.451 -103405.316 51334.546 -103376.782 51334.548 -103376.781 51334.553 -103376.78 51587.558 -103280.014 51823.777 -103147.441 52038.177 -102981.888 52226.186 -102786.881 52383.799 -102566.579 52479.85 -102379.759 52507.649 -102325.69 52507.651 -102325.684 52507.656 -102325.675 52595.118 -102069.305 52644.319 -101802.933 52651.735 -101600 63875.655 -101600 63895.028 -102080.735 63909.398 -102199.082 63953.021 -102558.355 63953.021 -102558.354 64021.862 -102895.557 64049.259 -103029.754 64183.116 -103491.884 64340.418 -103906.657 64353.73 -103941.756 64362.521 -103960.282 64559.98 -104376.417 64741.83 -104691.39 64800.548 -104793.091 64856.94 -104874.788 65073.853 -105189.042 65378.139 -105561.724 65711.426 -105908.712 66071.553 -106227.757 66422.643 -106491.585 66456.188 -106516.792 66862.83 -106773.937 66862.831 -106773.937 67277.649 -106991.65 67288.853 -106997.53 67488.291 -107082.502 67731.468 -107186.11 67731.47 -107186.11 67731.478 -107186.114 67913.002 -107246.715 68187.833 -107338.467 68187.836 -107338.467 68187.836 -107338.468 68654.976 -107453.607 69129.87 -107530.785 69129.871 -107530.785 69609.435 -107569.5 69609.437 -107569.5 70090.565 -107569.5 70570.129 -107530.785 70570.13 -107530.785 71045.024 -107453.607 71512.164 -107338.468 71512.164 -107338.467 71512.167 -107338.467 71786.997 -107246.715 71968.522 -107186.114 71968.529 -107186.11 71968.532 -107186.11 72211.709 -107082.502 72411.147 -106997.53 72422.351 -106991.65 72837.169 -106773.937 72837.17 -106773.937 73243.812 -106516.792 73277.357 -106491.585 73628.447 -106227.757 73988.574 -105908.712 74321.861 -105561.724 74626.147 -105189.042 74843.06 -104874.788 74899.452 -104793.091 74958.17 -104691.39 75140.02 -104376.417 75337.479 -103960.282 75346.27 -103941.756 75359.582 -103906.657 75516.884 -103491.884 75650.741 -103029.754 75678.138 -102895.557 75746.979 -102558.354 75746.979 -102558.355 75790.602 -102199.082 75804.972 -102080.735 75824.345 -101600 82925.655 -101600 82945.028 -102080.735 82959.398 -102199.082 83003.021 -102558.355 83003.021 -102558.354 83071.862 -102895.557 83099.259 -103029.754 83233.116 -103491.884 83390.418 -103906.657 83403.73 -103941.756 83412.521 -103960.282 83609.98 -104376.417 83791.83 -104691.39 83850.548 -104793.091 83906.94 -104874.788 84123.853 -105189.042 84428.139 -105561.724 84761.426 -105908.712 85121.553 -106227.757 85472.643 -106491.585 85506.188 -106516.792 85912.83 -106773.937 85912.831 -106773.937 86327.649 -106991.65 86338.853 -106997.53 86538.291 -107082.502 86781.468 -107186.11 86781.47 -107186.11 86781.478 -107186.114 86963.002 -107246.715 87237.833 -107338.467 87237.836 -107338.467 87237.836 -107338.468 87704.976 -107453.607 88179.87 -107530.785 88179.871 -107530.785 88659.435 -107569.5 88659.437 -107569.5 89140.565 -107569.5 89620.129 -107530.785 89620.13 -107530.785 90095.024 -107453.607 90562.164 -107338.468 90562.164 -107338.467 90562.167 -107338.467 90836.997 -107246.715 91018.522 -107186.114 91018.529 -107186.11 91018.532 -107186.11 91261.709 -107082.502 91461.147 -106997.53 91472.351 -106991.65 91887.169 -106773.937 91887.17 -106773.937 92293.812 -106516.792 92327.357 -106491.585 92678.447 -106227.757 93038.574 -105908.712 93371.861 -105561.724 93676.147 -105189.042 93893.06 -104874.788 93949.452 -104793.091 94008.17 -104691.39 94190.02 -104376.417 94387.479 -103960.282 94396.27 -103941.756 94409.582 -103906.657 94566.884 -103491.884 94700.741 -103029.754 94728.138 -102895.557 94796.979 -102558.354 94796.979 -102558.355 94840.602 -102199.082 94854.972 -102080.735 94874.345 -101600 101975.655 -101600 101995.028 -102080.735 102009.398 -102199.082 102053.021 -102558.355 102053.021 -102558.354 102121.862 -102895.557 102149.259 -103029.754 102283.116 -103491.884 102440.418 -103906.657 102453.73 -103941.756 102462.521 -103960.282 102659.98 -104376.417 102841.83 -104691.39 102900.548 -104793.091 102956.94 -104874.788 103173.853 -105189.042 103478.139 -105561.724 103811.426 -105908.712 104171.553 -106227.757 104522.643 -106491.585 104556.188 -106516.792 104962.83 -106773.937 104962.831 -106773.937 105377.649 -106991.65 105388.853 -106997.53 105588.291 -107082.502 105831.468 -107186.11 105831.47 -107186.11 105831.478 -107186.114 106013.002 -107246.715 106287.833 -107338.467 106287.836 -107338.467 106287.836 -107338.468 106754.976 -107453.607 107229.87 -107530.785 107229.871 -107530.785 107709.435 -107569.5 107709.437 -107569.5 108190.565 -107569.5 108670.129 -107530.785 108670.13 -107530.785 109145.024 -107453.607 109612.164 -107338.468 109612.164 -107338.467 109612.167 -107338.467 109886.997 -107246.715 110068.522 -107186.114 110068.529 -107186.11 110068.532 -107186.11 110311.709 -107082.502 110511.147 -106997.53 110522.351 -106991.65 110937.169 -106773.937 110937.17 -106773.937 111343.812 -106516.792 111377.357 -106491.585 111728.447 -106227.757 112088.574 -105908.712 112421.861 -105561.724 112726.147 -105189.042 112943.06 -104874.788 112999.452 -104793.091 113058.17 -104691.39 113240.02 -104376.417 113437.479 -103960.282 113446.27 -103941.756 113459.582 -103906.657 113616.884 -103491.884 113750.741 -103029.754 113778.138 -102895.557 113846.979 -102558.354 113846.979 -102558.355 113890.602 -102199.082 113904.972 -102080.735 113921.614 -101667.763 125145.787 -101667.763 125175.413 -101937.013 125175.415 -101937.024 125224.982 -102126.62 125243.928 -102199.088 125349.87 -102448.39 125416.981 -102558.355 125490.979 -102679.605 125490.986 -102679.615 125664.253 -102887.819 125664.259 -102887.824 125715.765 -102933.973 125865.998 -103068.582 126091.91 -103218.044 126337.176 -103333.02 126337.183 -103333.022 126337.185 -103333.023 126596.557 -103411.057 126596.564 -103411.058 126596.569 -103411.06 126864.561 -103450.5 126864.566 -103450.5 127067.636 -103450.5 127119.133 -103446.73 127270.156 -103435.677 127406.451 -103405.316 127534.546 -103376.782 127534.548 -103376.781 127534.553 -103376.78 127787.558 -103280.014 128023.777 -103147.441 128238.177 -102981.888 128426.186 -102786.881 128583.799 -102566.579 128679.85 -102379.759 128707.649 -102325.69 128707.651 -102325.684 128707.656 -102325.675 128795.118 -102069.305 128844.319 -101802.933 128854.212 -101532.235 128824.586 -101262.982 128756.072 -101000.912 128650.13 -100751.61 128509.018 -100520.39 128419.747 -100413.119 128335.746 -100312.18 128335.74 -100312.175 128134.002 -100131.418 127908.092 -99981.957 127908.09 -99981.956 127662.824 -99866.98 127662.819 -99866.978 127662.814 -99866.976 127403.442 -99788.942 127403.428 -99788.939 127287.791 -99771.921 127135.439 -99749.5 126932.369 -99749.5 126932.364 -99749.5 126729.844 -99764.323 126729.831 -99764.325 126465.453 -99823.217 126465.446 -99823.22 126212.439 -99919.987 125976.226 -100052.557 125761.822 -100218.112 125573.822 -100413.109 125573.816 -100413.116 125416.202 -100633.419 125416.199 -100633.424 125292.35 -100874.309 125292.343 -100874.327 125204.884 -101130.685 125204.881 -101130.699 125155.681 -101397.068 125155.68 -101397.075 125145.787 -101667.763 113921.614 -101667.763 113924.345 -101600 113904.972 -101119.265 113846.979 -100641.648 113846.979 -100641.646 113846.978 -100641.645 113750.74 -100170.241 113616.884 -99708.116 113446.275 -99258.256 113446.272 -99258.251 113446.27 -99258.244 113333.599 -99020.797 113240.02 -98823.583 112999.457 -98406.917 112999.454 -98406.913 112999.452 -98406.909 112911.359 -98279.285 112726.147 -98010.958 112421.861 -97638.276 112088.574 -97291.288 111728.447 -96972.243 111343.815 -96683.21 110937.173 -96426.065 110937.17 -96426.063 110937.169 -96426.063 110511.147 -96202.47 110183.872 -96063.031 110068.532 -96013.89 110068.529 -96013.889 110068.522 -96013.886 109886.997 -95953.284 109612.167 -95861.533 109612.164 -95861.532 109145.024 -95746.393 108670.13 -95669.215 108670.129 -95669.215 108190.565 -95630.5 108190.563 -95630.5 107709.437 -95630.5 107709.435 -95630.5 107229.871 -95669.215 107229.87 -95669.215 106754.976 -95746.393 106287.836 -95861.532 106287.833 -95861.533 106013.002 -95953.284 105831.478 -96013.886 105831.47 -96013.889 105831.468 -96013.89 105716.128 -96063.031 105388.853 -96202.47 104962.832 -96426.063 104962.831 -96426.063 104962.828 -96426.065 104556.185 -96683.21 104171.553 -96972.243 103811.426 -97291.288 103478.139 -97638.276 103173.853 -98010.958 102988.64 -98279.285 102900.548 -98406.909 102900.545 -98406.913 102900.543 -98406.917 102659.98 -98823.583 102566.4 -99020.797 102453.73 -99258.244 102453.727 -99258.251 102453.725 -99258.256 102283.116 -99708.116 102149.26 -100170.241 102053.021 -100641.645 102053.021 -100641.646 102053.021 -100641.648 101995.028 -101119.265 101975.655 -101600 94874.345 -101600 94854.972 -101119.265 94796.979 -100641.648 94796.979 -100641.646 94796.978 -100641.645 94700.74 -100170.241 94566.884 -99708.116 94396.275 -99258.256 94396.272 -99258.251 94396.27 -99258.244 94283.599 -99020.797 94190.02 -98823.583 93949.457 -98406.917 93949.454 -98406.913 93949.452 -98406.909 93861.359 -98279.285 93676.147 -98010.958 93371.861 -97638.276 93038.574 -97291.288 92678.447 -96972.243 92293.815 -96683.21 91887.173 -96426.065 91887.17 -96426.063 91887.169 -96426.063 91461.147 -96202.47 91133.872 -96063.031 91018.532 -96013.89 91018.529 -96013.889 91018.522 -96013.886 90836.997 -95953.284 90562.167 -95861.533 90562.164 -95861.532 90095.024 -95746.393 89620.13 -95669.215 89620.129 -95669.215 89140.565 -95630.5 89140.563 -95630.5 88659.437 -95630.5 88659.435 -95630.5 88179.871 -95669.215 88179.87 -95669.215 87704.976 -95746.393 87237.836 -95861.532 87237.833 -95861.533 86963.002 -95953.284 86781.478 -96013.886 86781.47 -96013.889 86781.468 -96013.89 86666.128 -96063.031 86338.853 -96202.47 85912.832 -96426.063 85912.831 -96426.063 85912.828 -96426.065 85506.185 -96683.21 85121.553 -96972.243 84761.426 -97291.288 84428.139 -97638.276 84123.853 -98010.958 83938.64 -98279.285 83850.548 -98406.909 83850.545 -98406.913 83850.543 -98406.917 83609.98 -98823.583 83516.4 -99020.797 83403.73 -99258.244 83403.727 -99258.251 83403.725 -99258.256 83233.116 -99708.116 83099.26 -100170.241 83003.021 -100641.645 83003.021 -100641.646 83003.021 -100641.648 82945.028 -101119.265 82925.655 -101600 75824.345 -101600 75804.972 -101119.265 75746.979 -100641.648 75746.979 -100641.646 75746.978 -100641.645 75650.74 -100170.241 75516.884 -99708.116 75346.275 -99258.256 75346.272 -99258.251 75346.27 -99258.244 75233.599 -99020.797 75140.02 -98823.583 74899.457 -98406.917 74899.454 -98406.913 74899.452 -98406.909 74811.359 -98279.285 74626.147 -98010.958 74321.861 -97638.276 73988.574 -97291.288 73628.447 -96972.243 73243.815 -96683.21 72837.173 -96426.065 72837.17 -96426.063 72837.169 -96426.063 72411.147 -96202.47 72083.872 -96063.031 71968.532 -96013.89 71968.529 -96013.889 71968.522 -96013.886 71786.997 -95953.284 71512.167 -95861.533 71512.164 -95861.532 71045.024 -95746.393 70570.13 -95669.215 70570.129 -95669.215 70090.565 -95630.5 70090.563 -95630.5 69609.437 -95630.5 69609.435 -95630.5 69129.871 -95669.215 69129.87 -95669.215 68654.976 -95746.393 68187.836 -95861.532 68187.833 -95861.533 67913.002 -95953.284 67731.478 -96013.886 67731.47 -96013.889 67731.468 -96013.89 67616.128 -96063.031 67288.853 -96202.47 66862.832 -96426.063 66862.831 -96426.063 66862.828 -96426.065 66456.185 -96683.21 66071.553 -96972.243 65711.426 -97291.288 65378.139 -97638.276 65073.853 -98010.958 64888.64 -98279.285 64800.548 -98406.909 64800.545 -98406.913 64800.543 -98406.917 64559.98 -98823.583 64466.4 -99020.797 64353.73 -99258.244 64353.727 -99258.251 64353.725 -99258.256 64183.116 -99708.116 64049.26 -100170.241 63953.021 -100641.645 63953.021 -100641.646 63953.021 -100641.648 63895.028 -101119.265 63875.655 -101600 52651.735 -101600 52654.212 -101532.235 52624.586 -101262.982 52556.072 -101000.912 52450.13 -100751.61 52309.018 -100520.39 52219.747 -100413.119 52135.746 -100312.18 52135.74 -100312.175 51934.002 -100131.418 51708.092 -99981.957 51708.09 -99981.956 51462.824 -99866.98 51462.819 -99866.978 51462.814 -99866.976 51203.442 -99788.942 51203.428 -99788.939 51087.791 -99771.921 50935.439 -99749.5 50732.369 -99749.5 50732.364 -99749.5 50529.844 -99764.323 50529.831 -99764.325 50265.453 -99823.217 50265.446 -99823.22 50012.439 -99919.987 49776.226 -100052.557 49561.822 -100218.112 49373.822 -100413.109 49373.816 -100413.116 49216.202 -100633.419 49216.199 -100633.424 49092.35 -100874.309 49092.343 -100874.327 49004.884 -101130.685 49004.881 -101130.699 48955.681 -101397.068 48955.68 -101397.075 48945.787 -101667.763 43182.815 -101667.763 43180.5 -101600 43180.5 -101599.5 43180.5 -85725.001 44825.655 -85725.001 44845.028 -86205.734 44903.021 -86683.355 44903.021 -86683.354 44999.259 -87154.754 45133.116 -87616.884 45133.119 -87616.893 45303.73 -88066.756 45416.4 -88304.202 45509.98 -88501.417 45509.982 -88501.42 45750.548 -88918.091 45838.64 -89045.714 46023.853 -89314.042 46328.139 -89686.724 46328.142 -89686.727 46661.427 -90033.713 47021.553 -90352.757 47406.188 -90641.792 47812.83 -90898.937 47812.831 -90898.937 48238.853 -91122.53 48566.128 -91261.968 48681.468 -91311.11 48681.47 -91311.11 48681.478 -91311.114 48863.002 -91371.715 49137.833 -91463.467 49137.836 -91463.467 49137.836 -91463.468 49604.976 -91578.607 50079.87 -91655.785 50079.871 -91655.785 50559.435 -91694.5 50559.437 -91694.5 51040.565 -91694.5 51520.129 -91655.785 51520.13 -91655.785 51995.024 -91578.607 52462.164 -91463.468 52462.164 -91463.467 52462.167 -91463.467 52736.997 -91371.715 52918.522 -91311.114 52918.529 -91311.11 52918.532 -91311.11 53033.872 -91261.968 53361.147 -91122.53 53787.169 -90898.937 53787.17 -90898.937 54193.812 -90641.792 54578.447 -90352.757 54938.573 -90033.713 55271.858 -89686.727 55271.857 -89686.727 55271.861 -89686.724 55576.147 -89314.042 55761.359 -89045.714 55849.452 -88918.091 56090.018 -88501.42 56090.02 -88501.417 56183.599 -88304.202 56296.27 -88066.756 56466.881 -87616.893 56466.884 -87616.884 56600.741 -87154.754 56696.979 -86683.354 56696.979 -86683.355 56754.972 -86205.734 56774.345 -85725.001 121025.655 -85725.001 121045.028 -86205.734 121103.021 -86683.355 121103.021 -86683.354 121199.259 -87154.754 121333.116 -87616.884 121333.119 -87616.893 121503.73 -88066.756 121616.4 -88304.202 121709.98 -88501.417 121709.982 -88501.42 121950.548 -88918.091 122038.64 -89045.714 122223.853 -89314.042 122528.139 -89686.724 122528.142 -89686.727 122861.427 -90033.713 123221.553 -90352.757 123606.188 -90641.792 124012.83 -90898.937 124012.831 -90898.937 124438.853 -91122.53 124766.128 -91261.968 124881.468 -91311.11 124881.47 -91311.11 124881.478 -91311.114 125063.002 -91371.715 125337.833 -91463.467 125337.836 -91463.467 125337.836 -91463.468 125804.976 -91578.607 126279.87 -91655.785 126279.871 -91655.785 126759.435 -91694.5 126759.437 -91694.5 127240.565 -91694.5 127720.129 -91655.785 127720.13 -91655.785 128195.024 -91578.607 128662.164 -91463.468 128662.164 -91463.467 128662.167 -91463.467 128936.997 -91371.715 129118.522 -91311.114 129118.529 -91311.11 129118.532 -91311.11 129233.872 -91261.968 129561.147 -91122.53 129987.169 -90898.937 129987.17 -90898.937 130393.812 -90641.792 130778.447 -90352.757 131138.573 -90033.713 131471.858 -89686.727 131471.857 -89686.727 131471.861 -89686.724 131776.147 -89314.042 131961.359 -89045.714 132049.452 -88918.091 132290.018 -88501.42 132290.02 -88501.417 132383.599 -88304.202 132496.27 -88066.756 132666.881 -87616.893 132666.884 -87616.884 132800.741 -87154.754 132896.979 -86683.354 132896.979 -86683.355 132954.972 -86205.734 132974.345 -85725.001 132974.345 -85724.999 132954.972 -85244.266 132896.979 -84766.645 132896.979 -84766.646 132800.74 -84295.241 132666.884 -83833.116 132496.275 -83383.256 132496.272 -83383.251 132496.27 -83383.244 132383.599 -83145.797 132290.02 -82948.583 132049.457 -82531.917 132049.454 -82531.913 132049.452 -82531.909 131961.359 -82404.285 131776.147 -82135.958 131471.861 -81763.276 131138.574 -81416.288 130778.447 -81097.243 130393.815 -80808.21 129987.173 -80551.065 129987.17 -80551.063 129987.169 -80551.063 129561.147 -80327.47 129233.872 -80188.031 129118.532 -80138.89 129118.529 -80138.889 129118.522 -80138.886 128936.997 -80078.284 128662.167 -79986.533 128662.164 -79986.532 128195.024 -79871.393 127720.13 -79794.215 127720.129 -79794.215 127240.565 -79755.5 127240.563 -79755.5 126759.437 -79755.5 126759.435 -79755.5 126279.871 -79794.215 126279.87 -79794.215 125804.976 -79871.393 125337.836 -79986.532 125337.833 -79986.533 125063.002 -80078.284 124881.478 -80138.886 124881.47 -80138.889 124881.468 -80138.89 124766.128 -80188.031 124438.853 -80327.47 124012.832 -80551.063 124012.831 -80551.063 124012.828 -80551.065 123606.185 -80808.21 123221.553 -81097.243 122861.426 -81416.288 122528.139 -81763.276 122223.853 -82135.958 122038.64 -82404.285 121950.548 -82531.909 121950.545 -82531.913 121950.543 -82531.917 121709.98 -82948.583 121616.4 -83145.797 121503.73 -83383.244 121503.727 -83383.251 121503.725 -83383.256 121333.116 -83833.116 121199.26 -84295.241 121103.021 -84766.646 121103.021 -84766.645 121045.028 -85244.266 121025.655 -85724.999 121025.655 -85725.001 56774.345 -85725.001 56774.345 -85724.999 56754.972 -85244.266 56696.979 -84766.645 56696.979 -84766.646 56600.74 -84295.241 56466.884 -83833.116 56296.275 -83383.256 56296.272 -83383.251 56296.27 -83383.244 56183.599 -83145.797 56090.02 -82948.583 55849.457 -82531.917 55849.454 -82531.913 55849.452 -82531.909 55761.359 -82404.285 55576.147 -82135.958 55271.861 -81763.276 54938.574 -81416.288 54578.447 -81097.243 54193.815 -80808.21 53787.173 -80551.065 53787.17 -80551.063 53787.169 -80551.063 53361.147 -80327.47 53033.872 -80188.031 52918.532 -80138.89 52918.529 -80138.889 52918.522 -80138.886 52736.997 -80078.284 52462.167 -79986.533 52462.164 -79986.532 51995.024 -79871.393 51520.13 -79794.215 51520.129 -79794.215 51040.565 -79755.5 51040.563 -79755.5 50559.437 -79755.5 50559.435 -79755.5 50079.871 -79794.215 50079.87 -79794.215 49604.976 -79871.393 49137.836 -79986.532 49137.833 -79986.533 48863.002 -80078.284 48681.478 -80138.886 48681.47 -80138.889 48681.468 -80138.89 48566.128 -80188.031 48238.853 -80327.47 47812.832 -80551.063 47812.831 -80551.063 47812.828 -80551.065 47406.185 -80808.21 47021.553 -81097.243 46661.426 -81416.288 46328.139 -81763.276 46023.853 -82135.958 45838.64 -82404.285 45750.548 -82531.909 45750.545 -82531.913 45750.543 -82531.917 45509.98 -82948.583 45416.4 -83145.797 45303.73 -83383.244 45303.727 -83383.251 45303.725 -83383.256 45133.116 -83833.116 44999.26 -84295.241 44903.021 -84766.646 44903.021 -84766.645 44845.028 -85244.266 44825.655 -85724.999 44825.655 -85725.001 43180.5 -85725.001 43180.5 -66675.001 44825.655 -66675.001 44845.028 -67155.734 44903.021 -67633.355 44903.021 -67633.354 44999.259 -68104.754 45133.116 -68566.884 45133.119 -68566.893 45303.73 -69016.756 45416.4 -69254.202 45509.98 -69451.417 45509.982 -69451.42 45750.548 -69868.091 45838.64 -69995.714 46023.853 -70264.042 46328.139 -70636.724 46328.142 -70636.727 46661.427 -70983.713 47021.553 -71302.757 47406.188 -71591.792 47812.83 -71848.937 47812.831 -71848.937 48238.853 -72072.53 48566.128 -72211.968 48681.468 -72261.11 48681.47 -72261.11 48681.478 -72261.114 48863.002 -72321.715 49137.833 -72413.467 49137.836 -72413.467 49137.836 -72413.468 49604.976 -72528.607 50079.87 -72605.785 50079.871 -72605.785 50559.435 -72644.5 50559.437 -72644.5 51040.565 -72644.5 51520.129 -72605.785 51520.13 -72605.785 51995.024 -72528.607 52462.164 -72413.468 52462.164 -72413.467 52462.167 -72413.467 52736.997 -72321.715 52918.522 -72261.114 52918.529 -72261.11 52918.532 -72261.11 53033.872 -72211.968 53361.147 -72072.53 53787.169 -71848.937 53787.17 -71848.937 54193.812 -71591.792 54578.447 -71302.757 54938.573 -70983.713 55271.858 -70636.727 55271.857 -70636.727 55271.861 -70636.724 55576.147 -70264.042 55761.359 -69995.714 55849.452 -69868.091 56090.018 -69451.42 56090.02 -69451.417 56183.599 -69254.202 56296.27 -69016.756 56466.881 -68566.893 56466.884 -68566.884 56600.741 -68104.754 56696.979 -67633.354 56696.979 -67633.355 56754.972 -67155.734 56774.345 -66675.001 121025.655 -66675.001 121045.028 -67155.734 121103.021 -67633.355 121103.021 -67633.354 121199.259 -68104.754 121333.116 -68566.884 121333.119 -68566.893 121503.73 -69016.756 121616.4 -69254.202 121709.98 -69451.417 121709.982 -69451.42 121950.548 -69868.091 122038.64 -69995.714 122223.853 -70264.042 122528.139 -70636.724 122528.142 -70636.727 122861.427 -70983.713 123221.553 -71302.757 123606.188 -71591.792 124012.83 -71848.937 124012.831 -71848.937 124438.853 -72072.53 124766.128 -72211.968 124881.468 -72261.11 124881.47 -72261.11 124881.478 -72261.114 125063.002 -72321.715 125337.833 -72413.467 125337.836 -72413.467 125337.836 -72413.468 125804.976 -72528.607 126279.87 -72605.785 126279.871 -72605.785 126759.435 -72644.5 126759.437 -72644.5 127240.565 -72644.5 127720.129 -72605.785 127720.13 -72605.785 128195.024 -72528.607 128662.164 -72413.468 128662.164 -72413.467 128662.167 -72413.467 128936.997 -72321.715 129118.522 -72261.114 129118.529 -72261.11 129118.532 -72261.11 129233.872 -72211.968 129561.147 -72072.53 129987.169 -71848.937 129987.17 -71848.937 130393.812 -71591.792 130778.447 -71302.757 131138.573 -70983.713 131471.858 -70636.727 131471.857 -70636.727 131471.861 -70636.724 131776.147 -70264.042 131961.359 -69995.714 132049.452 -69868.091 132290.018 -69451.42 132290.02 -69451.417 132383.599 -69254.202 132496.27 -69016.756 132666.881 -68566.893 132666.884 -68566.884 132800.741 -68104.754 132896.979 -67633.354 132896.979 -67633.355 132954.972 -67155.734 132974.345 -66675.001 132974.345 -66674.999 132954.972 -66194.266 132896.979 -65716.645 132896.979 -65716.646 132800.74 -65245.241 132666.884 -64783.116 132496.275 -64333.256 132496.272 -64333.251 132496.27 -64333.244 132383.599 -64095.797 132290.02 -63898.583 132049.457 -63481.917 132049.454 -63481.913 132049.452 -63481.909 131961.359 -63354.285 131776.147 -63085.958 131471.861 -62713.276 131138.574 -62366.288 130778.447 -62047.243 130393.815 -61758.21 129987.173 -61501.065 129987.17 -61501.063 129987.169 -61501.063 129561.147 -61277.47 129233.872 -61138.031 129118.532 -61088.89 129118.529 -61088.889 129118.522 -61088.886 128936.997 -61028.284 128662.167 -60936.533 128662.164 -60936.532 128195.024 -60821.393 127720.13 -60744.215 127720.129 -60744.215 127240.565 -60705.5 127240.563 -60705.5 126759.437 -60705.5 126759.435 -60705.5 126279.871 -60744.215 126279.87 -60744.215 125804.976 -60821.393 125337.836 -60936.532 125337.833 -60936.533 125063.002 -61028.284 124881.478 -61088.886 124881.47 -61088.889 124881.468 -61088.89 124766.128 -61138.031 124438.853 -61277.47 124012.832 -61501.063 124012.831 -61501.063 124012.828 -61501.065 123606.185 -61758.21 123221.553 -62047.243 122861.426 -62366.288 122528.139 -62713.276 122223.853 -63085.958 122038.64 -63354.285 121950.548 -63481.909 121950.545 -63481.913 121950.543 -63481.917 121709.98 -63898.583 121616.4 -64095.797 121503.73 -64333.244 121503.727 -64333.251 121503.725 -64333.256 121333.116 -64783.116 121199.26 -65245.241 121103.021 -65716.646 121103.021 -65716.645 121045.028 -66194.266 121025.655 -66674.999 121025.655 -66675.001 56774.345 -66675.001 56774.345 -66674.999 56754.972 -66194.266 56696.979 -65716.645 56696.979 -65716.646 56600.74 -65245.241 56466.884 -64783.116 56296.275 -64333.256 56296.272 -64333.251 56296.27 -64333.244 56183.599 -64095.797 56090.02 -63898.583 55849.457 -63481.917 55849.454 -63481.913 55849.452 -63481.909 55761.359 -63354.285 55576.147 -63085.958 55271.861 -62713.276 54938.574 -62366.288 54578.447 -62047.243 54193.815 -61758.21 53787.173 -61501.065 53787.17 -61501.063 53787.169 -61501.063 53361.147 -61277.47 53033.872 -61138.031 52918.532 -61088.89 52918.529 -61088.889 52918.522 -61088.886 52736.997 -61028.284 52462.167 -60936.533 52462.164 -60936.532 51995.024 -60821.393 51520.13 -60744.215 51520.129 -60744.215 51040.565 -60705.5 51040.563 -60705.5 50559.437 -60705.5 50559.435 -60705.5 50079.871 -60744.215 50079.87 -60744.215 49604.976 -60821.393 49137.836 -60936.532 49137.833 -60936.533 48863.002 -61028.284 48681.478 -61088.886 48681.47 -61088.889 48681.468 -61088.89 48566.128 -61138.031 48238.853 -61277.47 47812.832 -61501.063 47812.831 -61501.063 47812.828 -61501.065 47406.185 -61758.21 47021.553 -62047.243 46661.426 -62366.288 46328.139 -62713.276 46023.853 -63085.958 45838.64 -63354.285 45750.548 -63481.909 45750.545 -63481.913 45750.543 -63481.917 45509.98 -63898.583 45416.4 -64095.797 45303.73 -64333.244 45303.727 -64333.251 45303.725 -64333.256 45133.116 -64783.116 44999.26 -65245.241 44903.021 -65716.646 44903.021 -65716.645 44845.028 -66194.266 44825.655 -66674.999 44825.655 -66675.001 43180.5 -66675.001 43180.5 -50867.763 48945.787 -50867.763 48975.413 -51137.013 48975.415 -51137.024 49043.926 -51399.082 49043.928 -51399.088 49149.87 -51648.39 49221.998 -51766.575 49290.979 -51879.605 49290.986 -51879.615 49464.253 -52087.819 49464.259 -52087.824 49665.998 -52268.582 49891.91 -52418.044 50137.176 -52533.02 50137.183 -52533.022 50137.185 -52533.023 50396.557 -52611.057 50396.564 -52611.058 50396.569 -52611.06 50664.561 -52650.5 50664.566 -52650.5 50867.636 -52650.5 50919.133 -52646.73 51070.156 -52635.677 51182.758 -52610.593 51334.546 -52576.782 51334.548 -52576.781 51334.553 -52576.78 51587.558 -52480.014 51823.777 -52347.441 52038.177 -52181.888 52226.186 -51986.881 52383.799 -51766.579 52457.787 -51622.669 52507.649 -51525.69 52507.651 -51525.684 52507.656 -51525.675 52595.118 -51269.305 52644.319 -51002.933 52649.259 -50867.763 125145.787 -50867.763 125175.413 -51137.013 125175.415 -51137.024 125243.926 -51399.082 125243.928 -51399.088 125349.87 -51648.39 125421.998 -51766.575 125490.979 -51879.605 125490.986 -51879.615 125664.253 -52087.819 125664.259 -52087.824 125865.998 -52268.582 126091.91 -52418.044 126337.176 -52533.02 126337.183 -52533.022 126337.185 -52533.023 126596.557 -52611.057 126596.564 -52611.058 126596.569 -52611.06 126864.561 -52650.5 126864.566 -52650.5 127067.636 -52650.5 127119.133 -52646.73 127270.156 -52635.677 127382.758 -52610.593 127534.546 -52576.782 127534.548 -52576.781 127534.553 -52576.78 127787.558 -52480.014 128023.777 -52347.441 128238.177 -52181.888 128426.186 -51986.881 128583.799 -51766.579 128657.787 -51622.669 128707.649 -51525.69 128707.651 -51525.684 128707.656 -51525.675 128795.118 -51269.305 128844.319 -51002.933 128854.212 -50732.235 128824.586 -50462.982 128756.072 -50200.912 128650.13 -49951.61 128509.018 -49720.39 128419.747 -49613.119 128335.746 -49512.18 128335.74 -49512.175 128134.002 -49331.418 127908.092 -49181.957 127908.09 -49181.956 127662.824 -49066.98 127662.819 -49066.978 127662.814 -49066.976 127403.442 -48988.942 127403.428 -48988.939 127287.791 -48971.921 127135.439 -48949.5 126932.369 -48949.5 126932.364 -48949.5 126729.844 -48964.323 126729.831 -48964.325 126465.453 -49023.217 126465.446 -49023.22 126212.439 -49119.987 125976.226 -49252.557 125761.822 -49418.112 125573.822 -49613.109 125573.816 -49613.116 125416.202 -49833.419 125416.199 -49833.424 125292.35 -50074.309 125292.343 -50074.327 125204.884 -50330.685 125204.881 -50330.699 125155.681 -50597.068 125155.68 -50597.075 125145.787 -50867.763 52649.259 -50867.763 52654.212 -50732.235 52624.586 -50462.982 52556.072 -50200.912 52450.13 -49951.61 52309.018 -49720.39 52219.747 -49613.119 52135.746 -49512.18 52135.74 -49512.175 51934.002 -49331.418 51708.092 -49181.957 51708.09 -49181.956 51462.824 -49066.98 51462.819 -49066.978 51462.814 -49066.976 51203.442 -48988.942 51203.428 -48988.939 51087.791 -48971.921 50935.439 -48949.5 50732.369 -48949.5 50732.364 -48949.5 50529.844 -48964.323 50529.831 -48964.325 50265.453 -49023.217 50265.446 -49023.22 50012.439 -49119.987 49776.226 -49252.557 49561.822 -49418.112 49373.822 -49613.109 49373.816 -49613.116 49216.202 -49833.419 49216.199 -49833.424 49092.35 -50074.309 49092.343 -50074.327 49004.884 -50330.685 49004.881 -50330.699 48955.681 -50597.068 48955.68 -50597.075 48945.787 -50867.763 43180.5 -50867.763 43180.5 -50800 43191.498 -50478.044 43198.662 -50277.475 43198.941 -50273.423 43228.583 -49985.081 43254.047 -49748.242 43254.588 -49744.38 43258.724 -49720.394 43302.6 -49465.918 43346.212 -49224.199 43346.96 -49220.667 43413.151 -48949.05 43474.694 -48707.93 43475.641 -48704.617 43559.725 -48439.689 43638.874 -48201.885 43639.999 -48198.793 43717.306 -48002.757 43741.592 -47941.168 43837.939 -47708.568 43839.188 -47705.759 43957.879 -47456.187 44070.907 -47230.387 44072.272 -47227.815 44207.53 -46987.259 44336.662 -46769.619 44338.101 -46767.313 44489.345 -46536.724 44634.588 -46327.534 44801.919 -46106.875 44961.84 -45908.424 45143.758 -45699.792 45317.483 -45513.197 45513.197 -45317.483 45699.784 -45143.765 45908.424 -44961.84 46106.875 -44801.919 46327.534 -44634.588 46536.724 -44489.345 46767.313 -44338.101 46769.619 -44336.662 46987.232 -44207.545 47227.815 -44072.272 47230.387 -44070.907 47456.167 -43957.889 47705.759 -43839.188 47708.568 -43837.939 47941.162 -43741.595 48198.808 -43639.993 48201.885 -43638.874 48439.689 -43559.725 48704.617 -43475.641 48707.93 -43474.694 48949.035 -43413.155 49220.667 -43346.96 49224.199 -43346.212 49465.918 -43302.6 49744.393 -43254.586 49748.242 -43254.047 49985.08 -43228.584 50273.423 -43198.941 50277.475 -43198.662 50477.678 -43191.51 50800 -43180.5 50800.5 -43180.5 126999.5 -43180.5 127000 -43180.5 127322.14 -43191.504"/></g><g id="kOPADjvq6iYJ_bottom_soldermask"><use xlink:href="#xvEZx_FFW8X0_pad-10" x="127000" y="-101600"/><use xlink:href="#xvEZx_FFW8X0_pad-11" x="69850" y="-50800"/><use xlink:href="#xvEZx_FFW8X0_pad-10" x="50800" y="-101600"/><use xlink:href="#xvEZx_FFW8X0_pad-10" x="50800" y="-50800"/><use xlink:href="#xvEZx_FFW8X0_pad-11" x="88900" y="-101600"/><use xlink:href="#xvEZx_FFW8X0_pad-11" x="50800" y="-66675"/><use xlink:href="#xvEZx_FFW8X0_pad-11" x="69850" y="-101600"/><use xlink:href="#xvEZx_FFW8X0_pad-11" x="127000" y="-85725"/><use xlink:href="#xvEZx_FFW8X0_pad-11" x="107950" y="-101600"/><use xlink:href="#xvEZx_FFW8X0_pad-10" x="127000" y="-50800"/><use xlink:href="#xvEZx_FFW8X0_pad-11" x="50800" y="-85725"/><use xlink:href="#xvEZx_FFW8X0_pad-11" x="127000" y="-66675"/></g><g id="kOPADjvq6iYJ_bottom_drill1" transform="scale(25.4,25.4)"><use xlink:href="#t2iq8n6KAuKx_pad-1" x="2000" y="-2000"/><use xlink:href="#t2iq8n6KAuKx_pad-1" x="2000" y="-4000"/><use xlink:href="#t2iq8n6KAuKx_pad-1" x="5000" y="-2000"/><use xlink:href="#t2iq8n6KAuKx_pad-1" x="5000" y="-4000"/></g><g id="kOPADjvq6iYJ_bottom_drill2" transform="scale(25.4,25.4)"><use xlink:href="#LDhWg3ZusWoI_pad-1" x="2000" y="-2625"/><use xlink:href="#LDhWg3ZusWoI_pad-1" x="2000" y="-3375"/><use xlink:href="#LDhWg3ZusWoI_pad-1" x="2750" y="-2000"/><use xlink:href="#LDhWg3ZusWoI_pad-1" x="2750" y="-4000"/><use xlink:href="#LDhWg3ZusWoI_pad-1" x="3500" y="-4000"/><use xlink:href="#LDhWg3ZusWoI_pad-1" x="4250" y="-4000"/><use xlink:href="#LDhWg3ZusWoI_pad-1" x="5000" y="-2625"/><use xlink:href="#LDhWg3ZusWoI_pad-1" x="5000" y="-3375"/></g><clipPath id="kOPADjvq6iYJ_bottom_outline"><path d="M 50800 -43180 127000 -43180 A 7620 7620 0 0 0 134620 -50800 L 134620 -101600 A 7620 7620 0 0 0 127000 -109220 L 50800 -109220 A 7620 7620 0 0 0 43180 -101600 L 43180 -50800 A 7620 7620 0 0 0 50800 -43180" fill="none" stroke-width="100"/></clipPath><mask id="kOPADjvq6iYJ_bottom_mech-mask"><g fill="#000" stroke="#000"><rect x="43180" y="-109220" width="91440" height="66040" fill="#fff"/><use xlink:href="#kOPADjvq6iYJ_bottom_drill1"/><use xlink:href="#kOPADjvq6iYJ_bottom_drill2"/></g></mask><mask id="kOPADjvq6iYJ_bottom_cf-mask"><g fill="#fff" stroke="#fff"><use xlink:href="#kOPADjvq6iYJ_bottom_soldermask"/></g></mask><mask id="kOPADjvq6iYJ_bottom_sm-mask"><g fill="#000" stroke="#000"><rect x="43180" y="-109220" width="91440" height="66040" fill="#fff"/><use xlink:href="#kOPADjvq6iYJ_bottom_soldermask"/></g></mask></defs><g transform="translate(0,-152400) scale(1,-1)"><g mask="url(#kOPADjvq6iYJ_bottom_mech-mask)" clip-path="url(#kOPADjvq6iYJ_bottom_outline)" transform="translate(177800,0) scale(-1,1)"><rect x="43180" y="-109220" width="91440" height="66040" fill="currentColor" class="kOPADjvq6iYJ_fr4"/><use xlink:href="#kOPADjvq6iYJ_bottom_copper" fill="currentColor" stroke="currentColor" class="kOPADjvq6iYJ_cu"/><use xlink:href="#kOPADjvq6iYJ_bottom_copper" fill="currentColor" stroke="currentColor" class="kOPADjvq6iYJ_cf" mask="url(#kOPADjvq6iYJ_bottom_cf-mask)"/><g mask="url(#kOPADjvq6iYJ_bottom_sm-mask)"><rect x="43180" y="-109220" width="91440" height="66040" fill="currentColor" class="kOPADjvq6iYJ_sm"/></g></g></g></svg>