%TF.GenerationSoftware,KiCad,Pcbnew,7.0.9*%
%TF.CreationDate,2023-11-14T16:07:15-06:00*%
%TF.ProjectId,to263-prototype,746f3236-332d-4707-926f-746f74797065,rev?*%
%TF.SameCoordinates,Original*%
%TF.FileFunction,Legend,Top*%
%TF.FilePolarity,Positive*%
%FSLAX46Y46*%
G04 Gerber Fmt 4.6, Leading zero omitted, Abs format (unit mm)*
G04 Created by KiCad (PCBNEW 7.0.9) date 2023-11-14 16:07:15*
%MOMM*%
%LPD*%
G01*
G04 APERTURE LIST*
%ADD10C,0.300000*%
%ADD11C,0.150000*%
%ADD12C,0.120000*%
G04 APERTURE END LIST*
D10*
X90242855Y-49063328D02*
X90242855Y-47563328D01*
X90885713Y-49063328D02*
X90885713Y-48277614D01*
X90885713Y-48277614D02*
X90814284Y-48134757D01*
X90814284Y-48134757D02*
X90671427Y-48063328D01*
X90671427Y-48063328D02*
X90457141Y-48063328D01*
X90457141Y-48063328D02*
X90314284Y-48134757D01*
X90314284Y-48134757D02*
X90242855Y-48206185D01*
X91385713Y-48063328D02*
X91957141Y-48063328D01*
X91599998Y-47563328D02*
X91599998Y-48849042D01*
X91599998Y-48849042D02*
X91671427Y-48991900D01*
X91671427Y-48991900D02*
X91814284Y-49063328D01*
X91814284Y-49063328D02*
X91957141Y-49063328D01*
X92242856Y-48063328D02*
X92814284Y-48063328D01*
X92457141Y-47563328D02*
X92457141Y-48849042D01*
X92457141Y-48849042D02*
X92528570Y-48991900D01*
X92528570Y-48991900D02*
X92671427Y-49063328D01*
X92671427Y-49063328D02*
X92814284Y-49063328D01*
X93314284Y-48063328D02*
X93314284Y-49563328D01*
X93314284Y-48134757D02*
X93457142Y-48063328D01*
X93457142Y-48063328D02*
X93742856Y-48063328D01*
X93742856Y-48063328D02*
X93885713Y-48134757D01*
X93885713Y-48134757D02*
X93957142Y-48206185D01*
X93957142Y-48206185D02*
X94028570Y-48349042D01*
X94028570Y-48349042D02*
X94028570Y-48777614D01*
X94028570Y-48777614D02*
X93957142Y-48920471D01*
X93957142Y-48920471D02*
X93885713Y-48991900D01*
X93885713Y-48991900D02*
X93742856Y-49063328D01*
X93742856Y-49063328D02*
X93457142Y-49063328D01*
X93457142Y-49063328D02*
X93314284Y-48991900D01*
X94599999Y-48991900D02*
X94742856Y-49063328D01*
X94742856Y-49063328D02*
X95028570Y-49063328D01*
X95028570Y-49063328D02*
X95171427Y-48991900D01*
X95171427Y-48991900D02*
X95242856Y-48849042D01*
X95242856Y-48849042D02*
X95242856Y-48777614D01*
X95242856Y-48777614D02*
X95171427Y-48634757D01*
X95171427Y-48634757D02*
X95028570Y-48563328D01*
X95028570Y-48563328D02*
X94814285Y-48563328D01*
X94814285Y-48563328D02*
X94671427Y-48491900D01*
X94671427Y-48491900D02*
X94599999Y-48349042D01*
X94599999Y-48349042D02*
X94599999Y-48277614D01*
X94599999Y-48277614D02*
X94671427Y-48134757D01*
X94671427Y-48134757D02*
X94814285Y-48063328D01*
X94814285Y-48063328D02*
X95028570Y-48063328D01*
X95028570Y-48063328D02*
X95171427Y-48134757D01*
X95885713Y-48920471D02*
X95957142Y-48991900D01*
X95957142Y-48991900D02*
X95885713Y-49063328D01*
X95885713Y-49063328D02*
X95814285Y-48991900D01*
X95814285Y-48991900D02*
X95885713Y-48920471D01*
X95885713Y-48920471D02*
X95885713Y-49063328D01*
X95885713Y-48134757D02*
X95957142Y-48206185D01*
X95957142Y-48206185D02*
X95885713Y-48277614D01*
X95885713Y-48277614D02*
X95814285Y-48206185D01*
X95814285Y-48206185D02*
X95885713Y-48134757D01*
X95885713Y-48134757D02*
X95885713Y-48277614D01*
X97671428Y-47491900D02*
X96385714Y-49420471D01*
X99242857Y-47491900D02*
X97957143Y-49420471D01*
X100385715Y-48063328D02*
X100385715Y-49277614D01*
X100385715Y-49277614D02*
X100314286Y-49420471D01*
X100314286Y-49420471D02*
X100242857Y-49491900D01*
X100242857Y-49491900D02*
X100100000Y-49563328D01*
X100100000Y-49563328D02*
X99885715Y-49563328D01*
X99885715Y-49563328D02*
X99742857Y-49491900D01*
X100385715Y-48991900D02*
X100242857Y-49063328D01*
X100242857Y-49063328D02*
X99957143Y-49063328D01*
X99957143Y-49063328D02*
X99814286Y-48991900D01*
X99814286Y-48991900D02*
X99742857Y-48920471D01*
X99742857Y-48920471D02*
X99671429Y-48777614D01*
X99671429Y-48777614D02*
X99671429Y-48349042D01*
X99671429Y-48349042D02*
X99742857Y-48206185D01*
X99742857Y-48206185D02*
X99814286Y-48134757D01*
X99814286Y-48134757D02*
X99957143Y-48063328D01*
X99957143Y-48063328D02*
X100242857Y-48063328D01*
X100242857Y-48063328D02*
X100385715Y-48134757D01*
X101100000Y-49063328D02*
X101100000Y-48063328D01*
X101100000Y-47563328D02*
X101028572Y-47634757D01*
X101028572Y-47634757D02*
X101100000Y-47706185D01*
X101100000Y-47706185D02*
X101171429Y-47634757D01*
X101171429Y-47634757D02*
X101100000Y-47563328D01*
X101100000Y-47563328D02*
X101100000Y-47706185D01*
X101600001Y-48063328D02*
X102171429Y-48063328D01*
X101814286Y-47563328D02*
X101814286Y-48849042D01*
X101814286Y-48849042D02*
X101885715Y-48991900D01*
X101885715Y-48991900D02*
X102028572Y-49063328D01*
X102028572Y-49063328D02*
X102171429Y-49063328D01*
X102671429Y-49063328D02*
X102671429Y-47563328D01*
X103314287Y-49063328D02*
X103314287Y-48277614D01*
X103314287Y-48277614D02*
X103242858Y-48134757D01*
X103242858Y-48134757D02*
X103100001Y-48063328D01*
X103100001Y-48063328D02*
X102885715Y-48063328D01*
X102885715Y-48063328D02*
X102742858Y-48134757D01*
X102742858Y-48134757D02*
X102671429Y-48206185D01*
X104671430Y-48063328D02*
X104671430Y-49063328D01*
X104028572Y-48063328D02*
X104028572Y-48849042D01*
X104028572Y-48849042D02*
X104100001Y-48991900D01*
X104100001Y-48991900D02*
X104242858Y-49063328D01*
X104242858Y-49063328D02*
X104457144Y-49063328D01*
X104457144Y-49063328D02*
X104600001Y-48991900D01*
X104600001Y-48991900D02*
X104671430Y-48920471D01*
X105385715Y-49063328D02*
X105385715Y-47563328D01*
X105385715Y-48134757D02*
X105528573Y-48063328D01*
X105528573Y-48063328D02*
X105814287Y-48063328D01*
X105814287Y-48063328D02*
X105957144Y-48134757D01*
X105957144Y-48134757D02*
X106028573Y-48206185D01*
X106028573Y-48206185D02*
X106100001Y-48349042D01*
X106100001Y-48349042D02*
X106100001Y-48777614D01*
X106100001Y-48777614D02*
X106028573Y-48920471D01*
X106028573Y-48920471D02*
X105957144Y-48991900D01*
X105957144Y-48991900D02*
X105814287Y-49063328D01*
X105814287Y-49063328D02*
X105528573Y-49063328D01*
X105528573Y-49063328D02*
X105385715Y-48991900D01*
X106742858Y-48920471D02*
X106814287Y-48991900D01*
X106814287Y-48991900D02*
X106742858Y-49063328D01*
X106742858Y-49063328D02*
X106671430Y-48991900D01*
X106671430Y-48991900D02*
X106742858Y-48920471D01*
X106742858Y-48920471D02*
X106742858Y-49063328D01*
X108100002Y-48991900D02*
X107957144Y-49063328D01*
X107957144Y-49063328D02*
X107671430Y-49063328D01*
X107671430Y-49063328D02*
X107528573Y-48991900D01*
X107528573Y-48991900D02*
X107457144Y-48920471D01*
X107457144Y-48920471D02*
X107385716Y-48777614D01*
X107385716Y-48777614D02*
X107385716Y-48349042D01*
X107385716Y-48349042D02*
X107457144Y-48206185D01*
X107457144Y-48206185D02*
X107528573Y-48134757D01*
X107528573Y-48134757D02*
X107671430Y-48063328D01*
X107671430Y-48063328D02*
X107957144Y-48063328D01*
X107957144Y-48063328D02*
X108100002Y-48134757D01*
X108957144Y-49063328D02*
X108814287Y-48991900D01*
X108814287Y-48991900D02*
X108742858Y-48920471D01*
X108742858Y-48920471D02*
X108671430Y-48777614D01*
X108671430Y-48777614D02*
X108671430Y-48349042D01*
X108671430Y-48349042D02*
X108742858Y-48206185D01*
X108742858Y-48206185D02*
X108814287Y-48134757D01*
X108814287Y-48134757D02*
X108957144Y-48063328D01*
X108957144Y-48063328D02*
X109171430Y-48063328D01*
X109171430Y-48063328D02*
X109314287Y-48134757D01*
X109314287Y-48134757D02*
X109385716Y-48206185D01*
X109385716Y-48206185D02*
X109457144Y-48349042D01*
X109457144Y-48349042D02*
X109457144Y-48777614D01*
X109457144Y-48777614D02*
X109385716Y-48920471D01*
X109385716Y-48920471D02*
X109314287Y-48991900D01*
X109314287Y-48991900D02*
X109171430Y-49063328D01*
X109171430Y-49063328D02*
X108957144Y-49063328D01*
X110100001Y-49063328D02*
X110100001Y-48063328D01*
X110100001Y-48206185D02*
X110171430Y-48134757D01*
X110171430Y-48134757D02*
X110314287Y-48063328D01*
X110314287Y-48063328D02*
X110528573Y-48063328D01*
X110528573Y-48063328D02*
X110671430Y-48134757D01*
X110671430Y-48134757D02*
X110742859Y-48277614D01*
X110742859Y-48277614D02*
X110742859Y-49063328D01*
X110742859Y-48277614D02*
X110814287Y-48134757D01*
X110814287Y-48134757D02*
X110957144Y-48063328D01*
X110957144Y-48063328D02*
X111171430Y-48063328D01*
X111171430Y-48063328D02*
X111314287Y-48134757D01*
X111314287Y-48134757D02*
X111385716Y-48277614D01*
X111385716Y-48277614D02*
X111385716Y-49063328D01*
X113171430Y-47491900D02*
X111885716Y-49420471D01*
X86671427Y-50478328D02*
X86671427Y-51478328D01*
X86028569Y-50478328D02*
X86028569Y-51264042D01*
X86028569Y-51264042D02*
X86099998Y-51406900D01*
X86099998Y-51406900D02*
X86242855Y-51478328D01*
X86242855Y-51478328D02*
X86457141Y-51478328D01*
X86457141Y-51478328D02*
X86599998Y-51406900D01*
X86599998Y-51406900D02*
X86671427Y-51335471D01*
X87242855Y-50478328D02*
X87528570Y-51478328D01*
X87528570Y-51478328D02*
X87814284Y-50764042D01*
X87814284Y-50764042D02*
X88099998Y-51478328D01*
X88099998Y-51478328D02*
X88385712Y-50478328D01*
X88957141Y-50906900D02*
X90099999Y-50906900D01*
X90814284Y-51478328D02*
X90814284Y-50478328D01*
X90814284Y-50621185D02*
X90885713Y-50549757D01*
X90885713Y-50549757D02*
X91028570Y-50478328D01*
X91028570Y-50478328D02*
X91242856Y-50478328D01*
X91242856Y-50478328D02*
X91385713Y-50549757D01*
X91385713Y-50549757D02*
X91457142Y-50692614D01*
X91457142Y-50692614D02*
X91457142Y-51478328D01*
X91457142Y-50692614D02*
X91528570Y-50549757D01*
X91528570Y-50549757D02*
X91671427Y-50478328D01*
X91671427Y-50478328D02*
X91885713Y-50478328D01*
X91885713Y-50478328D02*
X92028570Y-50549757D01*
X92028570Y-50549757D02*
X92099999Y-50692614D01*
X92099999Y-50692614D02*
X92099999Y-51478328D01*
X93457142Y-51478328D02*
X93457142Y-50692614D01*
X93457142Y-50692614D02*
X93385713Y-50549757D01*
X93385713Y-50549757D02*
X93242856Y-50478328D01*
X93242856Y-50478328D02*
X92957142Y-50478328D01*
X92957142Y-50478328D02*
X92814284Y-50549757D01*
X93457142Y-51406900D02*
X93314284Y-51478328D01*
X93314284Y-51478328D02*
X92957142Y-51478328D01*
X92957142Y-51478328D02*
X92814284Y-51406900D01*
X92814284Y-51406900D02*
X92742856Y-51264042D01*
X92742856Y-51264042D02*
X92742856Y-51121185D01*
X92742856Y-51121185D02*
X92814284Y-50978328D01*
X92814284Y-50978328D02*
X92957142Y-50906900D01*
X92957142Y-50906900D02*
X93314284Y-50906900D01*
X93314284Y-50906900D02*
X93457142Y-50835471D01*
X94814285Y-51478328D02*
X94814285Y-49978328D01*
X94814285Y-51406900D02*
X94671427Y-51478328D01*
X94671427Y-51478328D02*
X94385713Y-51478328D01*
X94385713Y-51478328D02*
X94242856Y-51406900D01*
X94242856Y-51406900D02*
X94171427Y-51335471D01*
X94171427Y-51335471D02*
X94099999Y-51192614D01*
X94099999Y-51192614D02*
X94099999Y-50764042D01*
X94099999Y-50764042D02*
X94171427Y-50621185D01*
X94171427Y-50621185D02*
X94242856Y-50549757D01*
X94242856Y-50549757D02*
X94385713Y-50478328D01*
X94385713Y-50478328D02*
X94671427Y-50478328D01*
X94671427Y-50478328D02*
X94814285Y-50549757D01*
X95528570Y-51478328D02*
X95528570Y-50478328D01*
X95528570Y-49978328D02*
X95457142Y-50049757D01*
X95457142Y-50049757D02*
X95528570Y-50121185D01*
X95528570Y-50121185D02*
X95599999Y-50049757D01*
X95599999Y-50049757D02*
X95528570Y-49978328D01*
X95528570Y-49978328D02*
X95528570Y-50121185D01*
X96171428Y-51406900D02*
X96314285Y-51478328D01*
X96314285Y-51478328D02*
X96599999Y-51478328D01*
X96599999Y-51478328D02*
X96742856Y-51406900D01*
X96742856Y-51406900D02*
X96814285Y-51264042D01*
X96814285Y-51264042D02*
X96814285Y-51192614D01*
X96814285Y-51192614D02*
X96742856Y-51049757D01*
X96742856Y-51049757D02*
X96599999Y-50978328D01*
X96599999Y-50978328D02*
X96385714Y-50978328D01*
X96385714Y-50978328D02*
X96242856Y-50906900D01*
X96242856Y-50906900D02*
X96171428Y-50764042D01*
X96171428Y-50764042D02*
X96171428Y-50692614D01*
X96171428Y-50692614D02*
X96242856Y-50549757D01*
X96242856Y-50549757D02*
X96385714Y-50478328D01*
X96385714Y-50478328D02*
X96599999Y-50478328D01*
X96599999Y-50478328D02*
X96742856Y-50549757D01*
X97671428Y-51478328D02*
X97528571Y-51406900D01*
X97528571Y-51406900D02*
X97457142Y-51335471D01*
X97457142Y-51335471D02*
X97385714Y-51192614D01*
X97385714Y-51192614D02*
X97385714Y-50764042D01*
X97385714Y-50764042D02*
X97457142Y-50621185D01*
X97457142Y-50621185D02*
X97528571Y-50549757D01*
X97528571Y-50549757D02*
X97671428Y-50478328D01*
X97671428Y-50478328D02*
X97885714Y-50478328D01*
X97885714Y-50478328D02*
X98028571Y-50549757D01*
X98028571Y-50549757D02*
X98100000Y-50621185D01*
X98100000Y-50621185D02*
X98171428Y-50764042D01*
X98171428Y-50764042D02*
X98171428Y-51192614D01*
X98171428Y-51192614D02*
X98100000Y-51335471D01*
X98100000Y-51335471D02*
X98028571Y-51406900D01*
X98028571Y-51406900D02*
X97885714Y-51478328D01*
X97885714Y-51478328D02*
X97671428Y-51478328D01*
X98814285Y-50478328D02*
X98814285Y-51478328D01*
X98814285Y-50621185D02*
X98885714Y-50549757D01*
X98885714Y-50549757D02*
X99028571Y-50478328D01*
X99028571Y-50478328D02*
X99242857Y-50478328D01*
X99242857Y-50478328D02*
X99385714Y-50549757D01*
X99385714Y-50549757D02*
X99457143Y-50692614D01*
X99457143Y-50692614D02*
X99457143Y-51478328D01*
X100171428Y-50906900D02*
X101314286Y-50906900D01*
X102671429Y-51406900D02*
X102528571Y-51478328D01*
X102528571Y-51478328D02*
X102242857Y-51478328D01*
X102242857Y-51478328D02*
X102100000Y-51406900D01*
X102100000Y-51406900D02*
X102028571Y-51335471D01*
X102028571Y-51335471D02*
X101957143Y-51192614D01*
X101957143Y-51192614D02*
X101957143Y-50764042D01*
X101957143Y-50764042D02*
X102028571Y-50621185D01*
X102028571Y-50621185D02*
X102100000Y-50549757D01*
X102100000Y-50549757D02*
X102242857Y-50478328D01*
X102242857Y-50478328D02*
X102528571Y-50478328D01*
X102528571Y-50478328D02*
X102671429Y-50549757D01*
X103314285Y-51478328D02*
X103314285Y-49978328D01*
X103957143Y-51478328D02*
X103957143Y-50692614D01*
X103957143Y-50692614D02*
X103885714Y-50549757D01*
X103885714Y-50549757D02*
X103742857Y-50478328D01*
X103742857Y-50478328D02*
X103528571Y-50478328D01*
X103528571Y-50478328D02*
X103385714Y-50549757D01*
X103385714Y-50549757D02*
X103314285Y-50621185D01*
X105242857Y-51406900D02*
X105100000Y-51478328D01*
X105100000Y-51478328D02*
X104814286Y-51478328D01*
X104814286Y-51478328D02*
X104671428Y-51406900D01*
X104671428Y-51406900D02*
X104600000Y-51264042D01*
X104600000Y-51264042D02*
X104600000Y-50692614D01*
X104600000Y-50692614D02*
X104671428Y-50549757D01*
X104671428Y-50549757D02*
X104814286Y-50478328D01*
X104814286Y-50478328D02*
X105100000Y-50478328D01*
X105100000Y-50478328D02*
X105242857Y-50549757D01*
X105242857Y-50549757D02*
X105314286Y-50692614D01*
X105314286Y-50692614D02*
X105314286Y-50835471D01*
X105314286Y-50835471D02*
X104600000Y-50978328D01*
X105957142Y-51478328D02*
X105957142Y-50478328D01*
X105957142Y-50621185D02*
X106028571Y-50549757D01*
X106028571Y-50549757D02*
X106171428Y-50478328D01*
X106171428Y-50478328D02*
X106385714Y-50478328D01*
X106385714Y-50478328D02*
X106528571Y-50549757D01*
X106528571Y-50549757D02*
X106600000Y-50692614D01*
X106600000Y-50692614D02*
X106600000Y-51478328D01*
X106600000Y-50692614D02*
X106671428Y-50549757D01*
X106671428Y-50549757D02*
X106814285Y-50478328D01*
X106814285Y-50478328D02*
X107028571Y-50478328D01*
X107028571Y-50478328D02*
X107171428Y-50549757D01*
X107171428Y-50549757D02*
X107242857Y-50692614D01*
X107242857Y-50692614D02*
X107242857Y-51478328D01*
X107957142Y-50906900D02*
X109100000Y-50906900D01*
X109742857Y-51406900D02*
X109885714Y-51478328D01*
X109885714Y-51478328D02*
X110171428Y-51478328D01*
X110171428Y-51478328D02*
X110314285Y-51406900D01*
X110314285Y-51406900D02*
X110385714Y-51264042D01*
X110385714Y-51264042D02*
X110385714Y-51192614D01*
X110385714Y-51192614D02*
X110314285Y-51049757D01*
X110314285Y-51049757D02*
X110171428Y-50978328D01*
X110171428Y-50978328D02*
X109957143Y-50978328D01*
X109957143Y-50978328D02*
X109814285Y-50906900D01*
X109814285Y-50906900D02*
X109742857Y-50764042D01*
X109742857Y-50764042D02*
X109742857Y-50692614D01*
X109742857Y-50692614D02*
X109814285Y-50549757D01*
X109814285Y-50549757D02*
X109957143Y-50478328D01*
X109957143Y-50478328D02*
X110171428Y-50478328D01*
X110171428Y-50478328D02*
X110314285Y-50549757D01*
X111028571Y-51478328D02*
X111028571Y-49978328D01*
X111671429Y-51478328D02*
X111671429Y-50692614D01*
X111671429Y-50692614D02*
X111600000Y-50549757D01*
X111600000Y-50549757D02*
X111457143Y-50478328D01*
X111457143Y-50478328D02*
X111242857Y-50478328D01*
X111242857Y-50478328D02*
X111100000Y-50549757D01*
X111100000Y-50549757D02*
X111028571Y-50621185D01*
X112600000Y-51478328D02*
X112457143Y-51406900D01*
X112457143Y-51406900D02*
X112385714Y-51335471D01*
X112385714Y-51335471D02*
X112314286Y-51192614D01*
X112314286Y-51192614D02*
X112314286Y-50764042D01*
X112314286Y-50764042D02*
X112385714Y-50621185D01*
X112385714Y-50621185D02*
X112457143Y-50549757D01*
X112457143Y-50549757D02*
X112600000Y-50478328D01*
X112600000Y-50478328D02*
X112814286Y-50478328D01*
X112814286Y-50478328D02*
X112957143Y-50549757D01*
X112957143Y-50549757D02*
X113028572Y-50621185D01*
X113028572Y-50621185D02*
X113100000Y-50764042D01*
X113100000Y-50764042D02*
X113100000Y-51192614D01*
X113100000Y-51192614D02*
X113028572Y-51335471D01*
X113028572Y-51335471D02*
X112957143Y-51406900D01*
X112957143Y-51406900D02*
X112814286Y-51478328D01*
X112814286Y-51478328D02*
X112600000Y-51478328D01*
X113742857Y-50478328D02*
X113742857Y-51978328D01*
X113742857Y-50549757D02*
X113885715Y-50478328D01*
X113885715Y-50478328D02*
X114171429Y-50478328D01*
X114171429Y-50478328D02*
X114314286Y-50549757D01*
X114314286Y-50549757D02*
X114385715Y-50621185D01*
X114385715Y-50621185D02*
X114457143Y-50764042D01*
X114457143Y-50764042D02*
X114457143Y-51192614D01*
X114457143Y-51192614D02*
X114385715Y-51335471D01*
X114385715Y-51335471D02*
X114314286Y-51406900D01*
X114314286Y-51406900D02*
X114171429Y-51478328D01*
X114171429Y-51478328D02*
X113885715Y-51478328D01*
X113885715Y-51478328D02*
X113742857Y-51406900D01*
X115028572Y-51406900D02*
X115171429Y-51478328D01*
X115171429Y-51478328D02*
X115457143Y-51478328D01*
X115457143Y-51478328D02*
X115600000Y-51406900D01*
X115600000Y-51406900D02*
X115671429Y-51264042D01*
X115671429Y-51264042D02*
X115671429Y-51192614D01*
X115671429Y-51192614D02*
X115600000Y-51049757D01*
X115600000Y-51049757D02*
X115457143Y-50978328D01*
X115457143Y-50978328D02*
X115242858Y-50978328D01*
X115242858Y-50978328D02*
X115100000Y-50906900D01*
X115100000Y-50906900D02*
X115028572Y-50764042D01*
X115028572Y-50764042D02*
X115028572Y-50692614D01*
X115028572Y-50692614D02*
X115100000Y-50549757D01*
X115100000Y-50549757D02*
X115242858Y-50478328D01*
X115242858Y-50478328D02*
X115457143Y-50478328D01*
X115457143Y-50478328D02*
X115600000Y-50549757D01*
X117385715Y-49906900D02*
X116100001Y-51835471D01*
X92314286Y-52893328D02*
X92885714Y-52893328D01*
X92528571Y-52393328D02*
X92528571Y-53679042D01*
X92528571Y-53679042D02*
X92600000Y-53821900D01*
X92600000Y-53821900D02*
X92742857Y-53893328D01*
X92742857Y-53893328D02*
X92885714Y-53893328D01*
X93600000Y-53893328D02*
X93457143Y-53821900D01*
X93457143Y-53821900D02*
X93385714Y-53750471D01*
X93385714Y-53750471D02*
X93314286Y-53607614D01*
X93314286Y-53607614D02*
X93314286Y-53179042D01*
X93314286Y-53179042D02*
X93385714Y-53036185D01*
X93385714Y-53036185D02*
X93457143Y-52964757D01*
X93457143Y-52964757D02*
X93600000Y-52893328D01*
X93600000Y-52893328D02*
X93814286Y-52893328D01*
X93814286Y-52893328D02*
X93957143Y-52964757D01*
X93957143Y-52964757D02*
X94028572Y-53036185D01*
X94028572Y-53036185D02*
X94100000Y-53179042D01*
X94100000Y-53179042D02*
X94100000Y-53607614D01*
X94100000Y-53607614D02*
X94028572Y-53750471D01*
X94028572Y-53750471D02*
X93957143Y-53821900D01*
X93957143Y-53821900D02*
X93814286Y-53893328D01*
X93814286Y-53893328D02*
X93600000Y-53893328D01*
X94671429Y-52536185D02*
X94742857Y-52464757D01*
X94742857Y-52464757D02*
X94885715Y-52393328D01*
X94885715Y-52393328D02*
X95242857Y-52393328D01*
X95242857Y-52393328D02*
X95385715Y-52464757D01*
X95385715Y-52464757D02*
X95457143Y-52536185D01*
X95457143Y-52536185D02*
X95528572Y-52679042D01*
X95528572Y-52679042D02*
X95528572Y-52821900D01*
X95528572Y-52821900D02*
X95457143Y-53036185D01*
X95457143Y-53036185D02*
X94600000Y-53893328D01*
X94600000Y-53893328D02*
X95528572Y-53893328D01*
X96814286Y-52393328D02*
X96528571Y-52393328D01*
X96528571Y-52393328D02*
X96385714Y-52464757D01*
X96385714Y-52464757D02*
X96314286Y-52536185D01*
X96314286Y-52536185D02*
X96171428Y-52750471D01*
X96171428Y-52750471D02*
X96100000Y-53036185D01*
X96100000Y-53036185D02*
X96100000Y-53607614D01*
X96100000Y-53607614D02*
X96171428Y-53750471D01*
X96171428Y-53750471D02*
X96242857Y-53821900D01*
X96242857Y-53821900D02*
X96385714Y-53893328D01*
X96385714Y-53893328D02*
X96671428Y-53893328D01*
X96671428Y-53893328D02*
X96814286Y-53821900D01*
X96814286Y-53821900D02*
X96885714Y-53750471D01*
X96885714Y-53750471D02*
X96957143Y-53607614D01*
X96957143Y-53607614D02*
X96957143Y-53250471D01*
X96957143Y-53250471D02*
X96885714Y-53107614D01*
X96885714Y-53107614D02*
X96814286Y-53036185D01*
X96814286Y-53036185D02*
X96671428Y-52964757D01*
X96671428Y-52964757D02*
X96385714Y-52964757D01*
X96385714Y-52964757D02*
X96242857Y-53036185D01*
X96242857Y-53036185D02*
X96171428Y-53107614D01*
X96171428Y-53107614D02*
X96100000Y-53250471D01*
X97457142Y-52393328D02*
X98385714Y-52393328D01*
X98385714Y-52393328D02*
X97885714Y-52964757D01*
X97885714Y-52964757D02*
X98099999Y-52964757D01*
X98099999Y-52964757D02*
X98242857Y-53036185D01*
X98242857Y-53036185D02*
X98314285Y-53107614D01*
X98314285Y-53107614D02*
X98385714Y-53250471D01*
X98385714Y-53250471D02*
X98385714Y-53607614D01*
X98385714Y-53607614D02*
X98314285Y-53750471D01*
X98314285Y-53750471D02*
X98242857Y-53821900D01*
X98242857Y-53821900D02*
X98099999Y-53893328D01*
X98099999Y-53893328D02*
X97671428Y-53893328D01*
X97671428Y-53893328D02*
X97528571Y-53821900D01*
X97528571Y-53821900D02*
X97457142Y-53750471D01*
X99028570Y-53321900D02*
X100171428Y-53321900D01*
X100885713Y-52893328D02*
X100885713Y-54393328D01*
X100885713Y-52964757D02*
X101028571Y-52893328D01*
X101028571Y-52893328D02*
X101314285Y-52893328D01*
X101314285Y-52893328D02*
X101457142Y-52964757D01*
X101457142Y-52964757D02*
X101528571Y-53036185D01*
X101528571Y-53036185D02*
X101599999Y-53179042D01*
X101599999Y-53179042D02*
X101599999Y-53607614D01*
X101599999Y-53607614D02*
X101528571Y-53750471D01*
X101528571Y-53750471D02*
X101457142Y-53821900D01*
X101457142Y-53821900D02*
X101314285Y-53893328D01*
X101314285Y-53893328D02*
X101028571Y-53893328D01*
X101028571Y-53893328D02*
X100885713Y-53821900D01*
X102242856Y-53893328D02*
X102242856Y-52893328D01*
X102242856Y-53179042D02*
X102314285Y-53036185D01*
X102314285Y-53036185D02*
X102385714Y-52964757D01*
X102385714Y-52964757D02*
X102528571Y-52893328D01*
X102528571Y-52893328D02*
X102671428Y-52893328D01*
X103385713Y-53893328D02*
X103242856Y-53821900D01*
X103242856Y-53821900D02*
X103171427Y-53750471D01*
X103171427Y-53750471D02*
X103099999Y-53607614D01*
X103099999Y-53607614D02*
X103099999Y-53179042D01*
X103099999Y-53179042D02*
X103171427Y-53036185D01*
X103171427Y-53036185D02*
X103242856Y-52964757D01*
X103242856Y-52964757D02*
X103385713Y-52893328D01*
X103385713Y-52893328D02*
X103599999Y-52893328D01*
X103599999Y-52893328D02*
X103742856Y-52964757D01*
X103742856Y-52964757D02*
X103814285Y-53036185D01*
X103814285Y-53036185D02*
X103885713Y-53179042D01*
X103885713Y-53179042D02*
X103885713Y-53607614D01*
X103885713Y-53607614D02*
X103814285Y-53750471D01*
X103814285Y-53750471D02*
X103742856Y-53821900D01*
X103742856Y-53821900D02*
X103599999Y-53893328D01*
X103599999Y-53893328D02*
X103385713Y-53893328D01*
X104314285Y-52893328D02*
X104885713Y-52893328D01*
X104528570Y-52393328D02*
X104528570Y-53679042D01*
X104528570Y-53679042D02*
X104599999Y-53821900D01*
X104599999Y-53821900D02*
X104742856Y-53893328D01*
X104742856Y-53893328D02*
X104885713Y-53893328D01*
X105599999Y-53893328D02*
X105457142Y-53821900D01*
X105457142Y-53821900D02*
X105385713Y-53750471D01*
X105385713Y-53750471D02*
X105314285Y-53607614D01*
X105314285Y-53607614D02*
X105314285Y-53179042D01*
X105314285Y-53179042D02*
X105385713Y-53036185D01*
X105385713Y-53036185D02*
X105457142Y-52964757D01*
X105457142Y-52964757D02*
X105599999Y-52893328D01*
X105599999Y-52893328D02*
X105814285Y-52893328D01*
X105814285Y-52893328D02*
X105957142Y-52964757D01*
X105957142Y-52964757D02*
X106028571Y-53036185D01*
X106028571Y-53036185D02*
X106099999Y-53179042D01*
X106099999Y-53179042D02*
X106099999Y-53607614D01*
X106099999Y-53607614D02*
X106028571Y-53750471D01*
X106028571Y-53750471D02*
X105957142Y-53821900D01*
X105957142Y-53821900D02*
X105814285Y-53893328D01*
X105814285Y-53893328D02*
X105599999Y-53893328D01*
X106528571Y-52893328D02*
X107099999Y-52893328D01*
X106742856Y-52393328D02*
X106742856Y-53679042D01*
X106742856Y-53679042D02*
X106814285Y-53821900D01*
X106814285Y-53821900D02*
X106957142Y-53893328D01*
X106957142Y-53893328D02*
X107099999Y-53893328D01*
X107457142Y-52893328D02*
X107814285Y-53893328D01*
X108171428Y-52893328D02*
X107814285Y-53893328D01*
X107814285Y-53893328D02*
X107671428Y-54250471D01*
X107671428Y-54250471D02*
X107599999Y-54321900D01*
X107599999Y-54321900D02*
X107457142Y-54393328D01*
X108742856Y-52893328D02*
X108742856Y-54393328D01*
X108742856Y-52964757D02*
X108885714Y-52893328D01*
X108885714Y-52893328D02*
X109171428Y-52893328D01*
X109171428Y-52893328D02*
X109314285Y-52964757D01*
X109314285Y-52964757D02*
X109385714Y-53036185D01*
X109385714Y-53036185D02*
X109457142Y-53179042D01*
X109457142Y-53179042D02*
X109457142Y-53607614D01*
X109457142Y-53607614D02*
X109385714Y-53750471D01*
X109385714Y-53750471D02*
X109314285Y-53821900D01*
X109314285Y-53821900D02*
X109171428Y-53893328D01*
X109171428Y-53893328D02*
X108885714Y-53893328D01*
X108885714Y-53893328D02*
X108742856Y-53821900D01*
X110671428Y-53821900D02*
X110528571Y-53893328D01*
X110528571Y-53893328D02*
X110242857Y-53893328D01*
X110242857Y-53893328D02*
X110099999Y-53821900D01*
X110099999Y-53821900D02*
X110028571Y-53679042D01*
X110028571Y-53679042D02*
X110028571Y-53107614D01*
X110028571Y-53107614D02*
X110099999Y-52964757D01*
X110099999Y-52964757D02*
X110242857Y-52893328D01*
X110242857Y-52893328D02*
X110528571Y-52893328D01*
X110528571Y-52893328D02*
X110671428Y-52964757D01*
X110671428Y-52964757D02*
X110742857Y-53107614D01*
X110742857Y-53107614D02*
X110742857Y-53250471D01*
X110742857Y-53250471D02*
X110028571Y-53393328D01*
X68707143Y-57669757D02*
X68564286Y-57598328D01*
X68564286Y-57598328D02*
X68350000Y-57598328D01*
X68350000Y-57598328D02*
X68135714Y-57669757D01*
X68135714Y-57669757D02*
X67992857Y-57812614D01*
X67992857Y-57812614D02*
X67921428Y-57955471D01*
X67921428Y-57955471D02*
X67850000Y-58241185D01*
X67850000Y-58241185D02*
X67850000Y-58455471D01*
X67850000Y-58455471D02*
X67921428Y-58741185D01*
X67921428Y-58741185D02*
X67992857Y-58884042D01*
X67992857Y-58884042D02*
X68135714Y-59026900D01*
X68135714Y-59026900D02*
X68350000Y-59098328D01*
X68350000Y-59098328D02*
X68492857Y-59098328D01*
X68492857Y-59098328D02*
X68707143Y-59026900D01*
X68707143Y-59026900D02*
X68778571Y-58955471D01*
X68778571Y-58955471D02*
X68778571Y-58455471D01*
X68778571Y-58455471D02*
X68492857Y-58455471D01*
X69421428Y-59098328D02*
X69421428Y-57598328D01*
X69421428Y-57598328D02*
X70278571Y-59098328D01*
X70278571Y-59098328D02*
X70278571Y-57598328D01*
X70992857Y-59098328D02*
X70992857Y-57598328D01*
X70992857Y-57598328D02*
X71350000Y-57598328D01*
X71350000Y-57598328D02*
X71564286Y-57669757D01*
X71564286Y-57669757D02*
X71707143Y-57812614D01*
X71707143Y-57812614D02*
X71778572Y-57955471D01*
X71778572Y-57955471D02*
X71850000Y-58241185D01*
X71850000Y-58241185D02*
X71850000Y-58455471D01*
X71850000Y-58455471D02*
X71778572Y-58741185D01*
X71778572Y-58741185D02*
X71707143Y-58884042D01*
X71707143Y-58884042D02*
X71564286Y-59026900D01*
X71564286Y-59026900D02*
X71350000Y-59098328D01*
X71350000Y-59098328D02*
X70992857Y-59098328D01*
D11*
X69516666Y-43754819D02*
X69516666Y-44469104D01*
X69516666Y-44469104D02*
X69469047Y-44611961D01*
X69469047Y-44611961D02*
X69373809Y-44707200D01*
X69373809Y-44707200D02*
X69230952Y-44754819D01*
X69230952Y-44754819D02*
X69135714Y-44754819D01*
X70135714Y-44183390D02*
X70040476Y-44135771D01*
X70040476Y-44135771D02*
X69992857Y-44088152D01*
X69992857Y-44088152D02*
X69945238Y-43992914D01*
X69945238Y-43992914D02*
X69945238Y-43945295D01*
X69945238Y-43945295D02*
X69992857Y-43850057D01*
X69992857Y-43850057D02*
X70040476Y-43802438D01*
X70040476Y-43802438D02*
X70135714Y-43754819D01*
X70135714Y-43754819D02*
X70326190Y-43754819D01*
X70326190Y-43754819D02*
X70421428Y-43802438D01*
X70421428Y-43802438D02*
X70469047Y-43850057D01*
X70469047Y-43850057D02*
X70516666Y-43945295D01*
X70516666Y-43945295D02*
X70516666Y-43992914D01*
X70516666Y-43992914D02*
X70469047Y-44088152D01*
X70469047Y-44088152D02*
X70421428Y-44135771D01*
X70421428Y-44135771D02*
X70326190Y-44183390D01*
X70326190Y-44183390D02*
X70135714Y-44183390D01*
X70135714Y-44183390D02*
X70040476Y-44231009D01*
X70040476Y-44231009D02*
X69992857Y-44278628D01*
X69992857Y-44278628D02*
X69945238Y-44373866D01*
X69945238Y-44373866D02*
X69945238Y-44564342D01*
X69945238Y-44564342D02*
X69992857Y-44659580D01*
X69992857Y-44659580D02*
X70040476Y-44707200D01*
X70040476Y-44707200D02*
X70135714Y-44754819D01*
X70135714Y-44754819D02*
X70326190Y-44754819D01*
X70326190Y-44754819D02*
X70421428Y-44707200D01*
X70421428Y-44707200D02*
X70469047Y-44659580D01*
X70469047Y-44659580D02*
X70516666Y-44564342D01*
X70516666Y-44564342D02*
X70516666Y-44373866D01*
X70516666Y-44373866D02*
X70469047Y-44278628D01*
X70469047Y-44278628D02*
X70421428Y-44231009D01*
X70421428Y-44231009D02*
X70326190Y-44183390D01*
X88566666Y-94554819D02*
X88566666Y-95269104D01*
X88566666Y-95269104D02*
X88519047Y-95411961D01*
X88519047Y-95411961D02*
X88423809Y-95507200D01*
X88423809Y-95507200D02*
X88280952Y-95554819D01*
X88280952Y-95554819D02*
X88185714Y-95554819D01*
X89471428Y-94888152D02*
X89471428Y-95554819D01*
X89233333Y-94507200D02*
X88995238Y-95221485D01*
X88995238Y-95221485D02*
X89614285Y-95221485D01*
X50466666Y-59629819D02*
X50466666Y-60344104D01*
X50466666Y-60344104D02*
X50419047Y-60486961D01*
X50419047Y-60486961D02*
X50323809Y-60582200D01*
X50323809Y-60582200D02*
X50180952Y-60629819D01*
X50180952Y-60629819D02*
X50085714Y-60629819D01*
X51466666Y-60629819D02*
X50895238Y-60629819D01*
X51180952Y-60629819D02*
X51180952Y-59629819D01*
X51180952Y-59629819D02*
X51085714Y-59772676D01*
X51085714Y-59772676D02*
X50990476Y-59867914D01*
X50990476Y-59867914D02*
X50895238Y-59915533D01*
X69516666Y-94554819D02*
X69516666Y-95269104D01*
X69516666Y-95269104D02*
X69469047Y-95411961D01*
X69469047Y-95411961D02*
X69373809Y-95507200D01*
X69373809Y-95507200D02*
X69230952Y-95554819D01*
X69230952Y-95554819D02*
X69135714Y-95554819D01*
X69897619Y-94554819D02*
X70516666Y-94554819D01*
X70516666Y-94554819D02*
X70183333Y-94935771D01*
X70183333Y-94935771D02*
X70326190Y-94935771D01*
X70326190Y-94935771D02*
X70421428Y-94983390D01*
X70421428Y-94983390D02*
X70469047Y-95031009D01*
X70469047Y-95031009D02*
X70516666Y-95126247D01*
X70516666Y-95126247D02*
X70516666Y-95364342D01*
X70516666Y-95364342D02*
X70469047Y-95459580D01*
X70469047Y-95459580D02*
X70421428Y-95507200D01*
X70421428Y-95507200D02*
X70326190Y-95554819D01*
X70326190Y-95554819D02*
X70040476Y-95554819D01*
X70040476Y-95554819D02*
X69945238Y-95507200D01*
X69945238Y-95507200D02*
X69897619Y-95459580D01*
X126666666Y-78679819D02*
X126666666Y-79394104D01*
X126666666Y-79394104D02*
X126619047Y-79536961D01*
X126619047Y-79536961D02*
X126523809Y-79632200D01*
X126523809Y-79632200D02*
X126380952Y-79679819D01*
X126380952Y-79679819D02*
X126285714Y-79679819D01*
X127571428Y-78679819D02*
X127380952Y-78679819D01*
X127380952Y-78679819D02*
X127285714Y-78727438D01*
X127285714Y-78727438D02*
X127238095Y-78775057D01*
X127238095Y-78775057D02*
X127142857Y-78917914D01*
X127142857Y-78917914D02*
X127095238Y-79108390D01*
X127095238Y-79108390D02*
X127095238Y-79489342D01*
X127095238Y-79489342D02*
X127142857Y-79584580D01*
X127142857Y-79584580D02*
X127190476Y-79632200D01*
X127190476Y-79632200D02*
X127285714Y-79679819D01*
X127285714Y-79679819D02*
X127476190Y-79679819D01*
X127476190Y-79679819D02*
X127571428Y-79632200D01*
X127571428Y-79632200D02*
X127619047Y-79584580D01*
X127619047Y-79584580D02*
X127666666Y-79489342D01*
X127666666Y-79489342D02*
X127666666Y-79251247D01*
X127666666Y-79251247D02*
X127619047Y-79156009D01*
X127619047Y-79156009D02*
X127571428Y-79108390D01*
X127571428Y-79108390D02*
X127476190Y-79060771D01*
X127476190Y-79060771D02*
X127285714Y-79060771D01*
X127285714Y-79060771D02*
X127190476Y-79108390D01*
X127190476Y-79108390D02*
X127142857Y-79156009D01*
X127142857Y-79156009D02*
X127095238Y-79251247D01*
X107616666Y-94554819D02*
X107616666Y-95269104D01*
X107616666Y-95269104D02*
X107569047Y-95411961D01*
X107569047Y-95411961D02*
X107473809Y-95507200D01*
X107473809Y-95507200D02*
X107330952Y-95554819D01*
X107330952Y-95554819D02*
X107235714Y-95554819D01*
X108569047Y-94554819D02*
X108092857Y-94554819D01*
X108092857Y-94554819D02*
X108045238Y-95031009D01*
X108045238Y-95031009D02*
X108092857Y-94983390D01*
X108092857Y-94983390D02*
X108188095Y-94935771D01*
X108188095Y-94935771D02*
X108426190Y-94935771D01*
X108426190Y-94935771D02*
X108521428Y-94983390D01*
X108521428Y-94983390D02*
X108569047Y-95031009D01*
X108569047Y-95031009D02*
X108616666Y-95126247D01*
X108616666Y-95126247D02*
X108616666Y-95364342D01*
X108616666Y-95364342D02*
X108569047Y-95459580D01*
X108569047Y-95459580D02*
X108521428Y-95507200D01*
X108521428Y-95507200D02*
X108426190Y-95554819D01*
X108426190Y-95554819D02*
X108188095Y-95554819D01*
X108188095Y-95554819D02*
X108092857Y-95507200D01*
X108092857Y-95507200D02*
X108045238Y-95459580D01*
X50466666Y-78679819D02*
X50466666Y-79394104D01*
X50466666Y-79394104D02*
X50419047Y-79536961D01*
X50419047Y-79536961D02*
X50323809Y-79632200D01*
X50323809Y-79632200D02*
X50180952Y-79679819D01*
X50180952Y-79679819D02*
X50085714Y-79679819D01*
X50895238Y-78775057D02*
X50942857Y-78727438D01*
X50942857Y-78727438D02*
X51038095Y-78679819D01*
X51038095Y-78679819D02*
X51276190Y-78679819D01*
X51276190Y-78679819D02*
X51371428Y-78727438D01*
X51371428Y-78727438D02*
X51419047Y-78775057D01*
X51419047Y-78775057D02*
X51466666Y-78870295D01*
X51466666Y-78870295D02*
X51466666Y-78965533D01*
X51466666Y-78965533D02*
X51419047Y-79108390D01*
X51419047Y-79108390D02*
X50847619Y-79679819D01*
X50847619Y-79679819D02*
X51466666Y-79679819D01*
X126666666Y-59629819D02*
X126666666Y-60344104D01*
X126666666Y-60344104D02*
X126619047Y-60486961D01*
X126619047Y-60486961D02*
X126523809Y-60582200D01*
X126523809Y-60582200D02*
X126380952Y-60629819D01*
X126380952Y-60629819D02*
X126285714Y-60629819D01*
X127047619Y-59629819D02*
X127714285Y-59629819D01*
X127714285Y-59629819D02*
X127285714Y-60629819D01*
D12*
%TO.C,J8*%
X75350000Y-50800000D02*
G75*
G03*
X75350000Y-50800000I-5500000J0D01*
G01*
%TO.C,J4*%
X94400000Y-101600000D02*
G75*
G03*
X94400000Y-101600000I-5500000J0D01*
G01*
%TO.C,J1*%
X56300000Y-66675000D02*
G75*
G03*
X56300000Y-66675000I-5500000J0D01*
G01*
%TO.C,J3*%
X75350000Y-101600000D02*
G75*
G03*
X75350000Y-101600000I-5500000J0D01*
G01*
%TO.C,J6*%
X132500000Y-85725000D02*
G75*
G03*
X132500000Y-85725000I-5500000J0D01*
G01*
%TO.C,J5*%
X113450000Y-101600000D02*
G75*
G03*
X113450000Y-101600000I-5500000J0D01*
G01*
%TO.C,J2*%
X56300000Y-85725000D02*
G75*
G03*
X56300000Y-85725000I-5500000J0D01*
G01*
%TO.C,J7*%
X132500000Y-66675000D02*
G75*
G03*
X132500000Y-66675000I-5500000J0D01*
G01*
%TO.C,U1*%
X83700000Y-82525000D02*
X84390000Y-82525000D01*
X84390000Y-82525000D02*
X84390000Y-87650000D01*
X93410000Y-82525000D02*
X93410000Y-83625000D01*
X94100000Y-82525000D02*
X93410000Y-82525000D01*
X83700000Y-81025000D02*
X83700000Y-82525000D01*
X94100000Y-81025000D02*
X94100000Y-82525000D01*
%TD*%
M02*
