M48
; DRILL file {KiCad 7.0.9} date Tue 14 Nov 2023 04:15:11 PM CST
; FORMAT={-:-/ absolute / inch / decimal}
; #@! TF.CreationDate,2023-11-14T16:15:11-06:00
; #@! TF.GenerationSoftware,Kicad,Pcbnew,7.0.9
; #@! TF.FileFunction,Plated,1,2,PTH
FMAT,2
INCH
; #@! TA.AperFunction,Plated,PTH,ViaDrill
T1C0.0157
; #@! TA.AperFunction,Plated,PTH,ComponentDrill
T2C0.2402
%
G90
G05
T1
X3.2Y-2.75
X3.2Y-2.85
X3.2Y-2.95
X3.2Y-3.05
X3.2Y-3.15
X3.3Y-2.7
X3.4Y-2.7
X3.5Y-2.7
X3.6Y-2.7
X3.7Y-2.7
X3.8Y-2.75
X3.8Y-2.85
X3.8Y-2.95
X3.8Y-3.05
X3.8Y-3.15
T2
X2.0Y-2.625
X2.0Y-3.375
X2.75Y-2.0
X2.75Y-4.0
X3.5Y-4.0
X4.25Y-4.0
X5.0Y-2.625
X5.0Y-3.375
T0
M30
