%TF.GenerationSoftware,KiCad,Pcbnew,7.0.9*%
%TF.CreationDate,2023-11-14T16:15:09-06:00*%
%TF.ProjectId,to263-prototype,746f3236-332d-4707-926f-746f74797065,rev?*%
%TF.SameCoordinates,Original*%
%TF.FileFunction,Legend,Bot*%
%TF.FilePolarity,Positive*%
%FSLAX46Y46*%
G04 Gerber Fmt 4.6, Leading zero omitted, Abs format (unit mm)*
G04 Created by KiCad (PCBNEW 7.0.9) date 2023-11-14 16:15:09*
%MOMM*%
%LPD*%
G01*
G04 APERTURE LIST*
%ADD10C,0.150000*%
%ADD11C,0.120000*%
G04 APERTURE END LIST*
D10*
X90138094Y-56454819D02*
X90138094Y-55454819D01*
X90138094Y-55931009D02*
X89566666Y-55931009D01*
X89566666Y-56454819D02*
X89566666Y-55454819D01*
X89138094Y-56407200D02*
X88995237Y-56454819D01*
X88995237Y-56454819D02*
X88757142Y-56454819D01*
X88757142Y-56454819D02*
X88661904Y-56407200D01*
X88661904Y-56407200D02*
X88614285Y-56359580D01*
X88614285Y-56359580D02*
X88566666Y-56264342D01*
X88566666Y-56264342D02*
X88566666Y-56169104D01*
X88566666Y-56169104D02*
X88614285Y-56073866D01*
X88614285Y-56073866D02*
X88661904Y-56026247D01*
X88661904Y-56026247D02*
X88757142Y-55978628D01*
X88757142Y-55978628D02*
X88947618Y-55931009D01*
X88947618Y-55931009D02*
X89042856Y-55883390D01*
X89042856Y-55883390D02*
X89090475Y-55835771D01*
X89090475Y-55835771D02*
X89138094Y-55740533D01*
X89138094Y-55740533D02*
X89138094Y-55645295D01*
X89138094Y-55645295D02*
X89090475Y-55550057D01*
X89090475Y-55550057D02*
X89042856Y-55502438D01*
X89042856Y-55502438D02*
X88947618Y-55454819D01*
X88947618Y-55454819D02*
X88709523Y-55454819D01*
X88709523Y-55454819D02*
X88566666Y-55502438D01*
X87614285Y-56454819D02*
X88185713Y-56454819D01*
X87899999Y-56454819D02*
X87899999Y-55454819D01*
X87899999Y-55454819D02*
X87995237Y-55597676D01*
X87995237Y-55597676D02*
X88090475Y-55692914D01*
X88090475Y-55692914D02*
X88185713Y-55740533D01*
D11*
%TO.C,HS1*%
X100410000Y-74900000D02*
X98610000Y-72820000D01*
X100410000Y-70200000D02*
X98610000Y-68050000D01*
X100410000Y-65500000D02*
X98610000Y-63320000D01*
X100410000Y-60700000D02*
X98600000Y-58590000D01*
X99260000Y-66650000D02*
X100410000Y-65500000D01*
X99160000Y-76050000D02*
X100410000Y-74900000D01*
X99160000Y-71300000D02*
X100410000Y-70200000D01*
X99160000Y-61800000D02*
X100410000Y-60700000D01*
X98610000Y-76200000D02*
X98610000Y-75400000D01*
X98610000Y-75400000D02*
X99160000Y-76050000D01*
X98610000Y-72820000D02*
X98610000Y-70650000D01*
X98610000Y-70640000D02*
X99160000Y-71300000D01*
X98610000Y-68040000D02*
X98610000Y-65890000D01*
X98610000Y-65890000D02*
X99260000Y-66650000D01*
X98610000Y-63310000D02*
X98610000Y-61150000D01*
X98610000Y-61140000D02*
X99160000Y-61800000D01*
X98610000Y-58560000D02*
X98610000Y-57050000D01*
X98590000Y-57050000D02*
X79210000Y-57050000D01*
X79210000Y-72800000D02*
X77410000Y-75250000D01*
X79210000Y-70800000D02*
X79210000Y-72800000D01*
X79210000Y-68050000D02*
X77410000Y-70500000D01*
X79210000Y-66100000D02*
X79210000Y-68050000D01*
X79210000Y-63350000D02*
X77410000Y-65850000D01*
X79210000Y-61250000D02*
X79210000Y-63350000D01*
X79210000Y-58600000D02*
X77460000Y-61000000D01*
X79190000Y-76200000D02*
X98610000Y-76200000D01*
X79190000Y-75600000D02*
X79190000Y-76200000D01*
X79190000Y-57050000D02*
X79190000Y-58600000D01*
X78710000Y-76250000D02*
X79190000Y-75600000D01*
X78710000Y-61950000D02*
X79210000Y-61250000D01*
X78660000Y-71500000D02*
X79210000Y-70800000D01*
X78660000Y-66850000D02*
X79210000Y-66100000D01*
X77460000Y-61000000D02*
X78710000Y-61950000D01*
X77410000Y-75250000D02*
X78710000Y-76250000D01*
X77410000Y-70500000D02*
X78660000Y-71500000D01*
X77360000Y-65900000D02*
X78660000Y-66850000D01*
X91012272Y-63500000D02*
G75*
G03*
X91012272Y-63500000I-2202272J0D01*
G01*
%TD*%
M02*
