%TF.GenerationSoftware,KiCad,Pcbnew,7.0.9*%
%TF.CreationDate,2023-11-14T16:15:09-06:00*%
%TF.ProjectId,to263-prototype,746f3236-332d-4707-926f-746f74797065,rev?*%
%TF.SameCoordinates,Original*%
%TF.FileFunction,Soldermask,Top*%
%TF.FilePolarity,Negative*%
%FSLAX46Y46*%
G04 Gerber Fmt 4.6, Leading zero omitted, Abs format (unit mm)*
G04 Created by KiCad (PCBNEW 7.0.9) date 2023-11-14 16:15:09*
%MOMM*%
%LPD*%
G01*
G04 APERTURE LIST*
G04 Aperture macros list*
%AMRoundRect*
0 Rectangle with rounded corners*
0 $1 Rounding radius*
0 $2 $3 $4 $5 $6 $7 $8 $9 X,Y pos of 4 corners*
0 Add a 4 corners polygon primitive as box body*
4,1,4,$2,$3,$4,$5,$6,$7,$8,$9,$2,$3,0*
0 Add four circle primitives for the rounded corners*
1,1,$1+$1,$2,$3*
1,1,$1+$1,$4,$5*
1,1,$1+$1,$6,$7*
1,1,$1+$1,$8,$9*
0 Add four rect primitives between the rounded corners*
20,1,$1+$1,$2,$3,$4,$5,0*
20,1,$1+$1,$4,$5,$6,$7,0*
20,1,$1+$1,$6,$7,$8,$9,0*
20,1,$1+$1,$8,$9,$2,$3,0*%
G04 Aperture macros list end*
%ADD10C,0.150000*%
%ADD11C,3.200000*%
%ADD12C,10.160000*%
%ADD13RoundRect,0.200000X0.200000X-2.100000X0.200000X2.100000X-0.200000X2.100000X-0.200000X-2.100000X0*%
%ADD14RoundRect,0.250002X5.149998X-4.449998X5.149998X4.449998X-5.149998X4.449998X-5.149998X-4.449998X0*%
G04 APERTURE END LIST*
D10*
X77470000Y-57150000D02*
X100330000Y-57150000D01*
X100330000Y-81280000D01*
X77470000Y-81280000D01*
X77470000Y-57150000D01*
D11*
%TO.C,REF\u002A\u002A*%
X127000000Y-101600000D03*
%TD*%
D12*
%TO.C,J8*%
X69850000Y-50800000D03*
%TD*%
D11*
%TO.C,REF\u002A\u002A*%
X50800000Y-101600000D03*
%TD*%
%TO.C,REF\u002A\u002A*%
X50800000Y-50800000D03*
%TD*%
%TO.C,REF\u002A\u002A*%
X88900000Y-63500000D03*
%TD*%
D12*
%TO.C,J4*%
X88900000Y-101600000D03*
%TD*%
%TO.C,J1*%
X50800000Y-66675000D03*
%TD*%
%TO.C,J3*%
X69850000Y-101600000D03*
%TD*%
%TO.C,J6*%
X127000000Y-85725000D03*
%TD*%
%TO.C,J5*%
X107950000Y-101600000D03*
%TD*%
D11*
%TO.C,REF\u002A\u002A*%
X127000000Y-50800000D03*
%TD*%
D12*
%TO.C,J2*%
X50800000Y-85725000D03*
%TD*%
%TO.C,J7*%
X127000000Y-66675000D03*
%TD*%
D13*
%TO.C,U1*%
X85090000Y-85350000D03*
X86360000Y-85350000D03*
X87630000Y-85350000D03*
X88900000Y-85350000D03*
D14*
X88900000Y-76200000D03*
D13*
X90170000Y-85350000D03*
X91440000Y-85350000D03*
X92710000Y-85350000D03*
%TD*%
G36*
X100273039Y-57169685D02*
G01*
X100318794Y-57222489D01*
X100330000Y-57274000D01*
X100330000Y-81156000D01*
X100310315Y-81223039D01*
X100257511Y-81268794D01*
X100206000Y-81280000D01*
X77594000Y-81280000D01*
X77526961Y-81260315D01*
X77481206Y-81207511D01*
X77470000Y-81156000D01*
X77470000Y-57274000D01*
X77489685Y-57206961D01*
X77542489Y-57161206D01*
X77594000Y-57150000D01*
X100206000Y-57150000D01*
X100273039Y-57169685D01*
G37*
M02*
